<svg width="296" height="260" viewBox="0 0 296 260" fill="none" xmlns="http://www.w3.org/2000/svg">
<g clip-path="url(#clip0_2150_1571)">
<g clip-path="url(#clip1_2150_1571)">
<g filter="url(#filter0_ddddiin_2150_1571)">
<path d="M129.231 101.036C129.783 101.036 130.231 101.484 130.231 102.036V127.37C130.231 127.922 129.783 128.37 129.231 128.37H74.0763C73.5735 128.37 73.1488 128.744 73.0845 129.242L70.5814 148.656C70.463 149.574 71.5722 150.173 72.3132 149.619C72.7143 149.319 73.1252 149.026 73.5458 148.74C76.4527 146.651 79.8829 145.026 83.8363 143.865C87.7897 142.705 92.2664 142.124 97.2663 142.124C105.987 142.124 113.429 143.923 119.591 147.521C125.754 151.003 130.463 155.82 133.719 161.972C137.091 168.007 138.777 174.855 138.777 182.516C138.777 191.917 136.626 199.984 132.324 206.716C128.138 213.448 122.091 218.613 114.185 222.211C106.394 225.693 97.15 227.434 86.4526 227.434C75.4062 227.434 66.1622 225.867 58.7205 222.733C51.395 219.6 45.7556 215.189 41.8022 209.502C38.138 203.96 35.9053 197.518 35.1039 190.177C35.0419 189.609 35.4783 189.112 36.0493 189.089L68.5469 187.772C69.0204 187.753 69.4401 188.069 69.5707 188.525C70.6545 192.305 72.5028 195.119 75.1155 196.966C77.9062 198.94 81.6852 199.926 86.4526 199.926C92.0338 199.926 96.3361 198.417 99.3593 195.399C102.382 192.382 103.894 188.087 103.894 182.516C103.894 179.15 103.138 176.19 101.627 173.637C100.231 170.967 98.2547 168.878 95.6966 167.369C93.1385 165.86 90.0571 165.106 86.4526 165.106C81.9177 165.106 78.1969 166.15 75.29 168.24C72.7085 170.065 70.8235 172.188 69.6351 174.609C69.4597 174.966 69.1025 175.204 68.7047 175.204H36.9992C36.3997 175.204 35.9349 174.68 36.0063 174.085L44.6616 101.917C44.7219 101.414 45.1483 101.036 45.6545 101.036H129.231Z" fill="url(#paint0_linear_2150_1571)"/>
<path fill-rule="evenodd" clip-rule="evenodd" d="M205.608 101.036C221.422 101.036 233.631 103.764 242.236 109.219C250.956 114.558 255.317 123.089 255.317 134.812C255.317 139.803 254.328 144.097 252.352 147.695C250.491 151.294 247.642 154.195 243.805 156.401C240.007 158.468 235.355 159.854 229.849 160.557C229.751 160.57 229.678 160.653 229.678 160.751C229.678 160.851 229.754 160.935 229.854 160.945C240.114 162.007 247.788 165.077 252.875 170.155C257.991 175.146 260.549 181.936 260.549 190.525C260.549 202.131 256.247 210.72 247.642 216.292C239.038 221.863 226.771 224.649 210.841 224.649H154.632C154.08 224.649 153.632 224.201 153.632 223.649V102.036C153.632 101.484 154.08 101.036 154.632 101.036H205.608ZM187.818 197.533C187.818 198.086 188.266 198.533 188.818 198.533H208.573C213.573 198.533 217.759 197.547 221.131 195.574C224.62 193.484 226.364 190.234 226.364 185.824C226.364 181.413 224.678 178.163 221.306 176.074C217.934 173.985 213.69 172.94 208.573 172.94H188.818C188.266 172.94 187.818 173.388 187.818 173.94V197.533ZM187.818 149.655C187.818 150.208 188.266 150.655 188.818 150.655H204.213C209.097 150.655 213.108 149.727 216.248 147.87C219.503 145.896 221.131 142.937 221.131 138.99C221.131 134.812 219.562 131.794 216.422 129.937C213.283 128.08 209.213 127.151 204.213 127.151H188.818C188.266 127.151 187.818 127.599 187.818 128.151V149.655Z" fill="url(#paint1_linear_2150_1571)"/>
<path d="M45.6543 101.536H129.23C129.507 101.536 129.73 101.76 129.73 102.036V127.37C129.73 127.646 129.507 127.87 129.23 127.87H74.0762C73.322 127.87 72.6853 128.431 72.5889 129.179L70.0859 148.592C69.9964 149.286 70.3782 149.85 70.8838 150.128C71.3868 150.405 72.0648 150.43 72.6133 150.02C73.0081 149.724 73.4119 149.435 73.8262 149.153L73.8271 149.154L73.8379 149.146C76.6927 147.095 80.0702 145.492 83.9775 144.345C87.8766 143.2 92.3048 142.624 97.2666 142.624C105.918 142.624 113.269 144.409 119.34 147.953L119.346 147.957C125.427 151.393 130.067 156.141 133.277 162.206L133.282 162.216C136.608 168.169 138.277 174.931 138.277 182.516C138.277 191.839 136.145 199.809 131.902 206.447L131.899 206.452C127.9 212.885 122.175 217.875 114.706 221.418L113.978 221.756C106.266 225.202 97.0952 226.935 86.4521 226.935C75.4504 226.935 66.2778 225.373 58.916 222.273H58.917C51.6686 219.173 46.1106 214.82 42.2188 209.226H42.2197C38.6042 203.757 36.3943 197.394 35.6006 190.123C35.5707 189.849 35.7817 189.601 36.0693 189.589L68.5674 188.271C68.8002 188.262 69.02 188.419 69.0898 188.663C70.1977 192.527 72.1019 195.448 74.8271 197.375C77.7295 199.427 81.6214 200.426 86.4521 200.426C92.1237 200.426 96.5698 198.89 99.7129 195.753C102.856 192.615 104.395 188.177 104.395 182.516C104.394 179.072 103.62 176.022 102.057 173.382C100.619 170.642 98.5823 168.491 95.9502 166.938C93.3003 165.375 90.1269 164.605 86.4521 164.605C81.8425 164.606 78.0127 165.668 75.001 167.831C72.3632 169.696 70.4177 171.881 69.1865 174.389C69.0896 174.586 68.8995 174.704 68.7051 174.704H36.999C36.6995 174.704 36.4675 174.442 36.5029 174.145L45.1582 101.977C45.1884 101.725 45.4013 101.536 45.6543 101.536ZM154.633 101.536H205.608C221.375 101.536 233.476 104.258 241.968 109.642L241.975 109.646C250.523 114.879 254.816 123.233 254.816 134.812C254.816 139.736 253.841 143.945 251.913 147.455L251.907 147.466C250.095 150.971 247.318 153.805 243.556 155.967C240.06 157.868 235.812 159.191 230.799 159.923L229.785 160.062C229.484 160.1 229.245 160.329 229.189 160.622L229.178 160.751L229.19 160.883C229.248 161.181 229.496 161.411 229.803 161.442C239.997 162.497 247.544 165.541 252.521 170.509L252.987 170.975C257.682 175.808 260.049 182.306 260.049 190.524C260.049 201.988 255.812 210.406 247.371 215.872C238.881 221.369 226.724 224.148 210.841 224.148H154.633C154.357 224.148 154.133 223.925 154.133 223.648V102.036C154.133 101.76 154.357 101.536 154.633 101.536ZM188.818 172.44C187.99 172.44 187.318 173.112 187.318 173.94V197.533C187.318 198.362 187.99 199.033 188.818 199.033H208.573C213.638 199.033 217.917 198.034 221.384 196.005L221.388 196.003C225.042 193.815 226.863 190.392 226.863 185.824C226.863 181.264 225.107 177.841 221.569 175.649C218.098 173.499 213.756 172.44 208.573 172.44H188.818ZM188.818 126.651C187.99 126.651 187.318 127.323 187.318 128.151V149.655C187.318 150.484 187.99 151.155 188.818 151.155H204.213C209.157 151.155 213.264 150.215 216.502 148.3L216.507 148.297C219.919 146.229 221.631 143.103 221.631 138.99C221.631 134.666 219.993 131.468 216.677 129.507C213.437 127.59 209.271 126.651 204.213 126.651H188.818Z" stroke="#202020"/>
</g>
<mask id="mask0_2150_1571" style="mask-type:alpha" maskUnits="userSpaceOnUse" x="35" y="100" width="226" height="127">
<path d="M128.551 100.626C129.655 100.626 130.551 101.521 130.551 102.626V125.942C130.551 127.047 129.655 127.942 128.551 127.942H75.416C74.4102 127.942 73.5608 128.689 73.4324 129.687L71.2403 146.719C71.0559 148.152 72.8101 149.111 74.0049 148.299C76.9047 146.211 80.3265 144.587 84.2702 143.427C88.2139 142.267 92.6796 141.687 97.6672 141.687C106.367 141.687 113.79 143.485 119.938 147.081C126.085 150.56 130.783 155.374 134.031 161.522C137.394 167.553 139.076 174.397 139.076 182.052C139.076 191.447 136.93 199.509 132.639 206.236C128.463 212.964 122.431 218.125 114.544 221.721C106.773 225.201 97.5512 226.941 86.88 226.941C75.8608 226.941 66.6395 225.375 59.216 222.243C51.9085 219.111 46.2829 214.704 42.3392 209.02C38.8582 203.746 36.6723 197.656 35.7814 190.751C35.6351 189.618 36.51 188.625 37.6519 188.578L68.2026 187.338C69.15 187.299 69.9839 187.935 70.2779 188.837C71.3827 192.224 73.147 194.776 75.5708 196.493C78.3546 198.465 82.1243 199.451 86.88 199.451C92.4476 199.451 96.7393 197.943 99.7551 194.927C102.771 191.911 104.279 187.62 104.279 182.052C104.279 178.688 103.525 175.731 102.017 173.179C100.625 170.511 98.6531 168.423 96.1013 166.915C93.5495 165.407 90.4757 164.653 86.88 164.653C82.3563 164.653 78.6446 165.697 75.7448 167.785C73.3786 169.461 71.599 171.389 70.406 173.568C70.0236 174.266 69.3142 174.745 68.5179 174.745H38.6774C37.4785 174.745 36.549 173.697 36.6915 172.507L45.086 102.388C45.2064 101.383 46.0592 100.626 47.0718 100.626H128.551Z" fill="url(#paint2_linear_2150_1571)"/>
<path fill-rule="evenodd" clip-rule="evenodd" d="M205.743 100.626C221.518 100.626 233.697 103.352 242.281 108.803C250.98 114.139 255.33 122.664 255.33 134.38C255.33 139.367 254.344 143.659 252.372 147.255C250.516 150.85 247.674 153.75 243.847 155.954C240.058 158.02 235.417 159.405 229.925 160.108C229.827 160.121 229.754 160.203 229.754 160.302C229.754 160.402 229.83 160.485 229.93 160.496C240.165 161.557 247.819 164.624 252.894 169.699C257.997 174.687 260.549 181.472 260.549 190.056C260.549 201.655 256.258 210.238 247.674 215.806C239.091 221.373 226.854 224.157 210.963 224.157H155.895C154.79 224.157 153.895 223.262 153.895 222.157V102.626C153.895 101.521 154.79 100.626 155.895 100.626H205.743ZM187.997 196.059C187.997 197.164 188.892 198.059 189.997 198.059H208.701C213.689 198.059 217.864 197.073 221.228 195.101C224.708 193.013 226.448 189.766 226.448 185.358C226.448 180.95 224.766 177.702 221.402 175.615C218.038 173.527 213.805 172.483 208.701 172.483H189.997C188.892 172.483 187.997 173.378 187.997 174.483V196.059ZM187.997 148.212C187.997 149.317 188.892 150.212 189.997 150.212H204.351C209.223 150.212 213.225 149.284 216.357 147.429C219.604 145.457 221.228 142.499 221.228 138.555C221.228 134.38 219.662 131.364 216.531 129.508C213.399 127.652 209.339 126.724 204.351 126.724H189.997C188.892 126.724 187.997 127.62 187.997 128.724V148.212Z" fill="url(#paint3_linear_2150_1571)"/>
</mask>
<g mask="url(#mask0_2150_1571)">
<g style="mix-blend-mode:soft-light" opacity="0.3">
<circle cx="242.967" cy="329.402" r="228.967" fill="white"/>
</g>
<g style="mix-blend-mode:soft-light" opacity="0.3">
<circle cx="242.967" cy="373.943" r="228.967" fill="white"/>
</g>
<g style="mix-blend-mode:soft-light" opacity="0.3">
<circle cx="242.967" cy="429.621" r="228.967" fill="white"/>
</g>
</g>
</g>
</g>
<defs>
<filter id="filter0_ddddiin_2150_1571" x="28.0977" y="95.0361" width="294.451" height="212.398" filterUnits="userSpaceOnUse" color-interpolation-filters="sRGB">
<feFlood flood-opacity="0" result="BackgroundImageFix"/>
<feColorMatrix in="SourceAlpha" type="matrix" values="0 0 0 0 0 0 0 0 0 0 0 0 0 0 0 0 0 0 127 0" result="hardAlpha"/>
<feOffset dx="2" dy="3"/>
<feGaussianBlur stdDeviation="4.5"/>
<feColorMatrix type="matrix" values="0 0 0 0 0.00392157 0 0 0 0 0.254902 0 0 0 0 0.388235 0 0 0 0.1 0"/>
<feBlend mode="normal" in2="BackgroundImageFix" result="effect1_dropShadow_2150_1571"/>
<feColorMatrix in="SourceAlpha" type="matrix" values="0 0 0 0 0 0 0 0 0 0 0 0 0 0 0 0 0 0 127 0" result="hardAlpha"/>
<feOffset dx="9" dy="13"/>
<feGaussianBlur stdDeviation="8"/>
<feColorMatrix type="matrix" values="0 0 0 0 0.00392157 0 0 0 0 0.254902 0 0 0 0 0.388235 0 0 0 0.09 0"/>
<feBlend mode="normal" in2="effect1_dropShadow_2150_1571" result="effect2_dropShadow_2150_1571"/>
<feColorMatrix in="SourceAlpha" type="matrix" values="0 0 0 0 0 0 0 0 0 0 0 0 0 0 0 0 0 0 127 0" result="hardAlpha"/>
<feOffset dx="20" dy="30"/>
<feGaussianBlur stdDeviation="11"/>
<feColorMatrix type="matrix" values="0 0 0 0 0.00392157 0 0 0 0 0.254902 0 0 0 0 0.388235 0 0 0 0.05 0"/>
<feBlend mode="normal" in2="effect2_dropShadow_2150_1571" result="effect3_dropShadow_2150_1571"/>
<feColorMatrix in="SourceAlpha" type="matrix" values="0 0 0 0 0 0 0 0 0 0 0 0 0 0 0 0 0 0 127 0" result="hardAlpha"/>
<feOffset dx="36" dy="54"/>
<feGaussianBlur stdDeviation="13"/>
<feColorMatrix type="matrix" values="0 0 0 0 0.00392157 0 0 0 0 0.254902 0 0 0 0 0.388235 0 0 0 0.01 0"/>
<feBlend mode="normal" in2="effect3_dropShadow_2150_1571" result="effect4_dropShadow_2150_1571"/>
<feBlend mode="normal" in="SourceGraphic" in2="BackgroundImageFix" result="shape"/>
<feColorMatrix in="SourceAlpha" type="matrix" values="0 0 0 0 0 0 0 0 0 0 0 0 0 0 0 0 0 0 127 0" result="hardAlpha"/>
<feOffset dy="6"/>
<feGaussianBlur stdDeviation="2.5"/>
<feComposite in2="hardAlpha" operator="arithmetic" k2="-1" k3="1"/>
<feColorMatrix type="matrix" values="0 0 0 0 0 0 0 0 0 0 0 0 0 0 0 0 0 0 0.55 0"/>
<feBlend mode="normal" in2="shape" result="effect5_innerShadow_2150_1571"/>
<feColorMatrix in="SourceAlpha" type="matrix" values="0 0 0 0 0 0 0 0 0 0 0 0 0 0 0 0 0 0 127 0" result="hardAlpha"/>
<feMorphology radius="3" operator="erode" in="SourceAlpha" result="effect6_innerShadow_2150_1571"/>
<feOffset/>
<feGaussianBlur stdDeviation="0.5"/>
<feComposite in2="hardAlpha" operator="arithmetic" k2="-1" k3="1"/>
<feColorMatrix type="matrix" values="0 0 0 0 0.286275 0 0 0 0 0.286275 0 0 0 0 0.286275 0 0 0 1 0"/>
<feBlend mode="normal" in2="effect5_innerShadow_2150_1571" result="effect6_innerShadow_2150_1571"/>
<feTurbulence type="fractalNoise" baseFrequency="2 2" stitchTiles="stitch" numOctaves="3" result="noise" seed="1079" />
<feColorMatrix in="noise" type="luminanceToAlpha" result="alphaNoise" />
<feComponentTransfer in="alphaNoise" result="coloredNoise1">
<feFuncA type="discrete" tableValues="1 1 1 1 1 1 1 1 1 1 1 1 1 1 1 1 1 1 1 1 1 1 1 1 1 1 1 1 1 1 1 1 1 1 1 1 1 1 1 1 1 1 1 1 1 1 1 1 1 1 1 0 0 0 0 0 0 0 0 0 0 0 0 0 0 0 0 0 0 0 0 0 0 0 0 0 0 0 0 0 0 0 0 0 0 0 0 0 0 0 0 0 0 0 0 0 0 0 0 0 "/>
</feComponentTransfer>
<feComposite operator="in" in2="effect6_innerShadow_2150_1571" in="coloredNoise1" result="noise1Clipped" />
<feFlood flood-color="rgba(0, 0, 0, 0.25)" result="color1Flood" />
<feComposite operator="in" in2="noise1Clipped" in="color1Flood" result="color1" />
<feMerge result="effect7_noise_2150_1571">
<feMergeNode in="effect6_innerShadow_2150_1571" />
<feMergeNode in="color1" />
</feMerge>
<feBlend mode="normal" in="effect7_noise_2150_1571" in2="effect4_dropShadow_2150_1571" result="effect7_noise_2150_1571"/>
</filter>
<linearGradient id="paint0_linear_2150_1571" x1="85.9486" y1="227.434" x2="85.9486" y2="101.036" gradientUnits="userSpaceOnUse">
<stop stop-color="#202020"/>
<stop offset="1" stop-color="#515151"/>
</linearGradient>
<linearGradient id="paint1_linear_2150_1571" x1="85.9486" y1="227.434" x2="85.9486" y2="101.036" gradientUnits="userSpaceOnUse">
<stop stop-color="#202020"/>
<stop offset="1" stop-color="#515151"/>
</linearGradient>
<linearGradient id="paint2_linear_2150_1571" x1="87.5842" y1="225.549" x2="87.5842" y2="98.8861" gradientUnits="userSpaceOnUse">
<stop stop-color="#0496CC"/>
<stop offset="1" stop-color="#B1DEEF"/>
</linearGradient>
<linearGradient id="paint3_linear_2150_1571" x1="87.5842" y1="225.549" x2="87.5842" y2="98.8861" gradientUnits="userSpaceOnUse">
<stop stop-color="#0496CC"/>
<stop offset="1" stop-color="#B1DEEF"/>
</linearGradient>
<clipPath id="clip0_2150_1571">
<rect width="296" height="260" fill="white"/>
</clipPath>
<clipPath id="clip1_2150_1571">
<rect width="296" height="260" fill="white" transform="translate(0 0.433594)"/>
</clipPath>
</defs>
</svg>
