<svg width="296" height="260" viewBox="0 0 296 260" fill="none" xmlns="http://www.w3.org/2000/svg">
<g clip-path="url(#clip0_2150_1493)">
<g clip-path="url(#clip1_2150_1493)">
<mask id="mask0_2150_1493" style="mask-type:alpha" maskUnits="userSpaceOnUse" x="0" y="64" width="297" height="197">
<rect y="64.4336" width="297" height="196" fill="url(#paint0_linear_2150_1493)"/>
</mask>
<g mask="url(#mask0_2150_1493)">
<g filter="url(#filter0_ddddi_2150_1493)">
<path d="M-44.4902 112.719C-44.4902 101.516 -35.4079 92.4336 -24.2044 92.4336H87.3679C98.5714 92.4336 107.654 101.516 107.654 112.719C107.654 123.923 98.5714 133.005 87.3678 133.005H-24.2044C-35.408 133.005 -44.4902 123.923 -44.4902 112.719Z" fill="#F0FAFF"/>
<path d="M-44.4902 112.719C-44.4902 101.516 -35.4079 92.4336 -24.2044 92.4336H87.3679C98.5714 92.4336 107.654 101.516 107.654 112.719C107.654 123.923 98.5714 133.005 87.3678 133.005H-24.2044C-35.408 133.005 -44.4902 123.923 -44.4902 112.719Z" fill="url(#paint1_linear_2150_1493)" fill-opacity="0.2"/>
<path d="M-24.2041 93.4336H87.3682C98.0193 93.4338 106.653 102.069 106.653 112.72C106.653 123.371 98.0192 132.005 87.3682 132.005H-24.2041C-34.8553 132.005 -43.4901 123.371 -43.4902 112.72C-43.4902 102.068 -34.8554 93.4336 -24.2041 93.4336Z" stroke="white" stroke-width="2"/>
<g clip-path="url(#clip2_2150_1493)" filter="url(#filter1_i_2150_1493)">
<path d="M78.2774 109.292V107.98C78.2774 107.77 78.0676 107.56 77.8579 107.56H73.2432V105.039C73.2432 104.829 73.0335 104.619 72.8237 104.619H71.0932C70.831 104.619 70.6737 104.829 70.6737 105.039V107.56H67.9469C67.6847 107.56 67.5273 107.77 67.5273 107.98V109.292C67.5273 109.502 67.7371 109.712 67.9469 109.712H70.6737V113.598C70.6737 116.591 72.0896 117.956 75.0786 117.956H77.5432C77.8054 117.956 77.9627 117.746 77.9627 117.536V116.224C77.9627 116.014 77.753 115.803 77.5432 115.803H75.4981C73.8725 115.803 73.2956 115.173 73.2956 113.546V109.66H77.9103C78.0676 109.66 78.2774 109.502 78.2774 109.292Z" fill="#C0D0D7"/>
<path d="M64.4355 103.569H62.0758C61.8136 103.569 61.6562 103.779 61.6562 103.989V105.67C61.6562 105.88 61.866 106.09 62.0758 106.09H64.4355C64.6977 106.09 64.855 105.88 64.855 105.67V103.989C64.855 103.727 64.6453 103.569 64.4355 103.569Z" fill="#C0D0D7"/>
<path d="M64.7503 115.855V107.979C64.7503 107.769 64.5406 107.559 64.3308 107.559H58.982C58.7198 107.559 58.5625 107.769 58.5625 107.979V109.291C58.5625 109.501 58.7723 109.711 58.982 109.711H62.1284V115.855H58.982C58.7198 115.855 58.5625 116.065 58.5625 116.275V117.588C58.5625 117.798 58.7723 118.008 58.982 118.008H68.0015C68.2637 118.008 68.421 117.798 68.421 117.588V116.275C68.421 116.065 68.2113 115.855 68.0015 115.855H64.7503Z" fill="#C0D0D7"/>
<path d="M56.5672 115.856H53.8403V103.989C53.8403 103.779 53.6306 103.569 53.4208 103.569H48.1245C47.8623 103.569 47.705 103.779 47.705 103.989V105.302C47.705 105.512 47.9147 105.722 48.1245 105.722H51.2708V115.856H47.7574C47.4952 115.856 47.3379 116.066 47.3379 116.276V117.589C47.3379 117.799 47.5476 118.009 47.7574 118.009H56.5672C56.8294 118.009 56.9867 117.799 56.9867 117.589V116.276C56.9867 116.014 56.8294 115.856 56.5672 115.856Z" fill="#C0D0D7"/>
<path d="M42.2014 107.349C41.31 107.349 40.6282 107.559 40.1563 108.031L39.527 108.609H38.9502L38.7404 107.821C38.688 107.664 38.5307 107.506 38.3209 107.506H37.1148C36.8526 107.506 36.6953 107.716 36.6953 107.926V121.526C36.6953 121.736 36.9051 121.946 37.1148 121.946H38.8453C39.1075 121.946 39.2648 121.736 39.2648 121.526V118.585L39.0551 117.01L39.6319 116.853L40.2612 117.43C40.7331 117.903 41.3624 118.113 42.2539 118.113C44.8234 118.113 46.3966 116.328 46.3966 112.705C46.3441 109.134 44.8234 107.349 42.2014 107.349ZM41.31 116.013C39.999 116.013 39.2648 115.33 39.2648 114.07V111.549C39.2648 110.289 39.999 109.607 41.31 109.607C42.9356 109.607 43.6173 110.604 43.6173 112.81C43.6697 114.962 42.9356 116.013 41.31 116.013Z" fill="#C0D0D7"/>
<path d="M29.2992 107.349C25.9431 107.349 24.1602 109.134 24.1602 112.757C24.1602 116.38 25.9431 118.165 29.1943 118.165C31.7114 118.165 33.3894 117.115 33.809 115.277C33.8614 115.015 33.6516 114.805 33.3894 114.805H31.8163C31.659 114.805 31.5016 114.91 31.3968 115.067C31.1346 115.855 30.348 116.223 29.2467 116.223C27.5687 116.223 26.7821 115.33 26.6772 113.177H33.9138C34.3858 109.186 32.7602 107.349 29.2992 107.349ZM26.8346 111.549C27.0967 109.974 27.8833 109.239 29.2992 109.239C30.8199 109.239 31.5541 110.027 31.5541 111.549H26.8346Z" fill="#C0D0D7"/>
<path d="M19.0206 108.031L18.4438 108.609H17.867L17.6572 107.874C17.6048 107.664 17.4474 107.559 17.2377 107.559H13.4096C13.1474 107.559 12.9901 107.769 12.9901 107.979V109.291C12.9901 109.501 13.1999 109.712 13.4096 109.712H15.6645V115.855H13.0426C12.7804 115.855 12.623 116.065 12.623 116.275V117.588C12.623 117.798 12.8328 118.008 13.0426 118.008H21.2755C21.5377 118.008 21.695 117.798 21.695 117.588V116.275C21.695 116.065 21.4853 115.855 21.2755 115.855H18.234V111.497C18.234 110.289 18.9682 109.659 20.3316 109.659H22.5865C22.8487 109.659 23.006 109.449 23.006 109.239V107.769C23.006 107.559 22.7962 107.349 22.5865 107.349H21.2231C20.3316 107.349 19.545 107.559 19.0206 108.031Z" fill="#C0D0D7"/>
<path d="M-5.72852 109.082H2.08492C2.81906 109.082 3.44833 109.712 3.44833 110.447V115.068C3.44833 115.803 2.81906 116.433 2.08492 116.433H-5.72852V109.082Z" fill="#C0D0D7"/>
</g>
</g>
<g filter="url(#filter2_ddddi_2150_1493)">
<path d="M116 112.87C116 101.666 125.082 92.584 136.286 92.584H247.858C259.062 92.584 268.144 101.666 268.144 112.87C268.144 124.073 259.062 133.156 247.858 133.156H136.286C125.082 133.156 116 124.073 116 112.87Z" fill="#F0FAFF"/>
<path d="M116 112.87C116 101.666 125.082 92.584 136.286 92.584H247.858C259.062 92.584 268.144 101.666 268.144 112.87C268.144 124.073 259.062 133.156 247.858 133.156H136.286C125.082 133.156 116 124.073 116 112.87Z" fill="url(#paint2_linear_2150_1493)" fill-opacity="0.2"/>
<path d="M136.286 93.584H247.858C258.51 93.5842 267.144 102.219 267.144 112.87C267.143 123.521 258.509 132.155 247.858 132.155H136.286C125.635 132.155 117 123.521 117 112.87C117 102.219 125.635 93.584 136.286 93.584Z" stroke="white" stroke-width="2"/>
<g filter="url(#filter3_i_2150_1493)">
<path d="M190.395 108.687C189.543 107.885 188.189 107.384 186.434 107.384C183.124 107.384 180.967 109.139 180.767 111.546V111.746L180.967 111.797L183.324 112.298L183.625 112.398V111.947C183.625 111.245 183.826 110.743 184.227 110.493C184.678 110.192 185.33 109.991 186.283 109.991C187.286 109.991 187.938 110.142 188.289 110.493C188.64 110.743 188.841 111.245 188.841 112.097V112.499L184.177 113C183.675 113.033 183.191 113.134 182.723 113.301C182.255 113.435 181.853 113.635 181.519 113.903C180.867 114.404 180.516 115.106 180.516 116.059C180.516 116.962 180.917 117.814 181.569 118.316C182.271 118.867 183.274 119.118 184.377 119.118C186.484 119.118 188.139 118.316 188.941 116.912V118.918H191.699V112.097C191.699 110.743 191.298 109.54 190.395 108.687ZM187.838 116.21C187.186 116.661 186.233 116.861 185.029 116.861C184.377 116.861 183.976 116.761 183.726 116.611C183.525 116.46 183.375 116.21 183.375 115.909C183.408 115.708 183.441 115.558 183.475 115.457C183.542 115.357 183.625 115.273 183.726 115.207C183.926 115.056 184.327 114.956 184.929 114.906L188.79 114.454C188.74 115.257 188.389 115.808 187.838 116.21ZM241.345 103.873H238.738V118.918H241.646V103.873H241.345ZM225.599 104.625L225.549 104.776L224.797 107.032C224.797 107.032 224.195 105.929 222.59 105.929C221.888 105.929 221.487 106.08 221.286 106.381C221.086 106.631 220.985 106.982 221.036 107.584H224.947V110.091H221.086V118.918H218.177V110.091H216.572V107.584H218.227C218.277 106.431 218.679 105.428 219.381 104.776C220.133 104.024 221.236 103.622 222.59 103.622C223.693 103.622 224.797 103.973 225.499 104.525L225.599 104.625ZM234.826 107.584H234.576V113.201C234.576 114.304 234.325 115.106 233.823 115.608C233.322 116.159 232.57 116.46 231.416 116.46C230.263 116.46 229.611 116.21 229.16 115.758C228.708 115.307 228.508 114.655 228.508 113.702V107.584H225.599V114.354C225.599 115.608 226 116.811 226.803 117.714C227.605 118.566 228.809 119.118 230.363 119.118C231.817 119.118 232.921 118.667 233.723 117.965C234.174 117.564 234.525 117.062 234.776 116.561V118.867H237.434V107.584H234.826ZM202.832 111.345C202.832 111.997 202.732 112.649 202.481 113.151L202.381 113.351H199.572L199.723 112.95C199.856 112.616 199.923 112.231 199.923 111.797C199.923 111.094 199.773 110.643 199.522 110.392C199.221 110.091 198.77 109.941 197.968 109.941C197.115 109.941 196.563 110.142 196.212 110.593C195.861 110.994 195.711 111.646 195.711 112.599V118.867H192.802V107.584H195.51V109.44C195.711 109.038 195.995 108.671 196.363 108.336C197.015 107.735 197.917 107.384 199.071 107.384C200.375 107.384 201.327 107.835 201.929 108.587C202.581 109.339 202.832 110.292 202.832 111.345ZM213.112 107.584H212.861V118.867H215.72V107.584H213.112ZM215.519 104.024C215.218 103.773 214.817 103.673 214.316 103.673C213.814 103.673 213.363 103.773 213.062 104.024C212.761 104.274 212.611 104.625 212.611 105.027C212.611 105.478 212.761 105.829 213.062 106.08C213.363 106.33 213.814 106.431 214.316 106.431C214.767 106.431 215.218 106.33 215.519 106.08C215.87 105.829 216.021 105.478 216.021 105.027C216.021 104.592 215.854 104.258 215.519 104.024ZM212.36 117.614L212.26 117.714C211.558 118.617 210.254 119.118 208.9 119.118C207.646 119.118 206.643 118.717 205.991 117.965C205.289 117.263 204.938 116.21 204.938 114.906V110.091H203.133V107.584H204.938V105.227H207.847V107.584H211.708V110.091H207.847V114.956C207.847 115.507 207.997 115.858 208.198 116.109C208.448 116.31 208.8 116.46 209.351 116.46C210.254 116.46 210.956 116.159 211.307 115.507L211.608 114.956L211.808 115.558L212.31 117.463L212.36 117.614ZM178.46 109.038C177.507 107.985 176.153 107.434 174.398 107.434C173.144 107.434 172.041 107.735 171.239 108.336C170.737 108.687 170.336 109.189 170.085 109.791V107.634H167.327V122.578H170.236V116.861C170.487 117.413 170.888 117.814 171.339 118.165C172.141 118.817 173.195 119.118 174.448 119.118C176.203 119.118 177.557 118.566 178.46 117.513C179.413 116.46 179.864 115.006 179.864 113.251C179.864 111.546 179.413 110.091 178.46 109.038ZM170.236 113.251C170.236 112.148 170.537 111.395 171.088 110.894C171.69 110.392 172.543 110.091 173.646 110.091C174.799 110.091 175.551 110.342 176.103 110.794C176.655 111.245 176.956 112.047 176.956 113.251C176.956 114.505 176.655 115.257 176.103 115.758C175.602 116.21 174.749 116.41 173.646 116.41C172.543 116.41 171.707 116.176 171.138 115.708C170.587 115.207 170.236 114.454 170.236 113.451V113.251ZM145.864 122.729C148.02 122.729 149.675 120.723 149.675 118.817C149.675 117.664 149.073 117.212 149.073 116.36C149.073 115.658 149.525 115.407 149.926 115.407C150.427 115.407 150.979 115.808 152.183 115.808C154.991 115.808 159.003 113.602 159.003 109.891C159.003 105.929 154.439 103.572 150.126 103.572C146.566 103.572 142.755 105.027 142.755 107.534C142.755 110.242 147.168 110.342 147.168 112.398C147.168 114.605 142.203 114.906 142.203 118.717C142.203 120.823 143.758 122.729 145.864 122.729ZM144.911 119.971C143.958 119.971 143.306 119.269 143.306 118.266C143.306 115.156 149.525 113.903 149.525 111.496C149.525 109.189 144.008 110.192 144.008 108.286C144.008 107.083 145.964 106.782 147.519 106.782C150.778 106.782 154.289 108.186 154.289 111.044C154.289 112.649 152.885 114.555 150.578 114.555C150.177 114.555 149.926 114.505 149.424 114.505C144.61 114.505 147.519 119.971 144.911 119.971Z" fill="#C0D0D7"/>
</g>
</g>
<g filter="url(#filter4_ddddi_2150_1493)">
<path d="M276.106 112.719C276.106 101.516 285.189 92.4336 296.392 92.4336H407.965C419.168 92.4336 428.25 101.516 428.25 112.719C428.25 123.923 419.168 133.005 407.965 133.005H296.392C285.189 133.005 276.106 123.923 276.106 112.719Z" fill="#F0FAFF"/>
<path d="M276.106 112.719C276.106 101.516 285.189 92.4336 296.392 92.4336H407.965C419.168 92.4336 428.25 101.516 428.25 112.719C428.25 123.923 419.168 133.005 407.965 133.005H296.392C285.189 133.005 276.106 123.923 276.106 112.719Z" fill="url(#paint3_linear_2150_1493)" fill-opacity="0.2"/>
<path d="M296.393 93.4336H407.965C418.616 93.4338 427.25 102.069 427.25 112.72C427.25 123.371 418.616 132.005 407.965 132.005H296.393C285.741 132.005 277.107 123.371 277.106 112.72C277.106 102.068 285.741 93.4336 296.393 93.4336Z" stroke="white" stroke-width="2"/>
</g>
<g filter="url(#filter5_ddddi_2150_1493)">
<path d="M190.488 162.589C190.488 151.385 199.571 142.303 210.774 142.303H322.346C333.55 142.303 342.632 151.385 342.632 162.589C342.632 173.792 333.55 182.874 322.346 182.874H210.774C199.571 182.874 190.488 173.792 190.488 162.589Z" fill="#F0FAFF"/>
<path d="M190.488 162.589C190.488 151.385 199.571 142.303 210.774 142.303H322.346C333.55 142.303 342.632 151.385 342.632 162.589C342.632 173.792 333.55 182.874 322.346 182.874H210.774C199.571 182.874 190.488 173.792 190.488 162.589Z" fill="url(#paint4_linear_2150_1493)" fill-opacity="0.2"/>
<path d="M210.774 143.303H322.347C332.998 143.303 341.632 151.938 341.632 162.589C341.632 173.24 332.998 181.874 322.347 181.874H210.774C200.123 181.874 191.488 173.24 191.488 162.589C191.488 151.938 200.123 143.303 210.774 143.303Z" stroke="white" stroke-width="2"/>
<g clip-path="url(#clip3_2150_1493)" filter="url(#filter6_i_2150_1493)">
<path d="M221.668 173.87V173.766C221.908 173.736 221.941 173.706 221.892 173.56C221.843 173.415 221.766 173.214 221.683 172.987H220.874C220.814 173.154 220.757 173.311 220.707 173.467C220.623 173.701 220.658 173.738 220.943 173.765V173.87H220.119V173.765C220.359 173.731 220.411 173.71 220.544 173.381L221.33 171.428L221.447 171.395C221.682 172.034 221.936 172.742 222.179 173.39C222.301 173.71 222.35 173.743 222.596 173.766V173.871H221.666H221.668V173.87ZM221.297 171.879H221.29C221.168 172.199 221.047 172.523 220.933 172.828H221.631L221.297 171.879H221.297Z" fill="#C0D0D7"/>
<path d="M225.885 172.016C225.817 171.777 225.718 171.52 225.388 171.52C225.096 171.52 224.967 171.728 224.967 171.93C224.967 172.202 225.149 172.328 225.45 172.481C225.746 172.63 226.106 172.805 226.106 173.222C226.106 173.613 225.769 173.925 225.264 173.925C225.109 173.925 224.987 173.895 224.892 173.87C224.797 173.837 224.741 173.811 224.706 173.792C224.675 173.713 224.626 173.393 224.604 173.215L224.714 173.189C224.774 173.416 224.944 173.792 225.336 173.792C225.62 173.792 225.791 173.617 225.791 173.345C225.791 173.074 225.582 172.94 225.297 172.791C225.054 172.664 224.67 172.478 224.67 172.058C224.67 171.7 224.962 171.395 225.451 171.395C225.626 171.395 225.785 171.436 225.929 171.48C225.945 171.614 225.964 171.759 225.994 171.993L225.884 172.015H225.885V172.016Z" fill="#C0D0D7"/>
<path d="M228.63 173.869C228.338 173.545 228.031 173.18 227.689 172.786C227.603 172.685 227.549 172.67 227.484 172.681V173.388C227.484 173.716 227.521 173.741 227.833 173.765V173.87H226.847V173.765C227.136 173.743 227.17 173.717 227.17 173.388V171.933C227.17 171.594 227.136 171.576 226.836 171.554V171.449H227.815V171.554C227.523 171.576 227.485 171.602 227.485 171.933V172.584C227.568 172.562 227.644 172.51 227.75 172.413C227.959 172.215 228.217 171.959 228.388 171.754C228.498 171.62 228.498 171.583 228.324 171.563L228.24 171.552V171.447H229.151V171.552C228.862 171.578 228.775 171.615 228.533 171.831C228.388 171.962 228.119 172.225 227.861 172.482C228.15 172.832 228.563 173.293 228.754 173.494C228.955 173.706 229.031 173.74 229.217 173.761V173.866H228.631L228.63 173.869Z" fill="#C0D0D7"/>
<path d="M232.019 171.554C231.758 171.584 231.716 171.621 231.567 171.847C231.397 172.119 231.267 172.335 231.084 172.662C231.036 172.759 231.024 172.801 231.024 172.897V173.402C231.024 173.715 231.055 173.741 231.404 173.763V173.868H230.329V173.763C230.667 173.741 230.702 173.719 230.702 173.402V172.907C230.702 172.833 230.686 172.8 230.622 172.688C230.489 172.457 230.352 172.215 230.144 171.869C229.993 171.616 229.951 171.576 229.723 171.552V171.447H230.629V171.552C230.359 171.585 230.368 171.631 230.439 171.753C230.598 172.051 230.785 172.356 230.948 172.635C231.088 172.39 231.293 172.025 231.4 171.798C231.487 171.612 231.476 171.584 231.181 171.553V171.448H232.02V171.553H232.019V171.554Z" fill="#C0D0D7"/>
<path d="M233.727 171.451C234.209 171.451 234.566 171.548 234.801 171.768C234.987 171.947 235.12 172.219 235.12 172.569C235.12 173.016 234.945 173.347 234.653 173.564C234.369 173.78 233.993 173.873 233.526 173.873H232.627V173.772C232.953 173.751 232.984 173.728 232.984 173.412V171.919C232.984 171.599 232.953 171.584 232.661 171.561V171.454H233.727V171.452V171.451ZM233.31 173.383C233.31 173.666 233.435 173.736 233.713 173.736C234.421 173.736 234.748 173.215 234.748 172.619C234.748 172.236 234.604 171.905 234.301 171.73C234.13 171.622 233.91 171.577 233.656 171.577C233.497 171.577 233.397 171.596 233.359 171.622C233.322 171.647 233.31 171.689 233.31 171.834V173.382L233.31 173.383Z" fill="#C0D0D7"/>
<path d="M237.205 173.87V173.766C237.445 173.736 237.478 173.706 237.429 173.56C237.38 173.415 237.303 173.214 237.22 172.987H236.411C236.351 173.154 236.294 173.311 236.245 173.467C236.161 173.701 236.196 173.738 236.48 173.765V173.87H235.656V173.765C235.896 173.731 235.948 173.71 236.081 173.381L236.867 171.428L236.984 171.395C237.219 172.034 237.473 172.742 237.716 173.39C237.838 173.71 237.887 173.743 238.133 173.766V173.871H237.203H237.205V173.87ZM236.833 171.879H236.826C236.704 172.199 236.583 172.523 236.469 172.828H237.168L236.834 171.879H236.833Z" fill="#C0D0D7"/>
<path d="M241.362 171.556C241.149 171.567 241.059 171.615 241.043 171.78C241.027 171.891 241.02 172.058 241.02 172.405V173.905H240.903L239.286 171.954H239.279V172.889C239.279 173.232 239.29 173.41 239.302 173.518C239.321 173.709 239.408 173.752 239.665 173.768V173.873H238.766V173.768C238.985 173.757 239.08 173.709 239.1 173.527C239.111 173.412 239.122 173.233 239.122 172.89V172.071C239.122 171.8 239.115 171.785 239.046 171.695C238.97 171.602 238.887 171.572 238.709 171.557V171.452H239.271L240.853 173.32H240.864V172.404C240.864 172.062 240.849 171.891 240.838 171.787C240.819 171.62 240.728 171.57 240.466 171.556V171.451H241.361V171.556H241.362Z" fill="#C0D0D7"/>
<path d="M244.471 173.256C244.417 173.427 244.323 173.703 244.254 173.826C244.147 173.852 243.829 173.926 243.556 173.926C242.612 173.926 242.197 173.287 242.197 172.694C242.197 171.912 242.813 171.395 243.659 171.395C243.966 171.395 244.224 171.476 244.33 171.495C244.361 171.707 244.383 171.856 244.406 172.058L244.292 172.084C244.195 171.69 243.966 171.529 243.556 171.529C242.923 171.529 242.584 172.054 242.584 172.619C242.584 173.316 243.001 173.793 243.579 173.793C243.966 173.793 244.171 173.587 244.361 173.216L244.471 173.257H244.472L244.471 173.256Z" fill="#C0D0D7"/>
<path d="M246.996 173.282C246.973 173.405 246.898 173.755 246.863 173.871H245.033V173.766C245.378 173.74 245.409 173.711 245.409 173.409V171.928C245.409 171.594 245.378 171.582 245.083 171.556V171.451H246.775C246.775 171.544 246.794 171.797 246.806 171.988L246.696 172.007C246.662 171.85 246.623 171.768 246.574 171.687C246.521 171.608 246.419 171.582 246.145 171.582H245.857C245.739 171.582 245.731 171.589 245.731 171.701V172.546H246.087C246.429 172.546 246.448 172.515 246.497 172.267H246.607V172.982H246.497C246.448 172.714 246.421 172.691 246.092 172.691H245.731V173.394C245.731 173.569 245.753 173.647 245.822 173.696C245.894 173.74 246.027 173.744 246.216 173.744C246.504 173.744 246.61 173.713 246.694 173.617C246.759 173.543 246.831 173.416 246.88 173.267L246.994 173.281H246.995L246.996 173.282Z" fill="#C0D0D7"/>
<path d="M251.293 173.256C251.24 173.427 251.145 173.703 251.076 173.826C250.97 173.852 250.651 173.926 250.378 173.926C249.434 173.926 249.02 173.287 249.02 172.694C249.02 171.912 249.635 171.395 250.481 171.395C250.789 171.395 251.047 171.476 251.152 171.495C251.183 171.707 251.206 171.856 251.228 172.058L251.115 172.084C251.017 171.69 250.789 171.529 250.379 171.529C249.745 171.529 249.407 172.054 249.407 172.619C249.407 173.316 249.824 173.793 250.401 173.793C250.789 173.793 250.993 173.587 251.183 173.216L251.293 173.257H251.294L251.293 173.256Z" fill="#C0D0D7"/>
<path d="M254.511 172.63C254.511 173.433 253.937 173.924 253.243 173.924C252.549 173.924 252.01 173.399 252.01 172.685C252.01 172.015 252.488 171.393 253.285 171.393C253.93 171.393 254.511 171.884 254.511 172.628V172.63ZM252.397 172.582C252.397 173.28 252.788 173.791 253.323 173.791C253.744 173.791 254.122 173.445 254.122 172.73C254.122 171.945 253.705 171.528 253.208 171.528C252.783 171.528 252.396 171.885 252.396 172.582H252.397Z" fill="#C0D0D7"/>
<path d="M257.555 173.901C257.509 173.901 257.468 173.901 257.422 173.896C257.138 173.882 256.979 173.799 256.807 173.557C256.674 173.375 256.537 173.144 256.424 172.962C256.359 172.857 256.295 172.813 256.098 172.813H255.976V173.405C255.976 173.722 256.01 173.744 256.314 173.765V173.87H255.316V173.765C255.628 173.744 255.662 173.721 255.662 173.405V171.909C255.662 171.592 255.631 171.581 255.336 171.556V171.451H256.277C256.554 171.451 256.74 171.484 256.884 171.578C257.035 171.675 257.134 171.843 257.134 172.065C257.134 172.385 256.933 172.583 256.651 172.702C256.716 172.825 256.875 173.074 256.989 173.241C257.126 173.434 257.205 173.532 257.296 173.628C257.398 173.74 257.486 173.781 257.569 173.803L257.553 173.9H257.554L257.555 173.901ZM256.159 172.691C256.352 172.691 256.478 172.66 256.572 172.586C256.72 172.474 256.781 172.326 256.781 172.124C256.781 171.721 256.511 171.573 256.224 171.573C256.114 171.573 256.049 171.587 256.018 171.61C255.992 171.629 255.976 171.674 255.976 171.774V172.69H256.158L256.159 172.691Z" fill="#C0D0D7"/>
<path d="M259.057 171.451C259.327 171.451 259.542 171.496 259.695 171.608C259.842 171.715 259.941 171.886 259.941 172.133C259.941 172.612 259.569 172.847 259.202 172.895C259.145 172.9 259.073 172.9 259.031 172.895L258.75 172.825V173.409C258.75 173.726 258.784 173.744 259.126 173.766V173.871H258.098V173.766C258.401 173.744 258.432 173.714 258.432 173.405V171.917C258.432 171.589 258.401 171.574 258.12 171.556V171.451H259.057ZM258.749 172.702C258.798 172.721 258.9 172.747 259.026 172.747C259.272 172.747 259.576 172.616 259.576 172.144C259.576 171.741 259.314 171.571 259.002 171.571C258.896 171.571 258.816 171.59 258.79 171.615C258.759 171.642 258.748 171.686 258.748 171.79V172.701L258.749 172.702Z" fill="#C0D0D7"/>
<path d="M263.169 172.63C263.169 173.433 262.595 173.924 261.901 173.924C261.207 173.924 260.668 173.399 260.668 172.685C260.668 172.015 261.146 171.393 261.943 171.393C262.588 171.393 263.169 171.884 263.169 172.628V172.63ZM261.055 172.582C261.055 173.28 261.446 173.791 261.981 173.791C262.402 173.791 262.781 173.445 262.781 172.73C262.781 171.945 262.364 171.528 261.866 171.528C261.442 171.528 261.054 171.885 261.054 172.582H261.055Z" fill="#C0D0D7"/>
<path d="M266.157 173.901C266.111 173.901 266.071 173.901 266.025 173.896C265.741 173.882 265.581 173.799 265.409 173.557C265.276 173.375 265.139 173.144 265.026 172.962C264.962 172.857 264.898 172.813 264.7 172.813H264.579V173.405C264.579 173.722 264.613 173.744 264.916 173.765V173.87H263.919V173.765C264.231 173.744 264.264 173.721 264.264 173.405V171.909C264.264 171.592 264.234 171.581 263.938 171.556V171.451H264.88C265.157 171.451 265.343 171.484 265.486 171.578C265.637 171.675 265.736 171.843 265.736 172.065C265.736 172.385 265.535 172.583 265.254 172.702C265.318 172.825 265.477 173.074 265.591 173.241C265.728 173.434 265.808 173.532 265.899 173.628C266.001 173.74 266.088 173.781 266.171 173.803L266.156 173.9H266.157L266.157 173.901ZM264.762 172.691C264.955 172.691 265.081 172.66 265.175 172.586C265.323 172.474 265.384 172.326 265.384 172.124C265.384 171.721 265.114 171.573 264.826 171.573C264.716 171.573 264.651 171.587 264.621 171.61C264.595 171.629 264.579 171.674 264.579 171.774V172.69H264.761L264.762 172.691Z" fill="#C0D0D7"/>
<path d="M268.152 173.87V173.766C268.392 173.736 268.425 173.706 268.376 173.56C268.327 173.415 268.25 173.214 268.167 172.987H267.359C267.298 173.154 267.242 173.311 267.192 173.467C267.108 173.701 267.143 173.738 267.427 173.765V173.87H266.604V173.765C266.843 173.731 266.895 173.71 267.028 173.381L267.814 171.428L267.931 171.395C268.166 172.034 268.421 172.742 268.664 173.39C268.785 173.71 268.834 173.743 269.081 173.766V173.871H268.151H268.152V173.87ZM267.78 171.879H267.773C267.652 172.199 267.53 172.523 267.416 172.828H268.115L267.781 171.879H267.78Z" fill="#C0D0D7"/>
<path d="M271.402 172.028C271.361 171.849 271.326 171.757 271.281 171.697C271.221 171.607 271.155 171.582 270.871 171.582H270.601V173.413C270.601 173.707 270.632 173.744 270.992 173.766V173.871H269.903V173.766C270.248 173.744 270.278 173.707 270.278 173.413V171.582H270.043C269.729 171.582 269.653 171.612 269.603 171.697C269.556 171.76 269.527 171.864 269.481 172.028H269.371C269.39 171.805 269.409 171.564 269.417 171.358H269.493C269.547 171.444 269.596 171.451 269.702 171.451H271.201C271.304 171.451 271.334 171.429 271.395 171.358H271.474C271.474 171.53 271.493 171.801 271.512 172.017L271.402 172.028H271.401H271.402Z" fill="#C0D0D7"/>
<path d="M272.248 173.871V173.766C272.56 173.744 272.59 173.722 272.59 173.405V171.917C272.59 171.6 272.559 171.578 272.248 171.556V171.451H273.253V171.556C272.943 171.578 272.911 171.601 272.911 171.917V173.405C272.911 173.725 272.942 173.744 273.253 173.766V173.871H272.248Z" fill="#C0D0D7"/>
<path d="M276.368 172.63C276.368 173.433 275.795 173.924 275.101 173.924C274.406 173.924 273.867 173.399 273.867 172.685C273.867 172.015 274.345 171.393 275.142 171.393C275.788 171.393 276.368 171.884 276.368 172.628V172.63ZM274.254 172.582C274.254 173.28 274.645 173.791 275.18 173.791C275.601 173.791 275.98 173.445 275.98 172.73C275.98 171.945 275.563 171.528 275.066 171.528C274.641 171.528 274.254 171.885 274.254 172.582H274.254Z" fill="#C0D0D7"/>
<path d="M279.73 171.556C279.518 171.567 279.427 171.615 279.411 171.78C279.396 171.891 279.388 172.058 279.388 172.405V173.905H279.271L277.655 171.954H277.648V172.889C277.648 173.232 277.659 173.41 277.671 173.518C277.69 173.709 277.777 173.752 278.034 173.768V173.873H277.135V173.768C277.354 173.757 277.45 173.709 277.469 173.527C277.48 173.412 277.492 173.233 277.492 172.89V172.071C277.492 171.8 277.485 171.785 277.416 171.695C277.339 171.602 277.256 171.572 277.078 171.557V171.452H277.64L279.222 173.32H279.234V172.404C279.234 172.062 279.218 171.891 279.207 171.787C279.188 171.62 279.097 171.57 278.835 171.556V171.451H279.73V171.556Z" fill="#C0D0D7"/>
<path d="M230.845 155.946C230.845 152.435 227.137 150.755 222.698 150.755C217.967 150.755 213.624 152.851 212.04 156.099C211.602 156.967 211.376 157.928 211.38 158.901C211.358 159.737 211.587 160.562 212.04 161.267C212.723 162.257 213.944 162.9 215.723 162.9C217.917 162.9 219.651 161.713 219.651 159.608C219.651 159.608 219.675 159.014 218.991 159.014C218.43 159.014 218.284 159.41 218.308 159.608C218.381 161.241 217.405 162.557 215.674 162.557C213.723 162.557 212.918 160.898 212.918 159.145C212.918 155.537 215.648 153.124 218.478 152.076C219.802 151.567 221.21 151.32 222.628 151.345C225.848 151.345 228.481 152.589 228.481 155.88C228.481 158.636 226.165 160.998 223.384 161.195L223.506 160.829C224.066 158.806 224.774 156.587 225.92 154.929C226.015 154.782 226.121 154.645 226.238 154.515L226.067 154.318C225.823 154.464 225.604 154.635 225.36 154.805C220.043 158.949 219.873 170.651 212.775 170.651C212.531 170.651 212.287 170.626 212.044 170.602C210.553 170.348 209.777 169.359 209.777 167.992C209.777 167.725 209.874 167.333 209.874 167.14C209.884 166.747 209.572 166.42 209.18 166.41H209.143C208.509 166.408 208.239 166.92 208.239 167.627C208.19 169.699 209.726 170.893 212.07 171.112C212.337 171.137 212.582 171.137 212.874 171.137C218.419 171.137 221.802 166.945 223.24 161.874C223.98 161.793 224.71 161.638 225.419 161.411C227.955 160.705 230.858 158.973 230.858 155.95" fill="#C0D0D7"/>
<path d="M283.601 157.164H281.65L281.211 158.187L280.455 159.916H279.552L279.284 160.51H280.235L279.087 163.02C278.283 164.802 277.013 166.531 276.283 166.531C276.112 166.531 276.015 166.458 276.015 166.312C276.015 166.166 276.064 165.995 276.235 165.556C276.454 165.02 276.845 164.241 277.112 163.68C277.527 162.851 278.162 161.558 278.162 160.925C278.162 160.291 277.748 159.779 276.974 159.779C276.071 159.779 275.267 160.316 274.511 161.095L274.999 159.925H273.168L271.682 163.337C271.071 164.524 269.851 166.529 269.095 166.529C268.925 166.529 268.876 166.432 268.876 166.262C268.893 166.118 268.935 165.978 268.998 165.847C269.072 165.701 269.949 163.605 269.949 163.605L271.583 159.899H269.603L268.018 163.507C267.531 164.63 266.288 166.529 265.505 166.529C265.379 166.55 265.261 166.465 265.24 166.339C265.239 166.329 265.237 166.318 265.237 166.308V166.234C265.278 165.953 265.368 165.681 265.504 165.431L266.334 163.601L268.041 159.895H266.061L265.665 160.748C265.372 161.308 264.885 161.991 264.105 161.991C263.739 161.991 263.545 161.844 263.471 161.699C263.349 160.455 262.568 159.773 261.398 159.773C259.764 159.773 258.625 160.724 257.861 161.895C257.352 162.699 256.959 163.569 256.69 164.48C255.983 165.626 255.25 166.529 254.667 166.529C254.52 166.529 254.423 166.455 254.423 166.262C254.475 165.983 254.565 165.713 254.69 165.458L255.983 162.729C256.349 161.876 256.593 161.344 256.593 160.779C256.593 160.213 256.179 159.789 255.52 159.789C254.593 159.789 253.593 160.325 252.789 161.202C252.809 161.065 252.817 160.927 252.814 160.788C252.814 160.129 252.496 159.798 251.823 159.798C250.97 159.798 250.093 160.31 249.31 161.212L249.823 159.945H248.04L246.527 163.357C245.82 164.965 244.65 166.549 244.014 166.549C243.867 166.549 243.77 166.476 243.77 166.282C243.77 165.964 244.111 165.209 244.234 164.897L246.234 160.362C246.38 160.021 245.429 159.802 244.21 159.802C242.991 159.802 241.673 160.412 240.746 161.215C240.086 161.775 239.6 162.045 239.361 162.045C239.238 162.045 239.19 161.971 239.19 161.898C239.19 161.63 239.85 160.849 239.85 160.239C239.85 159.971 239.703 159.776 239.338 159.776C238.631 159.776 237.778 160.458 237.16 161.16L237.672 159.917H235.917L234.404 163.329C233.697 164.937 232.5 166.621 231.843 166.621C231.697 166.621 231.6 166.547 231.6 166.353C231.6 166.036 231.917 165.304 232.112 164.914L234.112 160.379C234.259 160.038 233.308 159.819 232.088 159.819C230.284 159.819 228.524 161.037 227.601 162.28C226.577 163.621 225.87 165.052 225.87 166.239C225.846 167.189 226.333 167.775 227.311 167.775C228.407 167.775 229.29 166.922 229.774 166.262C229.749 166.385 229.725 166.53 229.7 166.658C229.7 167.318 229.968 167.781 230.75 167.781C231.457 167.781 232.384 167.187 233.117 166.268L232.507 167.653H234.411L236.288 163.412C236.898 162.027 237.605 161.316 237.801 161.316C237.875 161.316 237.898 161.34 237.898 161.389C237.898 161.536 237.605 161.926 237.605 162.292C237.605 162.658 237.803 162.925 238.313 162.925C238.77 162.892 239.209 162.732 239.58 162.462C238.629 163.754 237.971 165.121 237.971 166.241C237.946 167.191 238.434 167.776 239.411 167.776C240.389 167.776 241.391 166.801 241.924 166.144C241.903 166.297 241.896 166.452 241.9 166.607C241.9 167.24 242.266 167.776 242.997 167.776C243.801 167.776 244.46 167.264 245.264 166.29L244.654 167.656H246.613L248.395 163.608C249.176 161.853 250.225 160.903 250.762 160.903C250.895 160.888 251.014 160.983 251.029 161.116V161.171C251.009 161.367 250.951 161.558 250.858 161.731L248.298 167.655H250.298L252.128 163.534C252.909 161.753 253.762 160.902 254.422 160.902C254.619 160.902 254.689 160.999 254.689 161.219C254.67 161.447 254.613 161.67 254.519 161.879L252.752 165.565C252.584 165.926 252.485 166.315 252.46 166.711C252.46 167.271 252.777 167.783 253.647 167.783C254.793 167.783 255.647 166.931 256.618 165.639V165.906C256.691 166.929 257.278 167.831 258.796 167.831C260.578 167.831 262.016 166.588 262.894 164.639C263.222 163.947 263.436 163.207 263.527 162.446C263.722 162.548 263.942 162.59 264.161 162.569C264.459 162.569 264.753 162.493 265.014 162.349L264.697 163.009C264.331 163.765 263.941 164.593 263.647 165.275C263.449 165.687 263.333 166.135 263.306 166.591C263.306 167.298 263.702 167.778 264.494 167.778C265.286 167.778 266.372 167.022 267.154 165.975H267.178C267.13 166.192 267.105 166.412 267.105 166.635C267.105 167.229 267.275 167.78 268.095 167.78C269.046 167.78 269.778 167.098 270.485 166.244L269.875 167.61H271.855L273.439 164.047C274.342 162.024 275.222 160.828 276.05 160.828C276.189 160.82 276.309 160.925 276.317 161.063V161.121C276.317 161.462 275.829 162.388 275.39 163.314C274.976 164.167 274.683 164.8 274.464 165.313C274.265 165.733 274.15 166.189 274.123 166.653C274.123 167.263 274.464 167.749 275.22 167.749C276.366 167.749 277.513 166.653 278.124 165.824C277.978 166.222 277.904 166.642 277.904 167.067C277.904 168.212 278.587 168.773 279.538 168.773C280.178 168.759 280.8 168.553 281.32 168.179C282.076 167.667 282.661 166.887 283.173 166.157L282.832 165.84C282.41 166.476 281.892 167.043 281.296 167.521C281.017 167.755 280.669 167.894 280.305 167.917C279.891 167.917 279.645 167.698 279.645 167.187C279.645 166.676 279.889 165.968 280.255 165.01C280.28 164.985 280.816 163.791 281.305 162.644C281.72 161.669 282.158 160.718 282.232 160.522H283.525L283.792 159.928H282.525L283.604 157.151V157.16L283.601 157.164ZM228.194 166.525C227.927 166.525 227.731 166.428 227.731 166.062C227.755 165.112 228.535 163.404 229.535 162.041C230.242 161.091 231.144 160.408 232.121 160.408L230.878 163.164C229.951 165.236 228.951 166.529 228.194 166.529M240.34 166.528C240.106 166.561 239.889 166.4 239.856 166.166C239.851 166.133 239.851 166.098 239.854 166.065C239.879 165.114 240.659 163.407 241.659 162.044C242.366 161.093 243.268 160.411 244.245 160.411L243.001 163.166C242.075 165.288 241.124 166.531 240.341 166.531M261.925 161.166C261.876 162.215 260.95 164.774 259.852 166.283C259.412 166.893 259.048 167.087 258.706 167.087C258.243 167.087 258.111 166.721 258.194 166.161C258.291 165.211 259.097 162.969 260.194 161.433C260.706 160.726 261.047 160.443 261.437 160.443C261.828 160.443 261.925 160.76 261.925 161.174" fill="#C0D0D7"/>
<path d="M279.98 170.054H220.285V170.263H279.98V170.054Z" fill="#C0D0D7"/>
</g>
</g>
<g filter="url(#filter7_ddddi_2150_1493)">
<path d="M-130.705 162.589C-130.705 151.385 -121.623 142.303 -110.419 142.303H1.15301C12.3566 142.303 21.4389 151.385 21.4389 162.589C21.4389 173.792 12.3566 182.874 1.153 182.874H-110.419C-121.623 182.874 -130.705 173.792 -130.705 162.589Z" fill="#F0FAFF"/>
<path d="M-130.705 162.589C-130.705 151.385 -121.623 142.303 -110.419 142.303H1.15301C12.3566 142.303 21.4389 151.385 21.4389 162.589C21.4389 173.792 12.3566 182.874 1.153 182.874H-110.419C-121.623 182.874 -130.705 173.792 -130.705 162.589Z" fill="url(#paint5_linear_2150_1493)" fill-opacity="0.2"/>
<path d="M-110.419 143.303H1.15332C11.8045 143.303 20.4385 151.938 20.4385 162.589C20.4383 173.24 11.8044 181.874 1.15332 181.874H-110.419C-121.07 181.874 -129.705 173.24 -129.705 162.589C-129.705 151.938 -121.07 143.303 -110.419 143.303Z" stroke="white" stroke-width="2"/>
</g>
<g filter="url(#filter8_ddddi_2150_1493)">
<path d="M29.8906 162.589C29.8906 151.385 38.9729 142.303 50.1765 142.303H161.749C172.952 142.303 182.035 151.385 182.035 162.589C182.035 173.792 172.952 182.874 161.749 182.874H50.1765C38.9729 182.874 29.8906 173.792 29.8906 162.589Z" fill="#F0FAFF"/>
<path d="M29.8906 162.589C29.8906 151.385 38.9729 142.303 50.1765 142.303H161.749C172.952 142.303 182.035 151.385 182.035 162.589C182.035 173.792 172.952 182.874 161.749 182.874H50.1765C38.9729 182.874 29.8906 173.792 29.8906 162.589Z" fill="url(#paint6_linear_2150_1493)" fill-opacity="0.2"/>
<path d="M50.1768 143.303H161.749C172.4 143.303 181.034 151.938 181.034 162.589C181.034 173.24 172.4 181.874 161.749 181.874H50.1768C39.5256 181.874 30.8908 173.24 30.8906 162.589C30.8906 151.938 39.5255 143.303 50.1768 143.303Z" stroke="white" stroke-width="2"/>
<g clip-path="url(#clip4_2150_1493)" filter="url(#filter9_i_2150_1493)">
<path d="M52.6505 153.291C47.083 153.291 42.5684 157.833 42.5684 163.434C42.5684 169.035 47.083 173.577 52.6505 173.577C58.218 173.577 62.7327 169.035 62.7327 163.434C62.7327 157.833 58.2205 153.291 52.6505 153.291ZM59.3035 168.321L52.6505 163.459L45.9976 168.321L49.1586 158.552L50.7905 159.744L49.6399 163.308L52.653 161.106L55.6661 163.308L54.5156 159.744L56.15 158.549L59.306 168.321H59.3035Z" fill="#C0D0D7"/>
<path d="M73.1537 166.939L70.3984 158.93H71.9003L73.786 164.826L75.7283 158.907H76.9026L78.8449 164.826L80.7306 158.93H82.1873L79.432 166.939H78.2351L76.2929 161.225L74.3506 166.939H73.1537ZM84.1561 166.882L87.6341 158.873H88.9214L92.3993 166.882H90.9314L90.1296 164.962H86.392L85.5789 166.882H84.1561ZM86.9001 163.724H89.6215L88.2551 160.543L86.9001 163.724ZM98.6248 166.996C97.4166 166.996 96.2761 166.575 95.3276 165.723L96.1632 164.724C96.9198 165.383 97.6763 165.757 98.6587 165.757C99.5169 165.757 100.059 165.36 100.059 164.758V164.735C100.059 164.167 99.7428 163.86 98.2748 163.519C96.5923 163.111 95.6438 162.611 95.6438 161.145V161.123C95.6438 159.759 96.773 158.816 98.3425 158.816C99.4943 158.816 100.409 159.169 101.211 159.816L100.465 160.873C99.7541 160.339 99.0427 160.055 98.32 160.055C97.5069 160.055 97.0327 160.475 97.0327 160.998V161.02C97.0327 161.634 97.394 161.906 98.9072 162.27C100.578 162.679 101.448 163.281 101.448 164.599V164.621C101.448 166.11 100.285 166.996 98.6248 166.996ZM107.973 166.996C106.765 166.996 105.625 166.575 104.676 165.723L105.512 164.724C106.268 165.383 107.025 165.757 108.007 165.757C108.866 165.757 109.408 165.36 109.408 164.758V164.735C109.408 164.167 109.091 163.86 107.623 163.519C105.941 163.111 104.992 162.611 104.992 161.145V161.123C104.992 159.759 106.122 158.816 107.691 158.816C108.843 158.816 109.758 159.169 110.559 159.816L109.814 160.873C109.103 160.339 108.391 160.055 107.669 160.055C106.856 160.055 106.381 160.475 106.381 160.998V161.02C106.381 161.634 106.743 161.906 108.256 162.27C109.927 162.679 110.796 163.281 110.796 164.599V164.621C110.796 166.11 109.633 166.996 107.973 166.996ZM114.666 166.882V158.93H120.526V160.18H116.054V162.247H120.018V163.497H116.054V165.632H120.583V166.882H114.666ZM124.466 166.882V158.93H127.989C128.983 158.93 129.762 159.225 130.27 159.725C130.688 160.157 130.925 160.748 130.925 161.441V161.463C130.925 162.77 130.146 163.554 129.039 163.872L131.174 166.882H129.536L127.594 164.11H125.855V166.882H124.466ZM125.855 162.872H127.888C128.881 162.872 129.514 162.349 129.514 161.543V161.52C129.514 160.668 128.904 160.202 127.876 160.202H125.855V162.872ZM134.862 166.882V158.93H136.341L138.747 162.69L141.152 158.93H142.631V166.882H141.242V161.179L138.747 164.928H138.701L136.228 161.202V166.882H134.862ZM146.224 166.882L149.702 158.873H150.989L154.467 166.882H152.999L152.197 164.962H148.46L147.647 166.882H146.224ZM148.968 163.724H151.689L150.323 160.543L148.968 163.724ZM158.058 166.882V158.93H159.346L163.58 164.428V158.93H164.946V166.882H163.783L159.425 161.225V166.882H158.058Z" fill="#C0D0D7"/>
</g>
</g>
<g filter="url(#filter10_ddddi_2150_1493)">
<path d="M265.999 212.87C265.999 201.666 275.081 192.584 286.285 192.584H397.857C409.061 192.584 418.143 201.666 418.143 212.87C418.143 224.073 409.061 233.156 397.857 233.156H286.285C275.081 233.156 265.999 224.073 265.999 212.87Z" fill="#F0FAFF"/>
<path d="M265.999 212.87C265.999 201.666 275.081 192.584 286.285 192.584H397.857C409.061 192.584 418.143 201.666 418.143 212.87C418.143 224.073 409.061 233.156 397.857 233.156H286.285C275.081 233.156 265.999 224.073 265.999 212.87Z" fill="url(#paint7_linear_2150_1493)" fill-opacity="0.2"/>
<path d="M286.285 193.584H397.857C408.509 193.584 417.143 202.219 417.143 212.87C417.142 223.521 408.508 232.155 397.857 232.155H286.285C275.634 232.155 266.999 223.521 266.999 212.87C266.999 202.219 275.634 193.584 286.285 193.584Z" stroke="white" stroke-width="2"/>
</g>
<g filter="url(#filter11_ddddi_2150_1493)">
<path d="M-55 212.584C-55 201.538 -46.0457 192.584 -35 192.584H77.14C88.1857 192.584 97.14 201.538 97.14 212.584C97.14 223.63 88.1857 232.584 77.14 232.584H-35C-46.0457 232.584 -55 223.63 -55 212.584Z" fill="#F0FAFF"/>
<path d="M-55 212.584C-55 201.538 -46.0457 192.584 -35 192.584H77.14C88.1857 192.584 97.14 201.538 97.14 212.584C97.14 223.63 88.1857 232.584 77.14 232.584H-35C-46.0457 232.584 -55 223.63 -55 212.584Z" fill="url(#paint8_linear_2150_1493)" fill-opacity="0.2"/>
<path d="M-35 193.584H77.1396C87.6331 193.584 96.1396 202.091 96.1396 212.584C96.1396 223.077 87.6331 231.584 77.1396 231.584H-35C-45.4934 231.584 -54 223.077 -54 212.584C-54 202.254 -45.7571 193.85 -35.4902 193.59L-35 193.584Z" stroke="white" stroke-width="2"/>
<g clip-path="url(#clip5_2150_1493)" filter="url(#filter12_i_2150_1493)">
<path d="M21.4257 206.584H18.9141V218.896H21.4257V206.584Z" fill="#C0D0D7"/>
<path d="M-3 206.608H-0.340608V212.124L4.63344 206.608H7.85918L3.30374 211.656L8.15467 218.896H4.97818L1.43232 213.7L-0.340608 215.645V218.896H-3V206.608Z" fill="#C0D0D7"/>
<path d="M17.9536 218.773H16.6978C15.5651 218.773 14.9987 218.281 15.0233 217.296C14.6786 217.813 14.2846 218.207 13.7921 218.478C13.2997 218.749 12.7333 218.896 12.0192 218.896C11.0096 218.896 10.1724 218.675 9.55681 218.207C8.94121 217.739 8.62109 217.074 8.62109 216.237C8.62109 215.277 8.99045 214.538 9.67993 214.021C10.394 213.504 11.4529 213.233 12.8072 213.233H14.6293V212.79C14.6293 212.371 14.4816 212.051 14.1615 211.829C13.8414 211.583 13.4474 211.46 12.9057 211.46C12.4378 211.46 12.0685 211.558 11.773 211.755C11.4775 211.952 11.3051 212.223 11.2559 212.568H8.81809C8.89196 211.657 9.31057 210.943 10.0739 210.426C10.8126 209.909 11.7976 209.638 13.0534 209.638C14.3339 209.638 15.3434 209.909 16.0329 210.475C16.747 211.041 17.0917 211.854 17.0917 212.913V216.089C17.0917 216.311 17.141 216.459 17.2395 216.557C17.338 216.631 17.4857 216.68 17.6827 216.68H17.9536V218.773ZM12.7825 214.858C12.2654 214.858 11.8468 214.956 11.5513 215.178C11.2805 215.375 11.1327 215.671 11.1327 216.04C11.1327 216.36 11.2559 216.606 11.5021 216.803C11.7483 217 12.0685 217.074 12.4871 217.074C13.1519 217.074 13.6444 216.902 14.0384 216.532C14.4077 216.163 14.6047 215.671 14.6293 215.03V214.858H12.7825Z" fill="#C0D0D7"/>
<path d="M24.7506 215.769C24.7999 216.163 24.9722 216.483 25.3416 216.729C25.711 216.975 26.1542 217.098 26.6959 217.098C27.213 217.098 27.6563 217.025 27.9517 216.852C28.2719 216.68 28.4196 216.434 28.4196 216.113C28.4196 215.892 28.3457 215.695 28.198 215.596C28.0502 215.473 27.8532 215.399 27.5824 215.35C27.3361 215.276 26.8929 215.227 26.3019 215.153C25.4893 215.055 24.8245 214.907 24.3074 214.735C23.7903 214.562 23.3471 214.316 23.0269 213.947C22.7068 213.577 22.5591 213.134 22.5591 212.543C22.5591 211.952 22.7068 211.435 23.0269 210.992C23.3717 210.524 23.8149 210.179 24.4059 209.933C24.9969 209.687 25.6863 209.563 26.4497 209.563C27.7055 209.588 28.6905 209.834 29.4538 210.351C30.2172 210.869 30.6358 211.583 30.7096 212.494H28.3211C28.2719 212.149 28.0995 211.878 27.7794 211.657C27.4593 211.435 27.0407 211.336 26.5236 211.336C26.0557 211.336 25.6617 211.435 25.3662 211.607C25.0954 211.78 24.9476 212.026 24.9476 212.321C24.9476 212.543 25.0215 212.691 25.1692 212.789C25.317 212.888 25.5386 212.962 25.7848 213.011C26.0311 213.06 26.4497 213.109 27.0407 213.159C28.2719 213.306 29.2076 213.577 29.8478 213.947C30.5126 214.316 30.8327 214.981 30.8327 215.892C30.8327 216.483 30.6604 217 30.3156 217.443C29.9709 217.886 29.5031 218.231 28.8628 218.477C28.2472 218.699 27.5331 218.847 26.7205 218.847C25.4647 218.847 24.4305 218.576 23.6425 218.01C22.8546 217.443 22.436 216.68 22.3867 215.719H24.7506V215.769Z" fill="#C0D0D7"/>
<path d="M39.6726 210.721C38.9832 210.081 38.0967 209.736 37.0133 209.736C35.9052 209.736 34.9941 210.154 34.3046 210.967V206.584H31.793V218.896H34.3046V214.267C34.3046 213.479 34.477 212.888 34.8217 212.444C35.1911 212.001 35.6836 211.804 36.3238 211.804C36.9394 211.804 37.4072 212.001 37.7027 212.395C38.0228 212.789 38.1706 213.331 38.1706 214.094V218.896H40.6822V213.996C40.7315 212.469 40.3867 211.386 39.6726 210.721Z" fill="#C0D0D7"/>
<path d="M41.6914 209.836H44.2031V218.873H41.6914V209.836Z" fill="#C0D0D7"/>
<path d="M43.8095 206.953C43.5879 206.707 43.2924 206.584 42.923 206.584C42.5783 206.584 42.2582 206.707 42.0119 206.953C41.7903 207.175 41.6426 207.47 41.6426 207.815C41.6426 208.16 41.7657 208.455 42.0119 208.677C42.2582 208.899 42.5537 209.046 42.923 209.046C43.2678 209.046 43.5879 208.923 43.8095 208.677C44.0311 208.431 44.1789 208.16 44.1789 207.815C44.1789 207.47 44.0557 207.15 43.8095 206.953Z" fill="#C0D0D7"/>
</g>
</g>
<g filter="url(#filter13_ddddi_2150_1493)">
<path d="M106 212.87C106 201.666 115.082 192.584 126.286 192.584H237.858C249.062 192.584 258.144 201.666 258.144 212.87C258.144 224.073 249.062 233.156 237.858 233.156H126.286C115.082 233.156 106 224.073 106 212.87Z" fill="#F0FAFF"/>
<path d="M106 212.87C106 201.666 115.082 192.584 126.286 192.584H237.858C249.062 192.584 258.144 201.666 258.144 212.87C258.144 224.073 249.062 233.156 237.858 233.156H126.286C115.082 233.156 106 224.073 106 212.87Z" fill="url(#paint9_linear_2150_1493)" fill-opacity="0.2"/>
<path d="M126.286 193.584H237.858C248.51 193.584 257.144 202.219 257.144 212.87C257.143 223.521 248.509 232.155 237.858 232.155H126.286C115.635 232.155 107 223.521 107 212.87C107 202.219 115.635 193.584 126.286 193.584Z" stroke="white" stroke-width="2"/>
<g clip-path="url(#clip6_2150_1493)" filter="url(#filter14_i_2150_1493)">
<path d="M183.46 215.276C182.695 214.704 181.586 214.361 179.979 214.094C177.991 213.751 176.92 213.408 176.92 212.455C176.92 211.731 177.608 210.931 179.521 210.931C180.477 210.931 181.203 211.236 181.662 211.807C181.892 212.074 182.083 212.417 182.198 212.836C182.236 212.989 182.389 213.103 182.542 213.103H184.263C184.378 213.103 184.492 213.065 184.531 212.989C184.607 212.913 184.645 212.798 184.607 212.684C184.301 210.969 183.269 210.054 182.963 209.787C182.083 209.063 180.897 208.72 179.482 208.72C177.991 208.72 176.729 209.063 175.811 209.749C174.855 210.435 174.357 211.388 174.357 212.493C174.357 215.124 176.805 215.924 179.444 216.343C181.93 216.724 182.274 217.372 182.274 218.02C182.274 219.012 181.203 219.621 179.482 219.621C179.176 219.621 178.909 219.583 178.641 219.545C178.641 219.545 178.641 219.545 178.603 219.545C177.455 219.316 176.69 218.63 176.27 217.372C176.231 217.22 176.078 217.144 175.925 217.144H174.09C173.975 217.144 173.86 217.182 173.822 217.258C173.745 217.334 173.707 217.449 173.745 217.563C173.86 218.249 174.204 218.859 174.204 218.859C175.008 220.536 176.499 221.565 178.564 221.756C178.87 221.794 179.138 221.794 179.444 221.794C180.936 221.794 182.312 221.413 183.269 220.727C184.225 220.041 184.76 219.05 184.76 217.944C184.837 216.801 184.378 215.924 183.46 215.276Z" fill="#C0D0D7"/>
<path d="M159.098 208.834H156.88C156.765 208.834 156.65 208.948 156.65 209.063V221.565C156.65 221.68 156.765 221.794 156.88 221.794H159.06C159.175 221.794 159.289 221.68 159.289 221.565V209.063C159.328 208.948 159.213 208.834 159.098 208.834Z" fill="#C0D0D7"/>
<path d="M221.778 218.172C221.664 218.057 221.549 217.981 221.358 217.981H219.637C219.407 217.981 219.216 218.096 219.14 218.324C218.872 219.01 218.222 219.392 217.266 219.392C215.927 219.392 215.239 218.667 215.239 217.371V211.311C215.239 211.272 215.277 211.234 215.315 211.234H220.478C220.746 211.234 220.975 211.006 220.975 210.739V209.405C220.975 209.138 220.746 208.909 220.478 208.909H215.315C215.277 208.909 215.239 208.871 215.239 208.833V205.974C215.239 205.707 215.009 205.479 214.741 205.479H213.097C212.829 205.479 212.6 205.707 212.6 205.974V217.448C212.6 220.116 214.435 221.869 217.266 221.869H217.304C217.304 221.869 217.304 221.869 217.342 221.869C219.713 221.869 221.434 220.649 221.893 218.629C221.931 218.477 221.893 218.324 221.778 218.172Z" fill="#C0D0D7"/>
<path d="M209.811 210.398C208.778 209.369 207.363 208.759 205.872 208.721C204.342 208.682 202.927 209.254 201.856 210.321C200.747 211.389 200.135 212.837 200.135 214.362C200.135 214.362 200.135 214.858 200.135 215.62V221.528C200.135 221.642 200.249 221.757 200.364 221.757H202.544C202.659 221.757 202.774 221.642 202.774 221.528V214.286C202.774 213.485 203.08 212.761 203.692 212.189C204.265 211.617 205.03 211.351 205.872 211.351C207.44 211.389 208.816 212.685 208.816 214.171V214.286C208.816 214.362 208.855 214.4 208.893 214.438C208.931 214.476 209.008 214.514 209.046 214.514C209.543 214.514 210.729 214.514 211.226 214.514C211.341 214.514 211.455 214.4 211.455 214.286C211.455 212.837 210.882 211.465 209.811 210.398Z" fill="#C0D0D7"/>
<path d="M172.444 217.184H170.494C170.417 217.184 170.341 217.222 170.264 217.298C170.226 217.336 170.226 217.336 170.226 217.374C169.691 218.708 168.582 219.509 167.128 219.509C166.057 219.509 165.101 219.09 164.413 218.327C163.725 217.565 163.342 216.498 163.342 215.354C163.342 214.172 163.725 213.105 164.413 212.343C165.101 211.58 166.057 211.161 167.128 211.161C168.582 211.161 169.729 211.962 170.264 213.296C170.303 213.41 170.417 213.486 170.532 213.486H172.483C172.559 213.486 172.636 213.448 172.712 213.372C172.75 213.296 172.789 213.258 172.75 213.181C172.75 212.991 172.712 212.8 172.636 212.61C172.636 212.572 172.597 212.533 172.597 212.533C172.33 211.657 171.756 210.971 171.718 210.932C170.647 209.56 169.002 208.798 167.09 208.798C165.254 208.798 163.61 209.484 162.424 210.742C161.315 211.962 160.703 213.601 160.703 215.354C160.703 217.108 161.315 218.747 162.424 219.928C163.61 221.224 165.216 221.91 167.09 221.91C167.893 221.91 168.62 221.796 169.27 221.567C170.762 220.957 171.985 219.966 172.597 218.099C172.636 217.908 172.674 217.717 172.712 217.527C172.712 217.451 172.712 217.374 172.674 217.336C172.597 217.222 172.521 217.184 172.444 217.184Z" fill="#C0D0D7"/>
<path d="M157.989 203.571C156.918 203.571 156 204.448 156 205.515C156 206.583 156.88 207.459 157.989 207.459C159.06 207.459 159.939 206.583 159.939 205.515C159.939 204.448 159.06 203.571 157.989 203.571Z" fill="#C0D0D7"/>
<path d="M148.808 203.571C147.126 203.571 145.519 204.219 144.295 205.401C144.181 205.515 143.989 205.782 143.989 205.782C143.913 205.858 143.836 205.935 143.76 206.011L143.722 206.049C142.88 207.116 142.383 208.45 142.307 209.861V221.563C142.307 221.601 142.307 221.639 142.345 221.677C142.383 221.753 142.46 221.792 142.536 221.792H144.716C144.831 221.792 144.946 221.677 144.946 221.563V215.617C144.946 215.578 144.984 215.54 144.984 215.54C145.022 215.54 145.022 215.54 145.06 215.54C146.131 216.303 147.393 216.684 148.732 216.684C149.726 216.684 150.682 216.455 151.524 216.036C153.704 214.969 155.195 212.72 155.195 210.128C155.272 206.506 152.365 203.571 148.808 203.571ZM148.808 214.206C146.628 214.206 144.869 212.377 144.869 210.166C144.869 207.917 146.628 206.125 148.808 206.125C150.988 206.125 152.748 207.955 152.748 210.166C152.709 212.377 150.95 214.206 148.808 214.206Z" fill="#C0D0D7"/>
<path d="M198.642 215.238C198.604 211.655 195.735 208.758 192.178 208.758C188.621 208.758 185.715 211.693 185.715 215.314C185.715 218.211 187.589 220.689 190.151 221.565H190.19C190.228 221.565 190.266 221.604 190.266 221.604C190.84 221.794 191.452 221.87 192.14 221.87C193.746 221.87 195.276 221.26 196.079 220.346C196.118 220.308 196.194 220.346 196.194 220.384C196.194 220.841 196.194 221.375 196.194 221.489V221.565C196.194 221.68 196.309 221.794 196.424 221.794H198.374C198.489 221.794 198.604 221.68 198.604 221.565L198.642 215.238ZM192.178 219.355C189.998 219.355 188.201 217.525 188.201 215.314C188.201 213.103 189.998 211.274 192.178 211.274C194.358 211.274 196.156 213.103 196.156 215.314C196.156 217.525 194.358 219.355 192.178 219.355Z" fill="#C0D0D7"/>
</g>
</g>
</g>
</g>
</g>
<defs>
<filter id="filter0_ddddi_2150_1493" x="-51.4902" y="86.4336" width="221.145" height="126.571" filterUnits="userSpaceOnUse" color-interpolation-filters="sRGB">
<feFlood flood-opacity="0" result="BackgroundImageFix"/>
<feColorMatrix in="SourceAlpha" type="matrix" values="0 0 0 0 0 0 0 0 0 0 0 0 0 0 0 0 0 0 127 0" result="hardAlpha"/>
<feOffset dx="2" dy="3"/>
<feGaussianBlur stdDeviation="4.5"/>
<feColorMatrix type="matrix" values="0 0 0 0 0.00392157 0 0 0 0 0.254902 0 0 0 0 0.388235 0 0 0 0.1 0"/>
<feBlend mode="normal" in2="BackgroundImageFix" result="effect1_dropShadow_2150_1493"/>
<feColorMatrix in="SourceAlpha" type="matrix" values="0 0 0 0 0 0 0 0 0 0 0 0 0 0 0 0 0 0 127 0" result="hardAlpha"/>
<feOffset dx="9" dy="13"/>
<feGaussianBlur stdDeviation="8"/>
<feColorMatrix type="matrix" values="0 0 0 0 0.00392157 0 0 0 0 0.254902 0 0 0 0 0.388235 0 0 0 0.09 0"/>
<feBlend mode="normal" in2="effect1_dropShadow_2150_1493" result="effect2_dropShadow_2150_1493"/>
<feColorMatrix in="SourceAlpha" type="matrix" values="0 0 0 0 0 0 0 0 0 0 0 0 0 0 0 0 0 0 127 0" result="hardAlpha"/>
<feOffset dx="20" dy="30"/>
<feGaussianBlur stdDeviation="11"/>
<feColorMatrix type="matrix" values="0 0 0 0 0.00392157 0 0 0 0 0.254902 0 0 0 0 0.388235 0 0 0 0.05 0"/>
<feBlend mode="normal" in2="effect2_dropShadow_2150_1493" result="effect3_dropShadow_2150_1493"/>
<feColorMatrix in="SourceAlpha" type="matrix" values="0 0 0 0 0 0 0 0 0 0 0 0 0 0 0 0 0 0 127 0" result="hardAlpha"/>
<feOffset dx="36" dy="54"/>
<feGaussianBlur stdDeviation="13"/>
<feColorMatrix type="matrix" values="0 0 0 0 0.00392157 0 0 0 0 0.254902 0 0 0 0 0.388235 0 0 0 0.01 0"/>
<feBlend mode="normal" in2="effect3_dropShadow_2150_1493" result="effect4_dropShadow_2150_1493"/>
<feBlend mode="normal" in="SourceGraphic" in2="effect4_dropShadow_2150_1493" result="shape"/>
<feColorMatrix in="SourceAlpha" type="matrix" values="0 0 0 0 0 0 0 0 0 0 0 0 0 0 0 0 0 0 127 0" result="hardAlpha"/>
<feMorphology radius="3" operator="dilate" in="SourceAlpha" result="effect5_innerShadow_2150_1493"/>
<feOffset dx="4" dy="4"/>
<feGaussianBlur stdDeviation="4"/>
<feComposite in2="hardAlpha" operator="arithmetic" k2="-1" k3="1"/>
<feColorMatrix type="matrix" values="0 0 0 0 0 0 0 0 0 0 0 0 0 0 0 0 0 0 0.25 0"/>
<feBlend mode="normal" in2="shape" result="effect5_innerShadow_2150_1493"/>
</filter>
<filter id="filter1_i_2150_1493" x="-14.9062" y="101.73" width="93.1836" height="22.5537" filterUnits="userSpaceOnUse" color-interpolation-filters="sRGB">
<feFlood flood-opacity="0" result="BackgroundImageFix"/>
<feBlend mode="normal" in="SourceGraphic" in2="BackgroundImageFix" result="shape"/>
<feColorMatrix in="SourceAlpha" type="matrix" values="0 0 0 0 0 0 0 0 0 0 0 0 0 0 0 0 0 0 127 0" result="hardAlpha"/>
<feOffset dy="0.6"/>
<feGaussianBlur stdDeviation="0.25"/>
<feComposite in2="hardAlpha" operator="arithmetic" k2="-1" k3="1"/>
<feColorMatrix type="matrix" values="0 0 0 0 0.00392157 0 0 0 0 0.254902 0 0 0 0 0.388235 0 0 0 0.5 0"/>
<feBlend mode="normal" in2="shape" result="effect1_innerShadow_2150_1493"/>
</filter>
<filter id="filter2_ddddi_2150_1493" x="109" y="86.584" width="221.144" height="126.571" filterUnits="userSpaceOnUse" color-interpolation-filters="sRGB">
<feFlood flood-opacity="0" result="BackgroundImageFix"/>
<feColorMatrix in="SourceAlpha" type="matrix" values="0 0 0 0 0 0 0 0 0 0 0 0 0 0 0 0 0 0 127 0" result="hardAlpha"/>
<feOffset dx="2" dy="3"/>
<feGaussianBlur stdDeviation="4.5"/>
<feColorMatrix type="matrix" values="0 0 0 0 0.00392157 0 0 0 0 0.254902 0 0 0 0 0.388235 0 0 0 0.1 0"/>
<feBlend mode="normal" in2="BackgroundImageFix" result="effect1_dropShadow_2150_1493"/>
<feColorMatrix in="SourceAlpha" type="matrix" values="0 0 0 0 0 0 0 0 0 0 0 0 0 0 0 0 0 0 127 0" result="hardAlpha"/>
<feOffset dx="9" dy="13"/>
<feGaussianBlur stdDeviation="8"/>
<feColorMatrix type="matrix" values="0 0 0 0 0.00392157 0 0 0 0 0.254902 0 0 0 0 0.388235 0 0 0 0.09 0"/>
<feBlend mode="normal" in2="effect1_dropShadow_2150_1493" result="effect2_dropShadow_2150_1493"/>
<feColorMatrix in="SourceAlpha" type="matrix" values="0 0 0 0 0 0 0 0 0 0 0 0 0 0 0 0 0 0 127 0" result="hardAlpha"/>
<feOffset dx="20" dy="30"/>
<feGaussianBlur stdDeviation="11"/>
<feColorMatrix type="matrix" values="0 0 0 0 0.00392157 0 0 0 0 0.254902 0 0 0 0 0.388235 0 0 0 0.05 0"/>
<feBlend mode="normal" in2="effect2_dropShadow_2150_1493" result="effect3_dropShadow_2150_1493"/>
<feColorMatrix in="SourceAlpha" type="matrix" values="0 0 0 0 0 0 0 0 0 0 0 0 0 0 0 0 0 0 127 0" result="hardAlpha"/>
<feOffset dx="36" dy="54"/>
<feGaussianBlur stdDeviation="13"/>
<feColorMatrix type="matrix" values="0 0 0 0 0.00392157 0 0 0 0 0.254902 0 0 0 0 0.388235 0 0 0 0.01 0"/>
<feBlend mode="normal" in2="effect3_dropShadow_2150_1493" result="effect4_dropShadow_2150_1493"/>
<feBlend mode="normal" in="SourceGraphic" in2="effect4_dropShadow_2150_1493" result="shape"/>
<feColorMatrix in="SourceAlpha" type="matrix" values="0 0 0 0 0 0 0 0 0 0 0 0 0 0 0 0 0 0 127 0" result="hardAlpha"/>
<feMorphology radius="3" operator="dilate" in="SourceAlpha" result="effect5_innerShadow_2150_1493"/>
<feOffset dx="4" dy="4"/>
<feGaussianBlur stdDeviation="4"/>
<feComposite in2="hardAlpha" operator="arithmetic" k2="-1" k3="1"/>
<feColorMatrix type="matrix" values="0 0 0 0 0 0 0 0 0 0 0 0 0 0 0 0 0 0 0.25 0"/>
<feBlend mode="normal" in2="shape" result="effect5_innerShadow_2150_1493"/>
</filter>
<filter id="filter3_i_2150_1493" x="142.203" y="103.572" width="99.4434" height="19.6562" filterUnits="userSpaceOnUse" color-interpolation-filters="sRGB">
<feFlood flood-opacity="0" result="BackgroundImageFix"/>
<feBlend mode="normal" in="SourceGraphic" in2="BackgroundImageFix" result="shape"/>
<feColorMatrix in="SourceAlpha" type="matrix" values="0 0 0 0 0 0 0 0 0 0 0 0 0 0 0 0 0 0 127 0" result="hardAlpha"/>
<feOffset dy="0.6"/>
<feGaussianBlur stdDeviation="0.25"/>
<feComposite in2="hardAlpha" operator="arithmetic" k2="-1" k3="1"/>
<feColorMatrix type="matrix" values="0 0 0 0 0.00392157 0 0 0 0 0.254902 0 0 0 0 0.388235 0 0 0 0.5 0"/>
<feBlend mode="normal" in2="shape" result="effect1_innerShadow_2150_1493"/>
</filter>
<filter id="filter4_ddddi_2150_1493" x="269.106" y="86.4336" width="221.144" height="126.571" filterUnits="userSpaceOnUse" color-interpolation-filters="sRGB">
<feFlood flood-opacity="0" result="BackgroundImageFix"/>
<feColorMatrix in="SourceAlpha" type="matrix" values="0 0 0 0 0 0 0 0 0 0 0 0 0 0 0 0 0 0 127 0" result="hardAlpha"/>
<feOffset dx="2" dy="3"/>
<feGaussianBlur stdDeviation="4.5"/>
<feColorMatrix type="matrix" values="0 0 0 0 0.00392157 0 0 0 0 0.254902 0 0 0 0 0.388235 0 0 0 0.1 0"/>
<feBlend mode="normal" in2="BackgroundImageFix" result="effect1_dropShadow_2150_1493"/>
<feColorMatrix in="SourceAlpha" type="matrix" values="0 0 0 0 0 0 0 0 0 0 0 0 0 0 0 0 0 0 127 0" result="hardAlpha"/>
<feOffset dx="9" dy="13"/>
<feGaussianBlur stdDeviation="8"/>
<feColorMatrix type="matrix" values="0 0 0 0 0.00392157 0 0 0 0 0.254902 0 0 0 0 0.388235 0 0 0 0.09 0"/>
<feBlend mode="normal" in2="effect1_dropShadow_2150_1493" result="effect2_dropShadow_2150_1493"/>
<feColorMatrix in="SourceAlpha" type="matrix" values="0 0 0 0 0 0 0 0 0 0 0 0 0 0 0 0 0 0 127 0" result="hardAlpha"/>
<feOffset dx="20" dy="30"/>
<feGaussianBlur stdDeviation="11"/>
<feColorMatrix type="matrix" values="0 0 0 0 0.00392157 0 0 0 0 0.254902 0 0 0 0 0.388235 0 0 0 0.05 0"/>
<feBlend mode="normal" in2="effect2_dropShadow_2150_1493" result="effect3_dropShadow_2150_1493"/>
<feColorMatrix in="SourceAlpha" type="matrix" values="0 0 0 0 0 0 0 0 0 0 0 0 0 0 0 0 0 0 127 0" result="hardAlpha"/>
<feOffset dx="36" dy="54"/>
<feGaussianBlur stdDeviation="13"/>
<feColorMatrix type="matrix" values="0 0 0 0 0.00392157 0 0 0 0 0.254902 0 0 0 0 0.388235 0 0 0 0.01 0"/>
<feBlend mode="normal" in2="effect3_dropShadow_2150_1493" result="effect4_dropShadow_2150_1493"/>
<feBlend mode="normal" in="SourceGraphic" in2="effect4_dropShadow_2150_1493" result="shape"/>
<feColorMatrix in="SourceAlpha" type="matrix" values="0 0 0 0 0 0 0 0 0 0 0 0 0 0 0 0 0 0 127 0" result="hardAlpha"/>
<feMorphology radius="3" operator="dilate" in="SourceAlpha" result="effect5_innerShadow_2150_1493"/>
<feOffset dx="4" dy="4"/>
<feGaussianBlur stdDeviation="4"/>
<feComposite in2="hardAlpha" operator="arithmetic" k2="-1" k3="1"/>
<feColorMatrix type="matrix" values="0 0 0 0 0 0 0 0 0 0 0 0 0 0 0 0 0 0 0.25 0"/>
<feBlend mode="normal" in2="shape" result="effect5_innerShadow_2150_1493"/>
</filter>
<filter id="filter5_ddddi_2150_1493" x="183.488" y="136.303" width="221.144" height="126.571" filterUnits="userSpaceOnUse" color-interpolation-filters="sRGB">
<feFlood flood-opacity="0" result="BackgroundImageFix"/>
<feColorMatrix in="SourceAlpha" type="matrix" values="0 0 0 0 0 0 0 0 0 0 0 0 0 0 0 0 0 0 127 0" result="hardAlpha"/>
<feOffset dx="2" dy="3"/>
<feGaussianBlur stdDeviation="4.5"/>
<feColorMatrix type="matrix" values="0 0 0 0 0.00392157 0 0 0 0 0.254902 0 0 0 0 0.388235 0 0 0 0.1 0"/>
<feBlend mode="normal" in2="BackgroundImageFix" result="effect1_dropShadow_2150_1493"/>
<feColorMatrix in="SourceAlpha" type="matrix" values="0 0 0 0 0 0 0 0 0 0 0 0 0 0 0 0 0 0 127 0" result="hardAlpha"/>
<feOffset dx="9" dy="13"/>
<feGaussianBlur stdDeviation="8"/>
<feColorMatrix type="matrix" values="0 0 0 0 0.00392157 0 0 0 0 0.254902 0 0 0 0 0.388235 0 0 0 0.09 0"/>
<feBlend mode="normal" in2="effect1_dropShadow_2150_1493" result="effect2_dropShadow_2150_1493"/>
<feColorMatrix in="SourceAlpha" type="matrix" values="0 0 0 0 0 0 0 0 0 0 0 0 0 0 0 0 0 0 127 0" result="hardAlpha"/>
<feOffset dx="20" dy="30"/>
<feGaussianBlur stdDeviation="11"/>
<feColorMatrix type="matrix" values="0 0 0 0 0.00392157 0 0 0 0 0.254902 0 0 0 0 0.388235 0 0 0 0.05 0"/>
<feBlend mode="normal" in2="effect2_dropShadow_2150_1493" result="effect3_dropShadow_2150_1493"/>
<feColorMatrix in="SourceAlpha" type="matrix" values="0 0 0 0 0 0 0 0 0 0 0 0 0 0 0 0 0 0 127 0" result="hardAlpha"/>
<feOffset dx="36" dy="54"/>
<feGaussianBlur stdDeviation="13"/>
<feColorMatrix type="matrix" values="0 0 0 0 0.00392157 0 0 0 0 0.254902 0 0 0 0 0.388235 0 0 0 0.01 0"/>
<feBlend mode="normal" in2="effect3_dropShadow_2150_1493" result="effect4_dropShadow_2150_1493"/>
<feBlend mode="normal" in="SourceGraphic" in2="effect4_dropShadow_2150_1493" result="shape"/>
<feColorMatrix in="SourceAlpha" type="matrix" values="0 0 0 0 0 0 0 0 0 0 0 0 0 0 0 0 0 0 127 0" result="hardAlpha"/>
<feMorphology radius="3" operator="dilate" in="SourceAlpha" result="effect5_innerShadow_2150_1493"/>
<feOffset dx="4" dy="4"/>
<feGaussianBlur stdDeviation="4"/>
<feComposite in2="hardAlpha" operator="arithmetic" k2="-1" k3="1"/>
<feColorMatrix type="matrix" values="0 0 0 0 0 0 0 0 0 0 0 0 0 0 0 0 0 0 0.25 0"/>
<feBlend mode="normal" in2="shape" result="effect5_innerShadow_2150_1493"/>
</filter>
<filter id="filter6_i_2150_1493" x="208.238" y="150.755" width="75.5518" height="23.6729" filterUnits="userSpaceOnUse" color-interpolation-filters="sRGB">
<feFlood flood-opacity="0" result="BackgroundImageFix"/>
<feBlend mode="normal" in="SourceGraphic" in2="BackgroundImageFix" result="shape"/>
<feColorMatrix in="SourceAlpha" type="matrix" values="0 0 0 0 0 0 0 0 0 0 0 0 0 0 0 0 0 0 127 0" result="hardAlpha"/>
<feOffset dy="0.6"/>
<feGaussianBlur stdDeviation="0.25"/>
<feComposite in2="hardAlpha" operator="arithmetic" k2="-1" k3="1"/>
<feColorMatrix type="matrix" values="0 0 0 0 0.00392157 0 0 0 0 0.254902 0 0 0 0 0.388235 0 0 0 0.5 0"/>
<feBlend mode="normal" in2="shape" result="effect1_innerShadow_2150_1493"/>
</filter>
<filter id="filter7_ddddi_2150_1493" x="-137.705" y="136.303" width="221.145" height="126.571" filterUnits="userSpaceOnUse" color-interpolation-filters="sRGB">
<feFlood flood-opacity="0" result="BackgroundImageFix"/>
<feColorMatrix in="SourceAlpha" type="matrix" values="0 0 0 0 0 0 0 0 0 0 0 0 0 0 0 0 0 0 127 0" result="hardAlpha"/>
<feOffset dx="2" dy="3"/>
<feGaussianBlur stdDeviation="4.5"/>
<feColorMatrix type="matrix" values="0 0 0 0 0.00392157 0 0 0 0 0.254902 0 0 0 0 0.388235 0 0 0 0.1 0"/>
<feBlend mode="normal" in2="BackgroundImageFix" result="effect1_dropShadow_2150_1493"/>
<feColorMatrix in="SourceAlpha" type="matrix" values="0 0 0 0 0 0 0 0 0 0 0 0 0 0 0 0 0 0 127 0" result="hardAlpha"/>
<feOffset dx="9" dy="13"/>
<feGaussianBlur stdDeviation="8"/>
<feColorMatrix type="matrix" values="0 0 0 0 0.00392157 0 0 0 0 0.254902 0 0 0 0 0.388235 0 0 0 0.09 0"/>
<feBlend mode="normal" in2="effect1_dropShadow_2150_1493" result="effect2_dropShadow_2150_1493"/>
<feColorMatrix in="SourceAlpha" type="matrix" values="0 0 0 0 0 0 0 0 0 0 0 0 0 0 0 0 0 0 127 0" result="hardAlpha"/>
<feOffset dx="20" dy="30"/>
<feGaussianBlur stdDeviation="11"/>
<feColorMatrix type="matrix" values="0 0 0 0 0.00392157 0 0 0 0 0.254902 0 0 0 0 0.388235 0 0 0 0.05 0"/>
<feBlend mode="normal" in2="effect2_dropShadow_2150_1493" result="effect3_dropShadow_2150_1493"/>
<feColorMatrix in="SourceAlpha" type="matrix" values="0 0 0 0 0 0 0 0 0 0 0 0 0 0 0 0 0 0 127 0" result="hardAlpha"/>
<feOffset dx="36" dy="54"/>
<feGaussianBlur stdDeviation="13"/>
<feColorMatrix type="matrix" values="0 0 0 0 0.00392157 0 0 0 0 0.254902 0 0 0 0 0.388235 0 0 0 0.01 0"/>
<feBlend mode="normal" in2="effect3_dropShadow_2150_1493" result="effect4_dropShadow_2150_1493"/>
<feBlend mode="normal" in="SourceGraphic" in2="effect4_dropShadow_2150_1493" result="shape"/>
<feColorMatrix in="SourceAlpha" type="matrix" values="0 0 0 0 0 0 0 0 0 0 0 0 0 0 0 0 0 0 127 0" result="hardAlpha"/>
<feMorphology radius="3" operator="dilate" in="SourceAlpha" result="effect5_innerShadow_2150_1493"/>
<feOffset dx="4" dy="4"/>
<feGaussianBlur stdDeviation="4"/>
<feComposite in2="hardAlpha" operator="arithmetic" k2="-1" k3="1"/>
<feColorMatrix type="matrix" values="0 0 0 0 0 0 0 0 0 0 0 0 0 0 0 0 0 0 0.25 0"/>
<feBlend mode="normal" in2="shape" result="effect5_innerShadow_2150_1493"/>
</filter>
<filter id="filter8_ddddi_2150_1493" x="22.8906" y="136.303" width="221.145" height="126.571" filterUnits="userSpaceOnUse" color-interpolation-filters="sRGB">
<feFlood flood-opacity="0" result="BackgroundImageFix"/>
<feColorMatrix in="SourceAlpha" type="matrix" values="0 0 0 0 0 0 0 0 0 0 0 0 0 0 0 0 0 0 127 0" result="hardAlpha"/>
<feOffset dx="2" dy="3"/>
<feGaussianBlur stdDeviation="4.5"/>
<feColorMatrix type="matrix" values="0 0 0 0 0.00392157 0 0 0 0 0.254902 0 0 0 0 0.388235 0 0 0 0.1 0"/>
<feBlend mode="normal" in2="BackgroundImageFix" result="effect1_dropShadow_2150_1493"/>
<feColorMatrix in="SourceAlpha" type="matrix" values="0 0 0 0 0 0 0 0 0 0 0 0 0 0 0 0 0 0 127 0" result="hardAlpha"/>
<feOffset dx="9" dy="13"/>
<feGaussianBlur stdDeviation="8"/>
<feColorMatrix type="matrix" values="0 0 0 0 0.00392157 0 0 0 0 0.254902 0 0 0 0 0.388235 0 0 0 0.09 0"/>
<feBlend mode="normal" in2="effect1_dropShadow_2150_1493" result="effect2_dropShadow_2150_1493"/>
<feColorMatrix in="SourceAlpha" type="matrix" values="0 0 0 0 0 0 0 0 0 0 0 0 0 0 0 0 0 0 127 0" result="hardAlpha"/>
<feOffset dx="20" dy="30"/>
<feGaussianBlur stdDeviation="11"/>
<feColorMatrix type="matrix" values="0 0 0 0 0.00392157 0 0 0 0 0.254902 0 0 0 0 0.388235 0 0 0 0.05 0"/>
<feBlend mode="normal" in2="effect2_dropShadow_2150_1493" result="effect3_dropShadow_2150_1493"/>
<feColorMatrix in="SourceAlpha" type="matrix" values="0 0 0 0 0 0 0 0 0 0 0 0 0 0 0 0 0 0 127 0" result="hardAlpha"/>
<feOffset dx="36" dy="54"/>
<feGaussianBlur stdDeviation="13"/>
<feColorMatrix type="matrix" values="0 0 0 0 0.00392157 0 0 0 0 0.254902 0 0 0 0 0.388235 0 0 0 0.01 0"/>
<feBlend mode="normal" in2="effect3_dropShadow_2150_1493" result="effect4_dropShadow_2150_1493"/>
<feBlend mode="normal" in="SourceGraphic" in2="effect4_dropShadow_2150_1493" result="shape"/>
<feColorMatrix in="SourceAlpha" type="matrix" values="0 0 0 0 0 0 0 0 0 0 0 0 0 0 0 0 0 0 127 0" result="hardAlpha"/>
<feMorphology radius="3" operator="dilate" in="SourceAlpha" result="effect5_innerShadow_2150_1493"/>
<feOffset dx="4" dy="4"/>
<feGaussianBlur stdDeviation="4"/>
<feComposite in2="hardAlpha" operator="arithmetic" k2="-1" k3="1"/>
<feColorMatrix type="matrix" values="0 0 0 0 0 0 0 0 0 0 0 0 0 0 0 0 0 0 0.25 0"/>
<feBlend mode="normal" in2="shape" result="effect5_innerShadow_2150_1493"/>
</filter>
<filter id="filter9_i_2150_1493" x="42.5684" y="153.291" width="123.406" height="20.7861" filterUnits="userSpaceOnUse" color-interpolation-filters="sRGB">
<feFlood flood-opacity="0" result="BackgroundImageFix"/>
<feBlend mode="normal" in="SourceGraphic" in2="BackgroundImageFix" result="shape"/>
<feColorMatrix in="SourceAlpha" type="matrix" values="0 0 0 0 0 0 0 0 0 0 0 0 0 0 0 0 0 0 127 0" result="hardAlpha"/>
<feOffset dy="0.6"/>
<feGaussianBlur stdDeviation="0.25"/>
<feComposite in2="hardAlpha" operator="arithmetic" k2="-1" k3="1"/>
<feColorMatrix type="matrix" values="0 0 0 0 0.00392157 0 0 0 0 0.254902 0 0 0 0 0.388235 0 0 0 0.5 0"/>
<feBlend mode="normal" in2="shape" result="effect1_innerShadow_2150_1493"/>
</filter>
<filter id="filter10_ddddi_2150_1493" x="258.999" y="186.584" width="221.144" height="126.571" filterUnits="userSpaceOnUse" color-interpolation-filters="sRGB">
<feFlood flood-opacity="0" result="BackgroundImageFix"/>
<feColorMatrix in="SourceAlpha" type="matrix" values="0 0 0 0 0 0 0 0 0 0 0 0 0 0 0 0 0 0 127 0" result="hardAlpha"/>
<feOffset dx="2" dy="3"/>
<feGaussianBlur stdDeviation="4.5"/>
<feColorMatrix type="matrix" values="0 0 0 0 0.00392157 0 0 0 0 0.254902 0 0 0 0 0.388235 0 0 0 0.1 0"/>
<feBlend mode="normal" in2="BackgroundImageFix" result="effect1_dropShadow_2150_1493"/>
<feColorMatrix in="SourceAlpha" type="matrix" values="0 0 0 0 0 0 0 0 0 0 0 0 0 0 0 0 0 0 127 0" result="hardAlpha"/>
<feOffset dx="9" dy="13"/>
<feGaussianBlur stdDeviation="8"/>
<feColorMatrix type="matrix" values="0 0 0 0 0.00392157 0 0 0 0 0.254902 0 0 0 0 0.388235 0 0 0 0.09 0"/>
<feBlend mode="normal" in2="effect1_dropShadow_2150_1493" result="effect2_dropShadow_2150_1493"/>
<feColorMatrix in="SourceAlpha" type="matrix" values="0 0 0 0 0 0 0 0 0 0 0 0 0 0 0 0 0 0 127 0" result="hardAlpha"/>
<feOffset dx="20" dy="30"/>
<feGaussianBlur stdDeviation="11"/>
<feColorMatrix type="matrix" values="0 0 0 0 0.00392157 0 0 0 0 0.254902 0 0 0 0 0.388235 0 0 0 0.05 0"/>
<feBlend mode="normal" in2="effect2_dropShadow_2150_1493" result="effect3_dropShadow_2150_1493"/>
<feColorMatrix in="SourceAlpha" type="matrix" values="0 0 0 0 0 0 0 0 0 0 0 0 0 0 0 0 0 0 127 0" result="hardAlpha"/>
<feOffset dx="36" dy="54"/>
<feGaussianBlur stdDeviation="13"/>
<feColorMatrix type="matrix" values="0 0 0 0 0.00392157 0 0 0 0 0.254902 0 0 0 0 0.388235 0 0 0 0.01 0"/>
<feBlend mode="normal" in2="effect3_dropShadow_2150_1493" result="effect4_dropShadow_2150_1493"/>
<feBlend mode="normal" in="SourceGraphic" in2="effect4_dropShadow_2150_1493" result="shape"/>
<feColorMatrix in="SourceAlpha" type="matrix" values="0 0 0 0 0 0 0 0 0 0 0 0 0 0 0 0 0 0 127 0" result="hardAlpha"/>
<feMorphology radius="3" operator="dilate" in="SourceAlpha" result="effect5_innerShadow_2150_1493"/>
<feOffset dx="4" dy="4"/>
<feGaussianBlur stdDeviation="4"/>
<feComposite in2="hardAlpha" operator="arithmetic" k2="-1" k3="1"/>
<feColorMatrix type="matrix" values="0 0 0 0 0 0 0 0 0 0 0 0 0 0 0 0 0 0 0.25 0"/>
<feBlend mode="normal" in2="shape" result="effect5_innerShadow_2150_1493"/>
</filter>
<filter id="filter11_ddddi_2150_1493" x="-62" y="186.584" width="221.141" height="126" filterUnits="userSpaceOnUse" color-interpolation-filters="sRGB">
<feFlood flood-opacity="0" result="BackgroundImageFix"/>
<feColorMatrix in="SourceAlpha" type="matrix" values="0 0 0 0 0 0 0 0 0 0 0 0 0 0 0 0 0 0 127 0" result="hardAlpha"/>
<feOffset dx="2" dy="3"/>
<feGaussianBlur stdDeviation="4.5"/>
<feColorMatrix type="matrix" values="0 0 0 0 0.00392157 0 0 0 0 0.254902 0 0 0 0 0.388235 0 0 0 0.1 0"/>
<feBlend mode="normal" in2="BackgroundImageFix" result="effect1_dropShadow_2150_1493"/>
<feColorMatrix in="SourceAlpha" type="matrix" values="0 0 0 0 0 0 0 0 0 0 0 0 0 0 0 0 0 0 127 0" result="hardAlpha"/>
<feOffset dx="9" dy="13"/>
<feGaussianBlur stdDeviation="8"/>
<feColorMatrix type="matrix" values="0 0 0 0 0.00392157 0 0 0 0 0.254902 0 0 0 0 0.388235 0 0 0 0.09 0"/>
<feBlend mode="normal" in2="effect1_dropShadow_2150_1493" result="effect2_dropShadow_2150_1493"/>
<feColorMatrix in="SourceAlpha" type="matrix" values="0 0 0 0 0 0 0 0 0 0 0 0 0 0 0 0 0 0 127 0" result="hardAlpha"/>
<feOffset dx="20" dy="30"/>
<feGaussianBlur stdDeviation="11"/>
<feColorMatrix type="matrix" values="0 0 0 0 0.00392157 0 0 0 0 0.254902 0 0 0 0 0.388235 0 0 0 0.05 0"/>
<feBlend mode="normal" in2="effect2_dropShadow_2150_1493" result="effect3_dropShadow_2150_1493"/>
<feColorMatrix in="SourceAlpha" type="matrix" values="0 0 0 0 0 0 0 0 0 0 0 0 0 0 0 0 0 0 127 0" result="hardAlpha"/>
<feOffset dx="36" dy="54"/>
<feGaussianBlur stdDeviation="13"/>
<feColorMatrix type="matrix" values="0 0 0 0 0.00392157 0 0 0 0 0.254902 0 0 0 0 0.388235 0 0 0 0.01 0"/>
<feBlend mode="normal" in2="effect3_dropShadow_2150_1493" result="effect4_dropShadow_2150_1493"/>
<feBlend mode="normal" in="SourceGraphic" in2="effect4_dropShadow_2150_1493" result="shape"/>
<feColorMatrix in="SourceAlpha" type="matrix" values="0 0 0 0 0 0 0 0 0 0 0 0 0 0 0 0 0 0 127 0" result="hardAlpha"/>
<feMorphology radius="3" operator="dilate" in="SourceAlpha" result="effect5_innerShadow_2150_1493"/>
<feOffset dx="4" dy="4"/>
<feGaussianBlur stdDeviation="4"/>
<feComposite in2="hardAlpha" operator="arithmetic" k2="-1" k3="1"/>
<feColorMatrix type="matrix" values="0 0 0 0 0 0 0 0 0 0 0 0 0 0 0 0 0 0 0.25 0"/>
<feBlend mode="normal" in2="shape" result="effect5_innerShadow_2150_1493"/>
</filter>
<filter id="filter12_i_2150_1493" x="-3" y="206.584" width="47.2051" height="12.8115" filterUnits="userSpaceOnUse" color-interpolation-filters="sRGB">
<feFlood flood-opacity="0" result="BackgroundImageFix"/>
<feBlend mode="normal" in="SourceGraphic" in2="BackgroundImageFix" result="shape"/>
<feColorMatrix in="SourceAlpha" type="matrix" values="0 0 0 0 0 0 0 0 0 0 0 0 0 0 0 0 0 0 127 0" result="hardAlpha"/>
<feOffset dy="0.6"/>
<feGaussianBlur stdDeviation="0.25"/>
<feComposite in2="hardAlpha" operator="arithmetic" k2="-1" k3="1"/>
<feColorMatrix type="matrix" values="0 0 0 0 0.00392157 0 0 0 0 0.254902 0 0 0 0 0.388235 0 0 0 0.5 0"/>
<feBlend mode="normal" in2="shape" result="effect1_innerShadow_2150_1493"/>
</filter>
<filter id="filter13_ddddi_2150_1493" x="99" y="186.584" width="221.145" height="126.571" filterUnits="userSpaceOnUse" color-interpolation-filters="sRGB">
<feFlood flood-opacity="0" result="BackgroundImageFix"/>
<feColorMatrix in="SourceAlpha" type="matrix" values="0 0 0 0 0 0 0 0 0 0 0 0 0 0 0 0 0 0 127 0" result="hardAlpha"/>
<feOffset dx="2" dy="3"/>
<feGaussianBlur stdDeviation="4.5"/>
<feColorMatrix type="matrix" values="0 0 0 0 0.00392157 0 0 0 0 0.254902 0 0 0 0 0.388235 0 0 0 0.1 0"/>
<feBlend mode="normal" in2="BackgroundImageFix" result="effect1_dropShadow_2150_1493"/>
<feColorMatrix in="SourceAlpha" type="matrix" values="0 0 0 0 0 0 0 0 0 0 0 0 0 0 0 0 0 0 127 0" result="hardAlpha"/>
<feOffset dx="9" dy="13"/>
<feGaussianBlur stdDeviation="8"/>
<feColorMatrix type="matrix" values="0 0 0 0 0.00392157 0 0 0 0 0.254902 0 0 0 0 0.388235 0 0 0 0.09 0"/>
<feBlend mode="normal" in2="effect1_dropShadow_2150_1493" result="effect2_dropShadow_2150_1493"/>
<feColorMatrix in="SourceAlpha" type="matrix" values="0 0 0 0 0 0 0 0 0 0 0 0 0 0 0 0 0 0 127 0" result="hardAlpha"/>
<feOffset dx="20" dy="30"/>
<feGaussianBlur stdDeviation="11"/>
<feColorMatrix type="matrix" values="0 0 0 0 0.00392157 0 0 0 0 0.254902 0 0 0 0 0.388235 0 0 0 0.05 0"/>
<feBlend mode="normal" in2="effect2_dropShadow_2150_1493" result="effect3_dropShadow_2150_1493"/>
<feColorMatrix in="SourceAlpha" type="matrix" values="0 0 0 0 0 0 0 0 0 0 0 0 0 0 0 0 0 0 127 0" result="hardAlpha"/>
<feOffset dx="36" dy="54"/>
<feGaussianBlur stdDeviation="13"/>
<feColorMatrix type="matrix" values="0 0 0 0 0.00392157 0 0 0 0 0.254902 0 0 0 0 0.388235 0 0 0 0.01 0"/>
<feBlend mode="normal" in2="effect3_dropShadow_2150_1493" result="effect4_dropShadow_2150_1493"/>
<feBlend mode="normal" in="SourceGraphic" in2="effect4_dropShadow_2150_1493" result="shape"/>
<feColorMatrix in="SourceAlpha" type="matrix" values="0 0 0 0 0 0 0 0 0 0 0 0 0 0 0 0 0 0 127 0" result="hardAlpha"/>
<feMorphology radius="3" operator="dilate" in="SourceAlpha" result="effect5_innerShadow_2150_1493"/>
<feOffset dx="4" dy="4"/>
<feGaussianBlur stdDeviation="4"/>
<feComposite in2="hardAlpha" operator="arithmetic" k2="-1" k3="1"/>
<feColorMatrix type="matrix" values="0 0 0 0 0 0 0 0 0 0 0 0 0 0 0 0 0 0 0.25 0"/>
<feBlend mode="normal" in2="shape" result="effect5_innerShadow_2150_1493"/>
</filter>
<filter id="filter14_i_2150_1493" x="142.346" y="203.571" width="79.5508" height="18.7969" filterUnits="userSpaceOnUse" color-interpolation-filters="sRGB">
<feFlood flood-opacity="0" result="BackgroundImageFix"/>
<feBlend mode="normal" in="SourceGraphic" in2="BackgroundImageFix" result="shape"/>
<feColorMatrix in="SourceAlpha" type="matrix" values="0 0 0 0 0 0 0 0 0 0 0 0 0 0 0 0 0 0 127 0" result="hardAlpha"/>
<feOffset dy="0.6"/>
<feGaussianBlur stdDeviation="0.25"/>
<feComposite in2="hardAlpha" operator="arithmetic" k2="-1" k3="1"/>
<feColorMatrix type="matrix" values="0 0 0 0 0.00392157 0 0 0 0 0.254902 0 0 0 0 0.388235 0 0 0 0.5 0"/>
<feBlend mode="normal" in2="shape" result="effect1_innerShadow_2150_1493"/>
</filter>
<linearGradient id="paint0_linear_2150_1493" x1="297" y1="162.434" x2="0" y2="162.434" gradientUnits="userSpaceOnUse">
<stop stop-color="#D9D9D9" stop-opacity="0"/>
<stop offset="0.15" stop-color="#CFCFCF"/>
<stop offset="0.85" stop-color="#7E7E7E"/>
<stop offset="1" stop-color="#737373" stop-opacity="0"/>
</linearGradient>
<linearGradient id="paint1_linear_2150_1493" x1="31.5817" y1="92.4336" x2="31.5817" y2="116.476" gradientUnits="userSpaceOnUse">
<stop stop-color="#014163" stop-opacity="0.7"/>
<stop offset="1" stop-color="#014163" stop-opacity="0.01"/>
</linearGradient>
<linearGradient id="paint2_linear_2150_1493" x1="192.072" y1="92.584" x2="192.072" y2="116.626" gradientUnits="userSpaceOnUse">
<stop stop-color="#014163" stop-opacity="0.7"/>
<stop offset="1" stop-color="#014163" stop-opacity="0.01"/>
</linearGradient>
<linearGradient id="paint3_linear_2150_1493" x1="352.178" y1="92.4336" x2="352.178" y2="116.476" gradientUnits="userSpaceOnUse">
<stop stop-color="#014163" stop-opacity="0.7"/>
<stop offset="1" stop-color="#014163" stop-opacity="0.01"/>
</linearGradient>
<linearGradient id="paint4_linear_2150_1493" x1="266.56" y1="142.303" x2="266.56" y2="166.345" gradientUnits="userSpaceOnUse">
<stop stop-color="#014163" stop-opacity="0.7"/>
<stop offset="1" stop-color="#014163" stop-opacity="0.01"/>
</linearGradient>
<linearGradient id="paint5_linear_2150_1493" x1="-54.6331" y1="142.303" x2="-54.6331" y2="166.345" gradientUnits="userSpaceOnUse">
<stop stop-color="#014163" stop-opacity="0.7"/>
<stop offset="1" stop-color="#014163" stop-opacity="0.01"/>
</linearGradient>
<linearGradient id="paint6_linear_2150_1493" x1="105.963" y1="142.303" x2="105.963" y2="166.345" gradientUnits="userSpaceOnUse">
<stop stop-color="#014163" stop-opacity="0.7"/>
<stop offset="1" stop-color="#014163" stop-opacity="0.01"/>
</linearGradient>
<linearGradient id="paint7_linear_2150_1493" x1="342.071" y1="192.584" x2="342.071" y2="216.626" gradientUnits="userSpaceOnUse">
<stop stop-color="#014163" stop-opacity="0.7"/>
<stop offset="1" stop-color="#014163" stop-opacity="0.01"/>
</linearGradient>
<linearGradient id="paint8_linear_2150_1493" x1="21.07" y1="192.584" x2="21.07" y2="216.288" gradientUnits="userSpaceOnUse">
<stop stop-color="#014163" stop-opacity="0.7"/>
<stop offset="1" stop-color="#014163" stop-opacity="0.01"/>
</linearGradient>
<linearGradient id="paint9_linear_2150_1493" x1="182.072" y1="192.584" x2="182.072" y2="216.626" gradientUnits="userSpaceOnUse">
<stop stop-color="#014163" stop-opacity="0.7"/>
<stop offset="1" stop-color="#014163" stop-opacity="0.01"/>
</linearGradient>
<clipPath id="clip0_2150_1493">
<rect width="296" height="260" fill="white"/>
</clipPath>
<clipPath id="clip1_2150_1493">
<rect width="296" height="260" fill="white" transform="translate(0 0.433594)"/>
</clipPath>
<clipPath id="clip2_2150_1493">
<rect width="93.1843" height="22.0536" fill="white" transform="translate(-14.9062 101.73)"/>
</clipPath>
<clipPath id="clip3_2150_1493">
<rect width="75.5522" height="23.1729" fill="white" transform="translate(208.238 150.755)"/>
</clipPath>
<clipPath id="clip4_2150_1493">
<rect width="123.406" height="20.2859" fill="white" transform="translate(42.5684 153.291)"/>
</clipPath>
<clipPath id="clip5_2150_1493">
<rect width="47.2042" height="12.312" fill="white" transform="translate(-3 206.584)"/>
</clipPath>
<clipPath id="clip6_2150_1493">
<rect width="79.5502" height="18.2965" fill="white" transform="translate(142.346 203.571)"/>
</clipPath>
</defs>
</svg>
