<svg viewBox="0 0 236 66" fill="none" xmlns="http://www.w3.org/2000/svg">
<g clip-path="url(#clip0_2215_1557)">
<g filter="url(#filter0_i_2215_1557)">
<path d="M5.106 57V8.01H24.15C30.222 8.01 34.868 9.091 38.088 11.253C41.308 13.369 42.918 16.727 42.918 21.327C42.918 23.351 42.504 25.122 41.676 26.64C40.848 28.112 39.629 29.285 38.019 30.159C36.455 31.033 34.546 31.562 32.292 31.746V31.608C36.386 31.884 39.514 33.08 41.676 35.196C43.884 37.266 44.988 40.026 44.988 43.476C44.988 48.03 43.378 51.434 40.158 53.688C36.984 55.896 32.43 57 26.496 57H5.106ZM15.594 48.444H26.013C28.543 48.444 30.567 47.938 32.085 46.926C33.649 45.868 34.431 44.304 34.431 42.234C34.431 40.164 33.649 38.6 32.085 37.542C30.567 36.438 28.543 35.886 26.013 35.886H15.594V48.444ZM15.594 28.296H23.874C26.45 28.296 28.497 27.79 30.015 26.778C31.579 25.766 32.361 24.317 32.361 22.431C32.361 20.407 31.602 18.935 30.084 18.015C28.612 17.049 26.542 16.566 23.874 16.566H15.594V28.296ZM48.9458 57V20.016H58.7438L59.0888 30.78L58.3298 30.573C58.9278 26.847 59.9858 24.156 61.5038 22.5C63.0218 20.844 65.1148 20.016 67.7828 20.016H71.1638V28.572H67.7828C65.8508 28.572 64.2638 28.825 63.0218 29.331C61.7798 29.837 60.8368 30.642 60.1928 31.746C59.5948 32.85 59.2958 34.345 59.2958 36.231V57H48.9458ZM83.4199 57.828C79.6019 57.828 76.4739 56.954 74.0359 55.206C71.6439 53.412 70.4479 50.928 70.4479 47.754C70.4479 44.488 71.4599 41.981 73.4839 40.233C75.5539 38.439 78.5899 37.128 82.5919 36.3L94.5289 33.954C94.5289 31.562 93.9769 29.768 92.8729 28.572C91.8149 27.33 90.2739 26.709 88.2499 26.709C86.2719 26.709 84.7309 27.169 83.6269 28.089C82.5229 28.963 81.8099 30.274 81.4879 32.022L71.0689 31.539C71.7589 27.491 73.5759 24.432 76.5199 22.362C79.5099 20.246 83.4199 19.188 88.2499 19.188C93.7699 19.188 97.9099 20.499 100.67 23.121C103.476 25.743 104.879 29.584 104.879 34.644V47.271C104.879 48.329 105.04 49.042 105.362 49.41C105.73 49.732 106.259 49.893 106.949 49.893H107.984V57C107.662 57.092 107.133 57.184 106.397 57.276C105.707 57.368 105.017 57.414 104.327 57.414C102.855 57.414 101.475 57.161 100.187 56.655C98.9449 56.149 97.9329 55.298 97.1509 54.102C96.3689 52.86 95.9779 51.112 95.9779 48.858L96.8749 49.548C96.4149 51.204 95.5869 52.653 94.3909 53.895C93.2409 55.137 91.7229 56.103 89.8369 56.793C87.9969 57.483 85.8579 57.828 83.4199 57.828ZM85.9039 50.721C87.6059 50.721 89.1009 50.399 90.3889 49.755C91.6769 49.065 92.6889 48.076 93.4249 46.788C94.1609 45.5 94.5289 43.982 94.5289 42.234V40.44L86.1109 42.234C84.4549 42.556 83.1899 43.108 82.3159 43.89C81.4879 44.626 81.0739 45.592 81.0739 46.788C81.0739 48.03 81.4879 48.996 82.3159 49.686C83.1439 50.376 84.3399 50.721 85.9039 50.721ZM109.968 57V20.016H119.283L119.697 30.849L118.386 30.504C118.754 27.744 119.49 25.536 120.594 23.88C121.744 22.224 123.17 21.028 124.872 20.292C126.574 19.556 128.437 19.188 130.461 19.188C133.129 19.188 135.383 19.763 137.223 20.913C139.109 22.063 140.535 23.696 141.501 25.812C142.513 27.882 143.019 30.343 143.019 33.195V57H132.669V36.645C132.669 34.667 132.508 32.988 132.186 31.608C131.864 30.228 131.289 29.193 130.461 28.503C129.633 27.767 128.483 27.399 127.011 27.399C124.849 27.399 123.193 28.204 122.043 29.814C120.893 31.378 120.318 33.655 120.318 36.645V57H109.968ZM161.002 57.828C157.874 57.828 155.16 57.046 152.86 55.482C150.606 53.872 148.858 51.641 147.616 48.789C146.42 45.891 145.822 42.464 145.822 38.508C145.822 34.552 146.443 31.148 147.685 28.296C148.927 25.398 150.675 23.167 152.929 21.603C155.229 19.993 157.92 19.188 161.002 19.188C163.624 19.188 165.878 19.74 167.764 20.844C169.696 21.902 171.145 23.374 172.111 25.26V8.01H182.461V57H172.594L172.387 51.549C171.375 53.527 169.857 55.068 167.833 56.172C165.855 57.276 163.578 57.828 161.002 57.828ZM164.383 49.893C166.039 49.893 167.442 49.456 168.592 48.582C169.742 47.708 170.616 46.443 171.214 44.787C171.812 43.085 172.111 40.992 172.111 38.508C172.111 35.978 171.812 33.885 171.214 32.229C170.616 30.527 169.742 29.262 168.592 28.434C167.442 27.56 166.039 27.123 164.383 27.123C161.945 27.123 160.013 28.158 158.587 30.228C157.161 32.252 156.448 35.012 156.448 38.508C156.448 41.958 157.161 44.718 158.587 46.788C160.059 48.858 161.991 49.893 164.383 49.893ZM203.232 57.828C199.414 57.828 196.217 57.299 193.641 56.241C191.065 55.137 189.087 53.665 187.707 51.825C186.373 49.939 185.614 47.777 185.43 45.339L195.918 44.994C196.24 46.742 196.976 48.099 198.126 49.065C199.276 50.031 200.978 50.514 203.232 50.514C205.072 50.514 206.498 50.215 207.51 49.617C208.568 49.019 209.097 48.099 209.097 46.857C209.097 46.075 208.913 45.431 208.545 44.925C208.177 44.373 207.441 43.913 206.337 43.545C205.279 43.131 203.692 42.763 201.576 42.441C197.666 41.751 194.607 40.946 192.399 40.026C190.191 39.106 188.627 37.91 187.707 36.438C186.787 34.966 186.327 33.172 186.327 31.056C186.327 27.514 187.684 24.662 190.398 22.5C193.158 20.292 197.275 19.188 202.749 19.188C206.245 19.188 209.166 19.74 211.512 20.844C213.904 21.948 215.744 23.466 217.032 25.398C218.366 27.284 219.194 29.446 219.516 31.884L209.097 32.298C208.959 31.102 208.591 30.09 207.993 29.262C207.441 28.388 206.728 27.721 205.854 27.261C204.98 26.755 203.922 26.502 202.68 26.502C200.84 26.502 199.414 26.893 198.402 27.675C197.436 28.411 196.953 29.4 196.953 30.642C196.953 31.562 197.16 32.321 197.574 32.919C198.034 33.471 198.77 33.931 199.782 34.299C200.794 34.667 202.151 34.966 203.853 35.196C207.809 35.748 210.937 36.53 213.237 37.542C215.583 38.508 217.262 39.727 218.274 41.199C219.286 42.671 219.792 44.488 219.792 46.65C219.792 49.042 219.102 51.066 217.722 52.722C216.342 54.378 214.41 55.643 211.926 56.517C209.488 57.391 206.59 57.828 203.232 57.828ZM221.399 57V46.443H232.646V57H221.399Z" fill="url(#paint0_linear_2215_1557)" fill-opacity="0.2"/>
</g>
</g>
<defs>
<filter id="filter0_i_2215_1557" x="5.10596" y="8.00977" width="227.54" height="50.8184" filterUnits="userSpaceOnUse" color-interpolation-filters="sRGB">
<feFlood flood-opacity="0" result="BackgroundImageFix"/>
<feBlend mode="normal" in="SourceGraphic" in2="BackgroundImageFix" result="shape"/>
<feColorMatrix in="SourceAlpha" type="matrix" values="0 0 0 0 0 0 0 0 0 0 0 0 0 0 0 0 0 0 127 0" result="hardAlpha"/>
<feOffset dy="1"/>
<feGaussianBlur stdDeviation="1"/>
<feComposite in2="hardAlpha" operator="arithmetic" k2="-1" k3="1"/>
<feColorMatrix type="matrix" values="0 0 0 0 0 0 0 0 0 0 0 0 0 0 0 0 0 0 0.3 0"/>
<feBlend mode="normal" in2="shape" result="effect1_innerShadow_2215_1557"/>
</filter>
<linearGradient id="paint0_linear_2215_1557" x1="118" y1="66" x2="118" y2="0" gradientUnits="userSpaceOnUse">
<stop stop-color="#202020"/>
<stop offset="1" stop-color="#515151"/>
</linearGradient>
<clipPath id="clip0_2215_1557">
<rect width="236" height="66" fill="white"/>
</clipPath>
</defs>
</svg>
