<svg width="355" height="62" viewBox="0 0 355 62" fill="none" xmlns="http://www.w3.org/2000/svg">
<g filter="url(#filter0_i_2278_1797)">
<path d="M50.3495 4.93555V57.0641L34.1185 47.7621L20.1436 54.2215L26.4552 43.3803L34.1185 30.216L17.164 38.0542L0 28.2234L34.1185 12.4432L50.3495 4.93555Z" fill="black"/>
<path d="M50.3495 4.93555V57.0641L34.1185 47.7621L20.1436 54.2215L26.4552 43.3803L34.1185 30.216L17.164 38.0542L0 28.2234L34.1185 12.4432L50.3495 4.93555Z" fill="url(#paint0_linear_2278_1797)"/>
</g>
<g filter="url(#filter1_i_2278_1797)">
<path d="M86.5779 55.0656C74.3901 55.0656 67.1306 48.5388 66.4646 38.4155L76.6545 37.9493C77.3871 43.5438 80.6505 46.674 86.7111 46.674C91.7727 46.674 94.6365 44.8092 94.6365 41.2128C94.6365 37.9493 92.9715 36.0179 84.1137 34.0199C71.9924 31.2893 67.3304 27.9593 67.3304 19.9007C67.3304 11.4424 73.9904 5.64822 85.0461 5.64822C96.8343 5.64822 103.095 12.3082 104.16 21.6323L94.0371 22.1651C93.5043 17.2367 90.3741 14.0398 84.9129 14.0398C80.3841 14.0398 77.5869 16.2377 77.5869 19.5677C77.5869 23.0975 79.7181 24.5627 87.4437 26.1611C100.564 28.8251 104.893 33.5537 104.893 40.7465C104.893 49.6044 97.8333 55.0656 86.5779 55.0656ZM109.037 13.9066V5.91462H119.36V13.9066H109.037ZM109.237 54V18.3023H119.227V54H109.237ZM138.497 54.7992C129.506 54.7992 123.912 47.6064 123.912 36.1511C123.912 24.7625 129.64 17.5031 138.497 17.5031C143.626 17.5031 147.422 19.7009 149.287 23.3639V6.71382H159.277V54H149.686L149.487 48.7386C147.489 52.6014 143.426 54.7992 138.497 54.7992ZM141.827 47.1402C146.623 47.1402 149.287 43.344 149.287 36.1511C149.287 28.8917 146.623 25.1621 141.827 25.1621C137.165 25.1621 134.168 29.3579 134.168 36.1511C134.168 42.8112 137.232 47.1402 141.827 47.1402ZM181.977 54.7992C171.054 54.7992 163.994 47.4066 163.994 36.1511C163.994 24.8957 171.054 17.5031 181.91 17.5031C192.499 17.5031 199.359 24.8291 199.359 36.8171V38.8151H174.317C174.517 44.4762 177.514 47.2068 182.176 47.2068C185.506 47.2068 187.837 45.8082 188.836 42.8778L198.893 43.4772C196.962 50.6034 190.568 54.7992 181.977 54.7992ZM174.317 32.6879H189.169C188.903 27.4931 186.039 24.8957 181.91 24.8957C177.714 24.8957 174.85 27.7595 174.317 32.6879ZM223.493 55.0656C211.306 55.0656 204.046 48.5388 203.38 38.4155L213.57 37.9493C214.303 43.5438 217.566 46.674 223.627 46.674C228.688 46.674 231.552 44.8092 231.552 41.2128C231.552 37.9493 229.887 36.0179 221.029 34.0199C208.908 31.2893 204.246 27.9593 204.246 19.9007C204.246 11.4424 210.906 5.64822 221.962 5.64822C233.75 5.64822 240.01 12.3082 241.076 21.6323L230.953 22.1651C230.42 17.2367 227.29 14.0398 221.828 14.0398C217.3 14.0398 214.502 16.2377 214.502 19.5677C214.502 23.0975 216.634 24.5627 224.359 26.1611C237.479 28.8251 241.809 33.5537 241.809 40.7465C241.809 49.6044 234.749 55.0656 223.493 55.0656ZM246.153 54V6.71382H256.143V22.6979C258.074 19.1681 261.737 17.5031 265.999 17.5031C273.992 17.5031 278.054 23.0975 278.054 31.0229V54H268.064V33.4205C268.064 28.1591 266.532 25.4285 262.669 25.4285C258.54 25.4285 256.143 28.2923 256.143 33.6869V54H246.153ZM284.669 13.9066V5.91462H294.992V13.9066H284.669ZM284.869 54V18.3023H294.859V54H284.869ZM305.465 54V27.0935H300.271V19.6343H305.465V17.8361C305.465 10.7764 309.195 6.71382 317.254 6.71382H324.846V14.173H319.385C316.588 14.173 315.455 15.5717 315.455 18.3023V19.6343H324.313V27.0935H315.455V54H305.465ZM344.243 54C336.85 54 333.52 50.7366 333.52 43.2774V25.7615H327.793V18.3023H333.52V9.91063H343.51V18.3023H352.901V25.7615H343.51V42.0786C343.51 45.5418 344.975 46.5408 347.906 46.5408H352.901V54H344.243Z" fill="url(#paint1_linear_2278_1797)"/>
</g>
<defs>
<filter id="filter0_i_2278_1797" x="0" y="4.93555" width="50.3496" height="53.4097" filterUnits="userSpaceOnUse" color-interpolation-filters="sRGB">
<feFlood flood-opacity="0" result="BackgroundImageFix"/>
<feBlend mode="normal" in="SourceGraphic" in2="BackgroundImageFix" result="shape"/>
<feColorMatrix in="SourceAlpha" type="matrix" values="0 0 0 0 0 0 0 0 0 0 0 0 0 0 0 0 0 0 127 0" result="hardAlpha"/>
<feOffset dy="2.56155"/>
<feGaussianBlur stdDeviation="0.640387"/>
<feComposite in2="hardAlpha" operator="arithmetic" k2="-1" k3="1"/>
<feColorMatrix type="matrix" values="0 0 0 0 0 0 0 0 0 0 0 0 0 0 0 0 0 0 0.55 0"/>
<feBlend mode="normal" in2="shape" result="effect1_innerShadow_2278_1797"/>
</filter>
<filter id="filter1_i_2278_1797" x="66.4648" y="5.64844" width="286.436" height="50.6978" filterUnits="userSpaceOnUse" color-interpolation-filters="sRGB">
<feFlood flood-opacity="0" result="BackgroundImageFix"/>
<feBlend mode="normal" in="SourceGraphic" in2="BackgroundImageFix" result="shape"/>
<feColorMatrix in="SourceAlpha" type="matrix" values="0 0 0 0 0 0 0 0 0 0 0 0 0 0 0 0 0 0 127 0" result="hardAlpha"/>
<feOffset dy="2.56155"/>
<feGaussianBlur stdDeviation="0.640387"/>
<feComposite in2="hardAlpha" operator="arithmetic" k2="-1" k3="1"/>
<feColorMatrix type="matrix" values="0 0 0 0 0 0 0 0 0 0 0 0 0 0 0 0 0 0 0.55 0"/>
<feBlend mode="normal" in2="shape" result="effect1_innerShadow_2278_1797"/>
</filter>
<linearGradient id="paint0_linear_2278_1797" x1="25.1748" y1="57.0641" x2="25.1748" y2="4.93555" gradientUnits="userSpaceOnUse">
<stop stop-color="#202020"/>
<stop offset="1" stop-color="#515151"/>
</linearGradient>
<linearGradient id="paint1_linear_2278_1797" x1="208.959" y1="62" x2="208.959" y2="0" gradientUnits="userSpaceOnUse">
<stop stop-color="#202020"/>
<stop offset="1" stop-color="#515151"/>
</linearGradient>
</defs>
</svg>
