<svg width="94" height="28" viewBox="0 0 94 28" fill="none" xmlns="http://www.w3.org/2000/svg">
<g clip-path="url(#clip0_2281_1831)" filter="url(#filter0_i_2281_1831)">
<path d="M63.3137 7.09849C61.6519 7.09849 60.3746 7.68942 59.1797 8.92625V7.38709H55.9247V22.5314H59.427V13.7499C59.427 11.7435 60.6218 10.4654 62.4348 10.4654C62.7644 10.4654 63.0528 10.5066 63.2588 10.5479L65.6898 7.34586C64.7696 7.1672 63.9318 7.09849 63.3137 7.09849ZM93.5702 7.37334H89.5186L85.7829 12.3207L82.0472 7.37334H78.0094L83.7228 15.0142L78.0094 22.5314H82.1296L85.7692 17.7352L89.4087 22.5314H93.584L87.843 15.028L93.5702 7.37334ZM19.8999 3.96519C18.705 5.55932 18.4166 6.09528 17.2629 6.09528H-0.000976562V26.6267H6.76999C8.29449 26.6267 9.77778 25.8846 10.7392 24.6615C11.9753 23.0124 12.1401 22.5314 13.3349 22.5314H30.6263V2H23.8141C22.2896 2 20.8064 2.7421 19.8999 3.96519ZM25.2562 17.2405H18.032C16.4663 17.2405 15.0243 17.9001 14.0629 19.1645C12.8268 20.8136 12.5796 21.2946 11.4259 21.2946H5.3279V11.4411H12.5521C14.1178 11.4411 15.5599 10.699 16.5213 9.47596C17.7574 7.88182 18.087 7.38709 19.1995 7.38709H25.27V17.2405H25.2562ZM51.1864 12.1832C52.7109 11.3175 53.7822 9.80578 53.7822 7.78562C53.7822 4.83097 51.5161 2 48.2061 2H38.3037V22.5314H48.2061C51.7907 22.5314 54.2766 19.989 54.2766 16.787C54.2766 14.8905 53.4114 13.2552 51.1864 12.1832ZM41.8197 5.20202H47.9314C49.4559 5.20202 50.3624 6.64499 50.3624 7.9093C50.3624 9.47596 49.0027 10.5341 47.7254 10.5341H41.8197V5.20202ZM47.7117 19.3294H41.806V13.7362H47.9177C49.4834 13.7362 50.7607 15.0967 50.7607 16.4847C50.7744 18.0513 49.1675 19.3294 47.7117 19.3294Z" fill="#202020" fill-opacity="0.35"/>
<path d="M74.5068 18.1742C73.93 19.0812 72.8175 19.6172 71.5814 19.6172C69.6449 19.6172 68.038 18.2979 68.038 16.2915H78.5172C78.682 15.6731 78.7232 15.3845 78.7232 14.8485C78.7232 10.2448 75.8802 7.08398 71.5814 7.08398C67.365 7.08398 64.3984 10.0799 64.3984 14.9722C64.3984 19.7409 67.2414 22.8192 71.6638 22.8192C74.754 22.8192 77.4871 21.3075 78.27 18.1742C78.2563 18.1742 74.5068 18.1742 74.5068 18.1742ZM71.5677 10.2997C73.5042 10.2997 75.0012 11.5366 74.96 13.3781H68.0655C68.0655 11.5641 69.6312 10.2997 71.5677 10.2997Z" fill="#202020" fill-opacity="0.35"/>
</g>
<defs>
<filter id="filter0_i_2281_1831" x="0" y="2" width="93.5713" height="25.1406" filterUnits="userSpaceOnUse" color-interpolation-filters="sRGB">
<feFlood flood-opacity="0" result="BackgroundImageFix"/>
<feBlend mode="normal" in="SourceGraphic" in2="BackgroundImageFix" result="shape"/>
<feColorMatrix in="SourceAlpha" type="matrix" values="0 0 0 0 0 0 0 0 0 0 0 0 0 0 0 0 0 0 127 0" result="hardAlpha"/>
<feOffset dy="0.6"/>
<feGaussianBlur stdDeviation="0.25"/>
<feComposite in2="hardAlpha" operator="arithmetic" k2="-1" k3="1"/>
<feColorMatrix type="matrix" values="0 0 0 0 0 0 0 0 0 0 0 0 0 0 0 0 0 0 0.3 0"/>
<feBlend mode="normal" in2="shape" result="effect1_innerShadow_2281_1831"/>
</filter>
<clipPath id="clip0_2281_1831">
<rect width="93.5712" height="24.6404" fill="white" transform="translate(0 2)"/>
</clipPath>
</defs>
</svg>
