<svg width="168" height="28" viewBox="0 0 168 28" fill="none" xmlns="http://www.w3.org/2000/svg">
<g clip-path="url(#clip0_2281_1840)" filter="url(#filter0_i_2281_1840)">
<path d="M13.6561 0C6.11502 0 0 6.11502 0 13.6561C0 21.1971 6.11502 27.3121 13.6561 27.3121C21.1971 27.3121 27.3121 21.1971 27.3121 13.6561C27.3121 6.11502 21.2005 0 13.6561 0ZM22.6673 20.2362L13.6561 13.69L4.64482 20.2362L8.92637 7.08269L11.1367 8.68869L9.57825 13.4863L13.6594 10.5222L17.7406 13.4863L16.1822 8.68869L18.396 7.0793L22.6707 20.2362H22.6673Z" fill="#202020" fill-opacity="0.35"/>
<path d="M41.4282 18.3752L37.6963 7.5924H39.7305L42.2847 15.5304L44.9154 7.56181H46.5061L49.1368 15.5304L51.691 7.5924H53.664L49.9321 18.3752H48.3109L45.6802 10.6819L43.0495 18.3752H41.4282ZM56.3308 18.2988L61.0416 7.51593H62.7852L67.496 18.2988H65.5077L64.4217 15.7139H59.3592L58.2579 18.2988H56.3308ZM60.0474 14.0468H63.7335L61.8828 9.76426L60.0474 14.0468ZM75.9283 18.4517C74.2918 18.4517 72.747 17.8858 71.4623 16.7387L72.5941 15.3927C73.6188 16.2798 74.6436 16.7846 75.9742 16.7846C77.1366 16.7846 77.8708 16.2493 77.8708 15.4386V15.408C77.8708 14.6433 77.4425 14.2303 75.4542 13.7715C73.1753 13.2209 71.8905 12.5479 71.8905 10.5749V10.5443C71.8905 8.70892 73.42 7.43945 75.546 7.43945C77.106 7.43945 78.3449 7.91359 79.4308 8.78539L78.4214 10.2078C77.4578 9.48895 76.4942 9.10659 75.5154 9.10659C74.4142 9.10659 73.7718 9.67249 73.7718 10.3761V10.4066C73.7718 11.2326 74.2612 11.5996 76.3107 12.0891C78.5743 12.6397 79.752 13.4503 79.752 15.2245V15.2551C79.752 17.2587 78.1767 18.4517 75.9283 18.4517ZM88.5908 18.4517C86.9542 18.4517 85.4095 17.8858 84.1247 16.7387L85.2565 15.3927C86.2813 16.2798 87.306 16.7846 88.6367 16.7846C89.7991 16.7846 90.5332 16.2493 90.5332 15.4386V15.408C90.5332 14.6433 90.105 14.2303 88.1166 13.7715C85.8377 13.2209 84.553 12.5479 84.553 10.5749V10.5443C84.553 8.70892 86.0824 7.43945 88.2084 7.43945C89.7685 7.43945 91.0074 7.91359 92.0933 8.78539L91.0838 10.2078C90.1203 9.48895 89.1567 9.10659 88.1778 9.10659C87.0766 9.10659 86.4342 9.67249 86.4342 10.3761V10.4066C86.4342 11.2326 86.9237 11.5996 88.9732 12.0891C91.2368 12.6397 92.4145 13.4503 92.4145 15.2245V15.2551C92.4145 17.2587 90.8391 18.4517 88.5908 18.4517ZM97.6551 18.2988V7.5924H105.593V9.27483H99.5364V12.0585H104.905V13.7409H99.5364V16.6163H105.67V18.2988H97.6551ZM110.93 18.2988V7.5924H115.702C117.048 7.5924 118.103 7.99007 118.791 8.66304C119.357 9.24424 119.679 10.0396 119.679 10.9725V11.0031C119.679 12.762 118.623 13.8174 117.124 14.2456L120.015 18.2988H117.797L115.167 14.5668H112.811V18.2988H110.93ZM112.811 12.8997H115.564C116.91 12.8997 117.767 12.1961 117.767 11.1102V11.0796C117.767 9.9325 116.941 9.30542 115.549 9.30542H112.811V12.8997ZM125.011 18.2988V7.5924H127.015L130.272 12.655L133.53 7.5924H135.534V18.2988H133.652V10.6208L130.272 15.668H130.211L126.862 10.6514V18.2988H125.011ZM140.4 18.2988L145.111 7.51593H146.855L151.565 18.2988H149.577L148.491 15.7139H143.429L142.327 18.2988H140.4ZM144.117 14.0468H147.803L145.952 9.76426L144.117 14.0468ZM156.43 18.2988V7.5924H158.173L163.909 14.9951V7.5924H165.76V18.2988H164.184L158.28 10.6819V18.2988H156.43Z" fill="#202020" fill-opacity="0.35"/>
</g>
<defs>
<filter id="filter0_i_2281_1840" x="0" y="0" width="167.15" height="27.8125" filterUnits="userSpaceOnUse" color-interpolation-filters="sRGB">
<feFlood flood-opacity="0" result="BackgroundImageFix"/>
<feBlend mode="normal" in="SourceGraphic" in2="BackgroundImageFix" result="shape"/>
<feColorMatrix in="SourceAlpha" type="matrix" values="0 0 0 0 0 0 0 0 0 0 0 0 0 0 0 0 0 0 127 0" result="hardAlpha"/>
<feOffset dy="0.6"/>
<feGaussianBlur stdDeviation="0.25"/>
<feComposite in2="hardAlpha" operator="arithmetic" k2="-1" k3="1"/>
<feColorMatrix type="matrix" values="0 0 0 0 0 0 0 0 0 0 0 0 0 0 0 0 0 0 0.3 0"/>
<feBlend mode="normal" in2="shape" result="effect1_innerShadow_2281_1840"/>
</filter>
<clipPath id="clip0_2281_1840">
<rect width="167.15" height="27.3121" fill="white"/>
</clipPath>
</defs>
</svg>
