<svg width="111" height="28" viewBox="0 0 111 28" fill="none" xmlns="http://www.w3.org/2000/svg">
<g clip-path="url(#clip0_2281_1832)" filter="url(#filter0_ii_2281_1832)">
<path d="M110.245 9.94589V8.39283C110.245 8.14434 109.996 7.89585 109.748 7.89585H104.289V4.91397C104.289 4.66548 104.041 4.41699 103.792 4.41699H101.745C101.435 4.41699 101.249 4.66548 101.249 4.91397V7.89585H98.0227C97.7125 7.89585 97.5264 8.14434 97.5264 8.39283V9.94589C97.5264 10.1944 97.7745 10.4429 98.0227 10.4429H101.249V15.0399C101.249 18.5809 102.924 20.1961 106.46 20.1961H109.376C109.686 20.1961 109.872 19.9476 109.872 19.6991V18.1461C109.872 17.8976 109.624 17.6491 109.376 17.6491H106.956C105.033 17.6491 104.351 16.9036 104.351 14.9778V10.3807H109.81C109.996 10.3807 110.245 10.1944 110.245 9.94589Z" fill="#202020" fill-opacity="0.35"/>
<path d="M93.8672 3.1748H91.0754C90.7652 3.1748 90.5791 3.42329 90.5791 3.67178V5.6597C90.5791 5.90819 90.8273 6.15668 91.0754 6.15668H93.8672C94.1774 6.15668 94.3636 5.90819 94.3636 5.6597V3.67178C94.3636 3.36117 94.1154 3.1748 93.8672 3.1748Z" fill="#202020" fill-opacity="0.35"/>
<path d="M94.2407 17.7099V8.39151C94.2407 8.14302 93.9925 7.89453 93.7443 7.89453H87.4162C87.106 7.89453 86.9199 8.14302 86.9199 8.39151V9.94457C86.9199 10.1931 87.1681 10.4416 87.4162 10.4416H91.1386V17.7099H87.4162C87.106 17.7099 86.9199 17.9584 86.9199 18.2069V19.7599C86.9199 20.0084 87.1681 20.2569 87.4162 20.2569H98.0872C98.3974 20.2569 98.5835 20.0084 98.5835 19.7599V18.2069C98.5835 17.9584 98.3353 17.7099 98.0872 17.7099H94.2407Z" fill="#202020" fill-opacity="0.35"/>
<path d="M84.5587 17.7115H81.3326V3.67178C81.3326 3.42329 81.0845 3.1748 80.8363 3.1748H74.5703C74.2601 3.1748 74.0739 3.42329 74.0739 3.67178V5.22485C74.0739 5.47334 74.3221 5.72182 74.5703 5.72182H78.2927V17.7115H74.136C73.8258 17.7115 73.6396 17.9599 73.6396 18.2084V19.7615C73.6396 20.01 73.8878 20.2585 74.136 20.2585H84.5587C84.8689 20.2585 85.0551 20.01 85.0551 19.7615V18.2084C85.0551 17.8978 84.8689 17.7115 84.5587 17.7115Z" fill="#202020" fill-opacity="0.35"/>
<path d="M67.5631 7.64648C66.5084 7.64648 65.7018 7.89497 65.1435 8.45408L64.399 9.13742H63.7166L63.4684 8.20559C63.4064 8.01922 63.2202 7.83285 62.9721 7.83285H61.5451C61.2349 7.83285 61.0488 8.08134 61.0488 8.32983V24.4195C61.0488 24.668 61.297 24.9165 61.5451 24.9165H63.5925C63.9027 24.9165 64.0888 24.668 64.0888 24.4195V20.9407L63.8406 19.077L64.5231 18.8906L65.2676 19.574C65.8259 20.1331 66.5704 20.3816 67.6251 20.3816C70.6651 20.3816 72.5263 18.2694 72.5263 13.983C72.4642 9.75865 70.6651 7.64648 67.5631 7.64648ZM66.5084 17.8967C64.9574 17.8967 64.0888 17.0891 64.0888 15.5982V12.6163C64.0888 11.1253 64.9574 10.3178 66.5084 10.3178C68.4316 10.3178 69.2381 11.4981 69.2381 14.1072C69.3002 16.6542 68.4316 17.8967 66.5084 17.8967Z" fill="#202020" fill-opacity="0.35"/>
<path d="M52.2997 7.64648C48.3291 7.64648 46.2197 9.75865 46.2197 14.0451C46.2197 18.3315 48.3291 20.4437 52.1756 20.4437C55.1535 20.4437 57.1388 19.2013 57.6351 17.027C57.6972 16.7164 57.449 16.4679 57.1388 16.4679H55.2776C55.0915 16.4679 54.9054 16.5921 54.7813 16.7785C54.4711 17.7103 53.5405 18.1452 52.2376 18.1452C50.2523 18.1452 49.3217 17.0891 49.1977 14.5421H57.7592C58.3176 9.82077 56.3943 7.64648 52.2997 7.64648ZM49.3838 12.6163C49.694 10.7526 50.6246 9.88289 52.2997 9.88289C54.0988 9.88289 54.9674 10.8147 54.9674 12.6163H49.3838Z" fill="#202020" fill-opacity="0.35"/>
<path d="M40.1392 8.45408L39.4568 9.13742H38.7743L38.5262 8.26771C38.4641 8.01922 38.278 7.89497 38.0299 7.89497H33.5009C33.1907 7.89497 33.0046 8.14346 33.0046 8.39195V9.94501C33.0046 10.1935 33.2528 10.442 33.5009 10.442H36.1686V17.7103H33.0666C32.7564 17.7103 32.5703 17.9588 32.5703 18.2073V19.7604C32.5703 20.0089 32.8185 20.2573 33.0666 20.2573H42.807C43.1172 20.2573 43.3033 20.0089 43.3033 19.7604V18.2073C43.3033 17.9588 43.0551 17.7103 42.807 17.7103H39.2086V12.5542C39.2086 11.1253 40.0772 10.3799 41.6902 10.3799H44.358C44.6682 10.3799 44.8543 10.1314 44.8543 9.88289V8.14346C44.8543 7.89497 44.6061 7.64648 44.358 7.64648H42.7449C41.6902 7.64648 40.7596 7.89497 40.1392 8.45408Z" fill="#202020" fill-opacity="0.35"/>
<path d="M0 2.61518C0 1.74547 0.744483 1 1.61305 1H9.18195C10.0505 1 10.795 1.74547 10.795 2.61518V9.69714H1.61305C0.744483 9.69714 0 8.95167 0 8.08196V2.61518Z" fill="#202020" fill-opacity="0.35"/>
<path d="M10.8574 9.69727H20.1014C20.97 9.69727 21.7145 10.4427 21.7145 11.3124V16.7792C21.7145 17.6489 20.97 18.3944 20.1014 18.3944H10.8574V9.69727Z" fill="#202020" fill-opacity="0.35"/>
<path d="M0 20.0097C0 19.14 0.744483 18.3945 1.61305 18.3945H10.857V25.4765C10.857 26.3462 10.1126 27.0917 9.24399 27.0917H1.61305C0.744483 27.0917 0 26.3462 0 25.4765V20.0097Z" fill="#202020" fill-opacity="0.35"/>
</g>
<defs>
<filter id="filter0_ii_2281_1832" x="0" y="1" width="110.245" height="26.5918" filterUnits="userSpaceOnUse" color-interpolation-filters="sRGB">
<feFlood flood-opacity="0" result="BackgroundImageFix"/>
<feBlend mode="normal" in="SourceGraphic" in2="BackgroundImageFix" result="shape"/>
<feColorMatrix in="SourceAlpha" type="matrix" values="0 0 0 0 0 0 0 0 0 0 0 0 0 0 0 0 0 0 127 0" result="hardAlpha"/>
<feOffset dy="0.6"/>
<feGaussianBlur stdDeviation="0.25"/>
<feComposite in2="hardAlpha" operator="arithmetic" k2="-1" k3="1"/>
<feColorMatrix type="matrix" values="0 0 0 0 0 0 0 0 0 0 0 0 0 0 0 0 0 0 0.3 0"/>
<feBlend mode="normal" in2="shape" result="effect1_innerShadow_2281_1832"/>
<feColorMatrix in="SourceAlpha" type="matrix" values="0 0 0 0 0 0 0 0 0 0 0 0 0 0 0 0 0 0 127 0" result="hardAlpha"/>
<feOffset dy="0.6"/>
<feGaussianBlur stdDeviation="0.25"/>
<feComposite in2="hardAlpha" operator="arithmetic" k2="-1" k3="1"/>
<feColorMatrix type="matrix" values="0 0 0 0 0 0 0 0 0 0 0 0 0 0 0 0 0 0 0.3 0"/>
<feBlend mode="normal" in2="effect1_innerShadow_2281_1832" result="effect2_innerShadow_2281_1832"/>
</filter>
<clipPath id="clip0_2281_1832">
<rect width="110.245" height="26.0914" fill="white" transform="translate(0 1)"/>
</clipPath>
</defs>
</svg>
