<svg width="84" height="28" viewBox="0 0 84 28" fill="none" xmlns="http://www.w3.org/2000/svg">
<g filter="url(#filter0_i_2281_1833)">
<path d="M43.899 3H39.488V24.5542H43.899V3Z" fill="#202020" fill-opacity="0.35"/>
<path d="M1 3.04318H5.67047V12.6995L14.406 3.04318H20.0711L12.0707 11.8804L20.59 24.5543H15.0114L8.78411 15.4584L5.67047 18.864V24.5543H1V3.04318Z" fill="#202020" fill-opacity="0.35"/>
<path d="M37.8014 24.3388H35.5959C33.6066 24.3388 32.612 23.4766 32.6552 21.7523C32.0498 22.6576 31.3579 23.3473 30.493 23.8215C29.6281 24.2957 28.6334 24.5543 27.3793 24.5543C25.6063 24.5543 24.1359 24.1664 23.0548 23.3473C21.9737 22.5282 21.4115 21.3643 21.4115 19.8986C21.4115 18.2174 22.0602 16.9242 23.271 16.0189C24.5251 15.1136 26.3847 14.6394 28.7632 14.6394H31.9633V13.8635C31.9633 13.1306 31.7038 12.5702 31.1416 12.1822C30.5794 11.7511 29.8875 11.5356 28.9361 11.5356C28.1145 11.5356 27.4658 11.708 26.9469 12.0529C26.4279 12.3978 26.1252 12.872 26.0387 13.4755H21.7574C21.8872 11.8805 22.6223 10.6303 23.9629 9.72505C25.2603 8.81977 26.9901 8.34558 29.1956 8.34558C31.4443 8.34558 33.2174 8.81977 34.4283 9.81126C35.6824 10.8028 36.2878 12.2253 36.2878 14.079V19.64C36.2878 20.028 36.3743 20.2866 36.5473 20.459C36.7202 20.5884 36.9797 20.6746 37.3257 20.6746H37.8014V24.3388ZM28.7199 17.4846C27.8118 17.4846 27.0766 17.657 26.5577 18.045C26.082 18.3898 25.8225 18.9071 25.8225 19.5538C25.8225 20.1142 26.0387 20.5453 26.4712 20.8901C26.9036 21.235 27.4658 21.3643 28.201 21.3643C29.3686 21.3643 30.2335 21.0626 30.9254 20.4159C31.5741 19.7693 31.92 18.9071 31.9633 17.7863V17.4846H28.7199Z" fill="#202020" fill-opacity="0.35"/>
<path d="M49.737 19.0794C49.8235 19.7691 50.1262 20.3295 50.7749 20.7606C51.4236 21.1917 52.202 21.4072 53.1534 21.4072C54.0615 21.4072 54.8399 21.2779 55.3589 20.9761C55.9211 20.6744 56.1805 20.2433 56.1805 19.6829C56.1805 19.2949 56.0508 18.95 55.7913 18.7776C55.5319 18.5621 55.1859 18.4327 54.7102 18.3465C54.2778 18.2172 53.4993 18.131 52.4615 18.0017C51.0344 17.8292 49.8668 17.5706 48.9586 17.2688C48.0505 16.9671 47.272 16.536 46.7099 15.8893C46.1477 15.2427 45.8882 14.4668 45.8882 13.4322C45.8882 12.3976 46.1477 11.4923 46.7099 10.7163C47.3153 9.89727 48.0937 9.29375 49.1316 8.86267C50.1695 8.43159 51.3803 8.21604 52.7209 8.21604C54.9264 8.25915 56.6562 8.69024 57.9968 9.59551C59.3374 10.5008 60.0726 11.7509 60.2023 13.3459H56.0076C55.9211 12.7424 55.6183 12.2682 55.0562 11.8803C54.494 11.4923 53.7588 11.3198 52.8507 11.3198C52.029 11.3198 51.3371 11.4923 50.8181 11.794C50.3425 12.0958 50.083 12.5269 50.083 13.0442C50.083 13.4322 50.2127 13.6908 50.4722 13.8632C50.7317 14.0357 51.1209 14.165 51.5533 14.2512C51.9858 14.3374 52.7209 14.4237 53.7588 14.5099C55.9211 14.7685 57.5644 15.2427 58.6887 15.8893C59.8564 16.536 60.4185 17.6999 60.4185 19.2949C60.4185 20.3295 60.1158 21.2348 59.5104 22.0107C58.905 22.7867 58.0833 23.3902 56.9589 23.8213C55.8778 24.2093 54.6237 24.4679 53.1966 24.4679C50.9911 24.4679 49.1748 23.9937 47.791 23.0022C46.4071 22.0107 45.672 20.6744 45.5855 18.9931H49.737V19.0794Z" fill="#202020" fill-opacity="0.35"/>
<path d="M75.944 10.2422C74.7332 9.12139 73.1763 8.51788 71.2736 8.51788C69.3275 8.51788 67.7275 9.25072 66.5166 10.6733V3H62.1056V24.5542H66.5166V16.4498C66.5166 15.0704 66.8193 14.0358 67.4248 13.2598C68.0734 12.4839 68.9383 12.139 70.0627 12.139C71.1438 12.139 71.9655 12.4839 72.4844 13.1736C73.0466 13.8633 73.3061 14.8117 73.3061 16.1481V24.5542H77.7171V15.9756C77.8036 13.3029 77.1981 11.4061 75.944 10.2422Z" fill="#202020" fill-opacity="0.35"/>
<path d="M79.49 8.69032H83.9009V24.5111H79.49V8.69032Z" fill="#202020" fill-opacity="0.35"/>
<path d="M83.2092 3.64663C82.82 3.21554 82.301 3 81.6523 3C81.0469 3 80.4847 3.21554 80.0523 3.64663C79.6631 4.0346 79.4036 4.5519 79.4036 5.15542C79.4036 5.75894 79.6198 6.27624 80.0523 6.66422C80.4847 7.05219 81.0037 7.31084 81.6523 7.31084C82.2578 7.31084 82.82 7.0953 83.2092 6.66422C83.5984 6.23313 83.8578 5.75894 83.8578 5.15542C83.8578 4.5519 83.6416 3.99149 83.2092 3.64663Z" fill="#202020" fill-opacity="0.35"/>
</g>
<defs>
<filter id="filter0_i_2281_1833" x="1" y="3" width="82.9014" height="21.907" filterUnits="userSpaceOnUse" color-interpolation-filters="sRGB">
<feFlood flood-opacity="0" result="BackgroundImageFix"/>
<feBlend mode="normal" in="SourceGraphic" in2="BackgroundImageFix" result="shape"/>
<feColorMatrix in="SourceAlpha" type="matrix" values="0 0 0 0 0 0 0 0 0 0 0 0 0 0 0 0 0 0 127 0" result="hardAlpha"/>
<feOffset dy="0.422752"/>
<feGaussianBlur stdDeviation="0.176147"/>
<feComposite in2="hardAlpha" operator="arithmetic" k2="-1" k3="1"/>
<feColorMatrix type="matrix" values="0 0 0 0 0 0 0 0 0 0 0 0 0 0 0 0 0 0 0.3 0"/>
<feBlend mode="normal" in2="shape" result="effect1_innerShadow_2281_1833"/>
</filter>
</defs>
</svg>
