<svg width="122" height="28" viewBox="0 0 122 28" fill="none" xmlns="http://www.w3.org/2000/svg">
<g filter="url(#filter0_i_2281_1834)">
<path d="M31.1285 7.13375C31.1285 2.31707 26.0131 0 19.9352 0C13.4331 0 7.46822 2.87611 5.27769 7.336C4.67409 8.52398 4.36025 9.83796 4.36185 11.1705C4.33445 12.3226 4.65349 13.4564 5.27769 14.4252C6.21634 15.8077 7.89139 16.6779 10.3495 16.6779C13.3646 16.6779 15.7553 15.0278 15.7553 12.1506C15.7553 12.1506 15.7999 11.3489 14.8613 11.3489C14.101 11.3489 13.8998 11.8841 13.9226 12.1506C14.0346 14.4034 12.6936 16.2091 10.3028 16.2091C7.62276 16.2091 6.50468 13.9346 6.50468 11.5044C6.50468 6.53219 10.2593 3.2329 14.1684 1.8047C16.0011 1.11394 17.923 0.778925 19.8875 0.801744C24.3121 0.801744 27.9308 2.4965 27.9308 7.04559C27.9308 10.8365 24.7363 14.0694 20.9143 14.3588L21.0709 13.8464C21.8529 11.0595 22.8134 8.00499 24.3774 5.75326C24.4666 5.61843 24.6233 5.39543 24.8027 5.17244L24.5787 4.90484C24.2449 5.10719 23.9241 5.33028 23.6182 5.57279C16.2905 11.2804 16.0675 27.336 6.30346 27.336C5.9688 27.336 5.63344 27.3136 5.29739 27.2686C3.26451 26.9336 2.19206 25.5739 2.19206 23.68C2.19206 23.3003 2.32586 22.788 2.32586 22.4976C2.32959 22.3683 2.30757 22.2396 2.26108 22.119C2.2146 21.9983 2.14459 21.8881 2.05511 21.7948C1.96563 21.7015 1.85849 21.6268 1.7399 21.5753C1.62132 21.5238 1.49367 21.4963 1.36439 21.4946H1.25341C0.382176 21.4946 0.024347 22.1843 0.00152896 23.1665C-0.0648509 25.9981 2.03545 27.6472 5.27457 27.9604C5.6324 27.9822 5.99023 28.004 6.36984 28.004C13.989 28.004 18.6574 22.2518 20.6467 15.2725C21.6541 15.1563 22.6488 14.948 23.6182 14.6502C27.1529 13.667 31.1285 11.3032 31.1285 7.13375ZM103.699 8.80362H101.019L100.414 10.209L99.3648 12.5738H98.114L97.7344 13.3766H99.0298L97.4658 16.8325C96.3487 19.2615 94.6052 21.6481 93.6002 21.6481C93.3772 21.6481 93.2434 21.5589 93.2434 21.337C93.2434 21.1119 93.3098 20.9117 93.5566 20.2873C93.8688 19.552 94.3843 18.4816 94.7639 17.7006C95.3219 16.5638 96.2159 14.8027 96.2159 13.9325C96.2159 13.0623 95.6559 12.3715 94.5616 12.3715C93.3326 12.3715 92.2155 13.1079 91.1887 14.1762L91.8598 12.5717H89.3332L87.2785 17.2536C86.4519 18.9037 84.7758 21.646 83.7262 21.646C83.5032 21.646 83.4129 21.5122 83.4129 21.2892C83.4358 21.0891 83.4804 20.9107 83.5696 20.7084C83.6588 20.5072 84.8878 17.6321 84.8878 17.6321L87.1219 12.5261H84.3962L82.2285 17.4994C81.5585 19.0375 79.8595 21.6481 78.7643 21.6481C78.7188 21.6525 78.6728 21.648 78.6291 21.6346C78.5854 21.6212 78.5447 21.5994 78.5095 21.5703C78.4742 21.5412 78.445 21.5054 78.4236 21.465C78.4022 21.4246 78.389 21.3804 78.3847 21.3349V21.2457C78.3847 20.9791 78.5859 20.4885 78.7415 20.1297L79.8824 17.6321L82.2285 12.5261H79.5256L78.9893 13.6856C78.5869 14.4666 77.9169 15.3804 76.8444 15.3804C76.33 15.3804 76.0852 15.1802 75.9732 14.979C75.8166 13.2614 74.7213 12.3477 73.1127 12.3477C70.8786 12.3477 69.2917 13.6628 68.241 15.2694C67.5528 16.3759 67.0123 17.5678 66.6334 18.8145C65.6719 20.3983 64.6679 21.6253 63.8631 21.6253C63.6608 21.6253 63.527 21.5122 63.527 21.2457C63.527 20.9791 63.7967 20.3765 63.8859 20.1525L65.6501 16.4083C66.1417 15.2497 66.4768 14.4895 66.4768 13.7323C66.4768 12.9295 65.9167 12.3508 65.0019 12.3508C63.7282 12.3508 62.3425 13.0872 61.2473 14.2903C61.2929 14.0891 61.2929 13.9118 61.2929 13.7095C61.2929 12.8186 60.8469 12.3508 59.929 12.3508C58.7674 12.3508 57.5622 13.0426 56.4669 14.2903L57.1825 12.5499H54.7223L52.6449 17.2339C51.6616 19.442 50.0747 21.6274 49.1807 21.6274C48.9805 21.6274 48.8467 21.5154 48.8467 21.2478C48.8467 20.8256 49.3155 19.777 49.4949 19.3539L52.2435 13.1339C52.4447 12.6651 51.1264 12.3746 49.4503 12.3746C47.7307 12.3746 45.9654 13.222 44.6689 14.3142C43.7541 15.0713 43.082 15.4509 42.747 15.4509C42.5697 15.4509 42.5012 15.3617 42.5012 15.2508C42.5012 14.8722 43.417 13.8008 43.417 12.9762C43.417 12.5976 43.2169 12.3518 42.7014 12.3518C41.7192 12.3518 40.5575 13.2884 39.7081 14.2685L40.4237 12.552H38.0102L35.9327 17.2349C34.9505 19.4431 33.318 21.7394 32.425 21.7394C32.2227 21.7394 32.0889 21.6284 32.0889 21.3598C32.0889 20.9376 32.5349 19.9119 32.7817 19.3746L35.5303 13.1318C35.7315 12.664 34.4132 12.3726 32.7382 12.3726C30.2572 12.3726 27.8447 14.0466 26.57 15.7621C25.1626 17.6124 24.2022 19.5737 24.1804 21.1803C24.1576 22.4727 24.8286 23.2755 26.1676 23.2755C27.6653 23.2755 28.8716 22.0941 29.5634 21.2032C29.5243 21.3795 29.4946 21.5578 29.4742 21.7373C29.4742 22.6293 29.831 23.2765 30.9262 23.2765C31.8856 23.2765 33.1603 22.4727 34.1882 21.2021L33.3615 23.0991H35.9752L38.5454 17.2805C39.3948 15.3846 40.3553 14.4034 40.6229 14.4034C40.7131 14.4034 40.7577 14.449 40.7577 14.5144C40.7577 14.7156 40.3553 15.2508 40.3553 15.7403C40.3553 16.2319 40.6229 16.6105 41.3385 16.6105C41.8965 16.6105 42.5209 16.3419 43.081 15.9861C41.7617 17.7701 40.8676 19.6432 40.8676 21.1824C40.8448 22.4758 41.5159 23.2786 42.857 23.2786C44.2644 23.2786 45.5827 21.9406 46.2973 21.0486C46.2698 21.256 46.2549 21.4649 46.2527 21.674C46.2527 22.5432 46.7443 23.2786 47.7504 23.2786C48.8664 23.2786 49.7605 22.5878 50.8785 21.2281L50.0519 23.1012H52.733L55.1912 17.5502C56.2626 15.1419 57.7146 13.8485 58.4292 13.8485C58.4718 13.8439 58.5149 13.8478 58.556 13.8599C58.5971 13.872 58.6354 13.8922 58.6686 13.9192C58.7019 13.9462 58.7295 13.9795 58.7498 14.0172C58.7701 14.0549 58.7828 14.0963 58.7871 14.1389V14.2063C58.7575 14.4772 58.6817 14.741 58.563 14.9863L55.0335 23.1251H57.782L60.2837 17.462C61.3562 15.0309 62.5406 13.8485 63.4337 13.8485C63.7033 13.8485 63.8133 13.9833 63.8133 14.2717C63.7903 14.5822 63.7068 14.8852 63.5675 15.1636L61.1539 20.2915C60.9322 20.7852 60.7961 21.3131 60.7515 21.8524C60.7515 22.6334 61.1767 23.3252 62.383 23.3252C63.9471 23.3252 65.1305 22.1428 66.4716 20.3807V20.7603C66.5836 22.1646 67.3636 23.3906 69.4431 23.3906C71.9012 23.3906 73.8905 21.6969 75.0958 18.9991C75.5438 18.0397 75.855 17.0358 75.967 15.9872C76.2367 16.122 76.5478 16.1884 76.8393 16.1666C77.2417 16.1666 77.6431 16.0764 78.0009 15.8762L77.5757 16.791C77.084 17.8168 76.5488 18.9535 76.1236 19.9129C75.8574 20.4804 75.6984 21.0923 75.6548 21.7176C75.6548 22.677 76.191 23.3688 77.2863 23.3688C78.3805 23.3688 79.8792 22.342 80.9507 20.893H80.9735C80.9024 21.1925 80.8648 21.499 80.8615 21.8068C80.8615 22.6106 81.1073 23.3688 82.2243 23.3688C83.5208 23.3688 84.5258 22.4322 85.5081 21.2498L84.6825 23.123H87.3854L89.5531 18.2171C90.7811 15.452 92.0102 13.779 93.15 13.779C93.3523 13.779 93.5068 13.9128 93.5296 14.114V14.1804C93.5296 14.6492 92.8586 15.9208 92.257 17.1913C91.698 18.3499 91.2727 19.2418 90.9834 19.9336C90.7137 20.5134 90.5581 21.1368 90.5135 21.785C90.5135 22.6314 90.9834 23.2786 92.034 23.2786C93.5981 23.2786 95.1839 21.7632 96.0324 20.6254C95.8416 21.1706 95.7363 21.7419 95.7202 22.3192C95.7202 23.8812 96.6578 24.6611 97.976 24.6611C98.8473 24.6611 99.6978 24.3707 100.412 23.8584C101.44 23.1437 102.267 22.0744 102.96 21.0932L102.49 20.6472C101.842 21.56 101.128 22.4312 100.39 22.9653C100.001 23.2931 99.5132 23.4814 99.0049 23.5005C98.4449 23.5005 98.0891 23.2101 98.0891 22.4965C98.0891 21.7829 98.4241 20.8236 98.9375 19.5302C98.9603 19.5094 99.6967 17.8593 100.39 16.2755C100.97 14.9375 101.551 13.6442 101.662 13.3766H103.427L103.785 12.5727H102.043L103.699 8.80362ZM27.4869 21.6699C27.1073 21.6699 26.8387 21.5361 26.8387 21.0455C26.8615 19.7304 27.9547 17.3884 29.3186 15.5152C30.279 14.2219 31.5299 13.2625 32.8709 13.2625L31.1731 17.0534C29.9004 19.9088 28.5158 21.6699 27.4869 21.6699ZM44.2001 21.6689C43.8205 21.6689 43.5529 21.5351 43.5301 21.0445C43.5519 19.7293 44.6471 17.3874 46.011 15.5142C46.9704 14.2208 48.2223 13.2614 49.5624 13.2614L47.8645 17.0523C46.569 19.9741 45.2508 21.6689 44.2001 21.6689ZM73.8708 14.2883C73.8045 15.7372 72.5298 19.2377 71.0341 21.3338C70.4315 22.1812 69.9161 22.427 69.4701 22.427C68.8446 22.427 68.6652 21.9136 68.7544 21.1554C68.8893 19.8403 69.9835 16.763 71.503 14.644C72.1948 13.6846 72.6646 13.2832 73.2019 13.2832C73.7371 13.2832 73.8937 13.7302 73.8708 14.2883ZM115.572 12.5748L118.031 6.90454H115.119L112.659 12.5748H106.467L105.437 14.9541H111.627L109.167 20.6244H112.081L114.54 14.9531H120.73L121.762 12.5748H115.572Z" fill="#202020" fill-opacity="0.35"/>
</g>
<defs>
<filter id="filter0_i_2281_1834" x="0" y="0" width="121.762" height="28.4119" filterUnits="userSpaceOnUse" color-interpolation-filters="sRGB">
<feFlood flood-opacity="0" result="BackgroundImageFix"/>
<feBlend mode="normal" in="SourceGraphic" in2="BackgroundImageFix" result="shape"/>
<feColorMatrix in="SourceAlpha" type="matrix" values="0 0 0 0 0 0 0 0 0 0 0 0 0 0 0 0 0 0 127 0" result="hardAlpha"/>
<feOffset dy="0.489551"/>
<feGaussianBlur stdDeviation="0.20398"/>
<feComposite in2="hardAlpha" operator="arithmetic" k2="-1" k3="1"/>
<feColorMatrix type="matrix" values="0 0 0 0 0 0 0 0 0 0 0 0 0 0 0 0 0 0 0.3 0"/>
<feBlend mode="normal" in2="shape" result="effect1_innerShadow_2281_1834"/>
</filter>
</defs>
</svg>
