<svg width="80" height="28" viewBox="0 0 80 28" fill="none" xmlns="http://www.w3.org/2000/svg">
<g filter="url(#filter0_i_2281_1835)">
<path d="M17.4499 6.44208C17.4499 5.91452 17.6395 5.47136 18.0189 5.09151C18.3982 4.71167 18.8514 4.52174 19.3888 4.52174C19.9262 4.52174 20.3898 4.71167 20.7692 5.09151C21.1485 5.46081 21.3382 5.92507 21.3382 6.46319C21.3382 7.0013 21.1485 7.46556 20.7692 7.84541C20.4004 8.22526 19.9367 8.41518 19.3993 8.41518C18.8619 8.41518 18.3982 8.22526 18.0189 7.84541C17.6395 7.45501 17.4499 6.99075 17.4499 6.44208ZM20.8851 11.8233V24.7697H17.903V11.8233H20.8851Z" fill="#202020" fill-opacity="0.35"/>
<path d="M46.7549 15.9066C43.3091 11.6123 40.896 5.41863 40.0741 2H43.6253C44.1416 4.84886 45.8171 9.81853 48.3144 12.4458C50.7697 9.78687 52.3924 4.8172 53.0142 2H56.5758C55.8804 6.10446 53.4778 12.2137 49.8634 15.9066V24.7698H46.776V15.9066H46.7549Z" fill="#202020" fill-opacity="0.35"/>
<path d="M66.6603 11.8234V24.7699H63.6572V23.4193C62.4243 24.5694 61.1071 25.1497 59.6845 25.1497C57.8932 25.1497 56.4179 24.5061 55.2483 23.2083C54.0891 21.8894 53.5096 20.2434 53.5096 18.2597C53.5096 16.3183 54.0891 14.7039 55.2483 13.4061C56.4074 12.1083 57.8615 11.4647 59.6002 11.4647C61.1071 11.4647 62.4559 12.0872 63.6466 13.3217V11.8234H66.6603ZM56.5654 18.2492C56.5654 19.4942 56.8921 20.4966 57.556 21.2774C58.2409 22.0687 59.0944 22.4591 60.1271 22.4591C61.2335 22.4591 62.1292 22.0793 62.8036 21.3196C63.4886 20.5282 63.8258 19.5259 63.8258 18.3125C63.8258 17.0991 63.4886 16.0967 62.8036 15.3053C62.1187 14.5351 61.2335 14.1447 60.1482 14.1447C59.126 14.1447 58.262 14.5351 57.577 15.3159C56.9132 16.1178 56.5654 17.0885 56.5654 18.2492Z" fill="#202020" fill-opacity="0.35"/>
<path d="M71.1703 2.31661V16.0017C72.751 14.6722 74.1735 12.7413 75.3748 11.2852H79.379C78.0197 12.7624 76.2178 15.2525 73.7626 17.2573C75.7963 19.4731 77.7984 22.0159 79.79 24.7698H75.9122C74.6688 22.8178 73.2568 20.9925 71.634 19.3042L71.1598 19.7791V24.7593H68.1777V2.31661H71.1703Z" fill="#202020" fill-opacity="0.35"/>
<path d="M6.6913 15.9066C3.24554 11.6123 0.821924 5.41863 0 2H3.56167C4.07801 4.84886 5.75347 9.81853 8.25085 12.4458C10.7061 9.78687 12.3289 4.8172 12.9506 2H16.5122C15.8168 6.10446 13.4142 12.2137 9.79986 15.9066V24.7698H6.6913V15.9066Z" fill="#202020" fill-opacity="0.35"/>
<path d="M25.5218 2.15818V15.8432C27.1025 14.5138 28.7463 12.7517 29.7263 11.1268H33.7305C32.6136 12.7834 30.5798 15.0835 28.1141 17.0988C30.1478 19.3146 32.1499 21.8575 34.1415 24.6114H30.2637C29.0203 22.6594 27.6083 20.834 25.9855 19.1458L25.5113 19.6206V24.6008H22.5292V2.15818H25.5218Z" fill="#202020" fill-opacity="0.35"/>
</g>
<defs>
<filter id="filter0_i_2281_1835" x="0" y="2" width="79.79" height="23.7299" filterUnits="userSpaceOnUse" color-interpolation-filters="sRGB">
<feFlood flood-opacity="0" result="BackgroundImageFix"/>
<feBlend mode="normal" in="SourceGraphic" in2="BackgroundImageFix" result="shape"/>
<feColorMatrix in="SourceAlpha" type="matrix" values="0 0 0 0 0 0 0 0 0 0 0 0 0 0 0 0 0 0 127 0" result="hardAlpha"/>
<feOffset dy="0.696597"/>
<feGaussianBlur stdDeviation="0.290249"/>
<feComposite in2="hardAlpha" operator="arithmetic" k2="-1" k3="1"/>
<feColorMatrix type="matrix" values="0 0 0 0 0 0 0 0 0 0 0 0 0 0 0 0 0 0 0.3 0"/>
<feBlend mode="normal" in2="shape" result="effect1_innerShadow_2281_1835"/>
</filter>
</defs>
</svg>
