<svg width="84" height="28" viewBox="0 0 84 28" fill="none" xmlns="http://www.w3.org/2000/svg">
<g filter="url(#filter0_i_2281_1836)">
<path d="M65.0518 19.6743C64.536 20.2734 64.0679 20.8563 63.5641 21.4028C62.4153 22.6536 61.2501 23.8842 59.6133 24.5237C57.7348 25.2565 55.3603 24.1433 54.6507 22.261C54.0339 20.6297 54.2477 19.0388 54.8765 17.533C55.7191 15.5131 56.743 13.5741 57.6906 11.5987C57.8356 11.2951 57.989 10.9956 58.0893 10.6798C58.1461 10.5058 58.1744 10.1819 58.0893 10.1334C57.9281 10.0403 57.6544 10.02 57.4768 10.0929C56.9647 10.3074 56.4367 10.522 55.9891 10.8418C51.6637 13.9304 47.7896 17.4965 44.5764 21.7671C43.9676 22.5808 43.242 23.3377 42.4519 23.9692C41.7101 24.5642 40.932 24.4671 40.283 23.9651C39.775 23.5725 39.5775 22.7548 39.8718 21.9209C40.408 20.403 41.0087 18.9052 41.5408 17.3873C41.9036 16.355 42.2503 15.3066 42.5002 14.242C42.726 13.2908 42.3027 12.9103 41.4763 13.3677C40.279 14.0315 39.0292 14.7156 38.0658 15.6588C35.8404 17.8487 33.7804 20.2006 31.6438 22.4795C31.1439 23.0139 30.6601 23.5766 30.0796 24.0097C29.1645 24.6938 28.0841 24.3011 27.6366 23.2325C27.2173 22.2286 27.4551 21.2975 27.8745 20.3746C28.6565 18.6705 29.491 16.9865 30.2167 15.2581C30.523 14.5254 30.6763 13.7077 30.7851 12.9103C30.9624 11.6352 30.4021 10.8215 29.1443 10.5625C28.1687 10.3641 27.1609 10.3115 26.1651 10.1941C25.7136 10.1415 25.4677 10.3358 25.3306 10.773C23.839 15.5617 20.8155 19.3019 17.1833 22.597C15.8852 23.7749 14.3774 24.6209 12.6358 25.0257C9.9953 25.641 6.2461 23.7749 7.22171 19.5489C7.93928 16.436 9.79773 14.1165 12.277 12.21C14.9741 10.1374 17.8968 8.51423 21.1259 7.44958C21.1904 7.42936 21.2549 7.40913 21.3154 7.37672C21.5693 7.24314 21.8193 7.10955 22.0692 6.97601C21.8475 6.7412 21.6661 6.37285 21.4 6.29595C20.7429 6.11377 20.0415 5.95187 19.3682 5.98423C17.1429 6.09759 15.0909 6.83029 13.172 7.95152C10.1969 9.69214 7.86674 12.1047 5.8591 14.8897C5.32696 15.6264 4.58118 16.27 3.79909 16.7396C2.76706 17.3792 0.944861 16.6505 1.00128 14.8775C1.05371 13.2746 1.91238 12.1007 2.87591 10.9754C4.67389 8.87045 6.92338 7.29577 9.18096 5.74137C11.2611 4.31247 13.5388 3.29641 15.9496 2.6123C18.2112 1.96869 20.5132 1.68533 22.807 2.50304C24.3268 3.04547 25.3226 4.09794 25.6451 5.69683C25.7781 6.35667 26.0039 6.61166 26.7214 6.60357C28.7855 6.57121 30.7609 6.97602 32.5508 8.08511C34.0787 9.0283 34.8285 10.4208 34.9374 12.1897C34.9535 12.4366 34.9535 12.6836 34.9656 12.9305C34.9656 12.971 34.9978 13.0115 35.0704 13.1774C35.5381 12.8212 35.9936 12.4974 36.429 12.1452C37.7876 11.036 39.259 10.1212 40.924 9.55855C42.2221 9.12139 43.5605 8.96353 44.8787 9.41688C45.9955 9.80146 46.451 10.7567 46.6001 11.8578C46.6647 12.3395 46.6123 12.8414 46.6123 13.5336C47.1041 13.1167 47.4707 12.8293 47.8137 12.5135C49.8898 10.607 52.0908 8.87045 54.5944 7.55081C55.852 6.88692 57.1664 6.39712 58.6057 6.38094C60.5525 6.36072 61.8306 7.62772 61.9357 9.57478C62.0323 11.4206 61.3589 13.0317 60.5646 14.6387C59.8434 16.1001 59.1899 17.5978 58.549 19.0955C58.3877 19.476 58.3394 19.9213 58.3236 20.3423C58.2989 20.9373 58.6057 21.1518 59.057 20.7956C59.94 20.0953 60.8509 19.3788 61.5527 18.5126C63.7375 15.8086 65.8256 13.0277 67.9584 10.2832C69.8816 7.80984 72.1593 5.78996 75.1504 4.70914C77.0731 4.01693 79.0325 3.74981 80.9472 4.68891C83.3463 5.86283 84.108 7.96775 83.9872 10.4856C83.8942 12.4002 83.2817 14.1813 82.3703 15.8491C80.7739 18.7798 78.6254 21.2206 75.7472 22.9491C73.844 24.0947 71.8163 24.7707 69.5627 24.374C67.6558 24.038 66.3578 22.9208 65.584 21.164C65.3865 20.7187 65.2572 20.241 65.0597 19.6743H65.0518ZM80.476 10.0564C80.476 9.92291 80.4797 9.78528 80.476 9.65169C80.4272 8.38065 79.7301 7.66412 78.4804 7.78153C77.7906 7.8463 77.0652 8.05679 76.4564 8.38874C72.9452 10.3115 70.6149 13.2624 69.3047 17.023C68.9622 18.0107 68.7605 19.0591 69.1556 20.1196C69.3935 20.7592 69.8127 21.0911 70.4862 21.1559C71.4417 21.245 72.2959 20.9454 73.1106 20.5082C75.5533 19.1927 77.3594 17.2051 78.7945 14.8735C79.7017 13.4041 80.3752 11.8173 80.4797 10.0484L80.476 10.0564ZM21.3033 11.3923C21.0251 11.4328 20.8881 11.4247 20.7792 11.4773C18.054 12.72 15.5142 14.2703 13.3131 16.3146C12.3093 17.2456 11.5474 18.379 11.2571 19.7634C11.0636 20.6863 11.5151 21.16 12.4383 20.9737C12.8898 20.8807 13.3454 20.7187 13.7445 20.492C15.3852 19.5691 16.639 18.209 17.8121 16.7679C19.1344 15.1447 20.2834 13.4041 21.3033 11.3923Z" fill="#202020" fill-opacity="0.35"/>
</g>
<defs>
<filter id="filter0_i_2281_1836" x="1" y="2" width="82.999" height="23.3017" filterUnits="userSpaceOnUse" color-interpolation-filters="sRGB">
<feFlood flood-opacity="0" result="BackgroundImageFix"/>
<feBlend mode="normal" in="SourceGraphic" in2="BackgroundImageFix" result="shape"/>
<feColorMatrix in="SourceAlpha" type="matrix" values="0 0 0 0 0 0 0 0 0 0 0 0 0 0 0 0 0 0 127 0" result="hardAlpha"/>
<feOffset dy="0.193231"/>
<feGaussianBlur stdDeviation="0.0805128"/>
<feComposite in2="hardAlpha" operator="arithmetic" k2="-1" k3="1"/>
<feColorMatrix type="matrix" values="0 0 0 0 0 0 0 0 0 0 0 0 0 0 0 0 0 0 0.3 0"/>
<feBlend mode="normal" in2="shape" result="effect1_innerShadow_2281_1836"/>
</filter>
</defs>
</svg>
