<svg width="107" height="28" viewBox="0 0 107 28" fill="none" xmlns="http://www.w3.org/2000/svg">
<g filter="url(#filter0_i_2281_1837)">
<path d="M18.1582 16.4521C18.1582 12.1265 21.9134 8.56138 26.4767 8.56138C31.04 8.56138 34.8428 12.1265 34.8428 16.4521C34.8428 20.8252 31.04 24.3903 26.4767 24.3903C21.9134 24.3903 18.1582 20.8728 18.1582 16.4521ZM22.2462 16.4521C22.2462 18.9714 24.0525 20.7777 26.4292 20.7777C28.8059 20.7777 30.6122 18.8763 30.6122 16.4521C30.6122 14.0278 28.7584 12.174 26.4292 12.174C24.1475 12.174 22.2462 14.0278 22.2462 16.4521Z" fill="#202020" fill-opacity="0.35"/>
<path d="M36.1263 16.4521C36.1263 12.1265 39.8815 8.56138 44.4448 8.56138C49.0081 8.56138 52.8109 12.1265 52.8109 16.4521C52.8109 20.8252 49.0081 24.3903 44.4448 24.3903C39.8815 24.3903 36.1263 20.8728 36.1263 16.4521ZM40.2618 16.4521C40.2618 18.9714 42.0681 20.7777 44.4448 20.7777C46.8215 20.7777 48.6278 18.8763 48.6278 16.4521C48.6278 14.0278 46.774 12.174 44.4448 12.174C42.1156 12.174 40.2618 14.0278 40.2618 16.4521Z" fill="#202020" fill-opacity="0.35"/>
<path d="M72.3 16.4521C72.3 12.1265 76.0552 8.56138 80.6185 8.56138C85.1818 8.56138 88.9845 12.1265 88.9845 16.4521C88.9845 20.8252 85.1818 24.3903 80.6185 24.3903C76.0552 24.3903 72.3 20.8728 72.3 16.4521ZM76.4355 16.4521C76.4355 18.9714 78.2418 20.7777 80.6185 20.7777C82.9952 20.7777 84.8015 18.8763 84.8015 16.4521C84.8015 14.0278 82.9477 12.174 80.6185 12.174C78.2893 12.174 76.4355 14.0278 76.4355 16.4521Z" fill="#202020" fill-opacity="0.35"/>
<path d="M90.3154 16.4521C90.3154 12.1265 94.0707 8.56138 98.634 8.56138C103.197 8.56138 107 12.1265 107 16.4521C107 20.8252 103.197 24.3903 98.634 24.3903C94.0231 24.3903 90.3154 20.8728 90.3154 16.4521ZM94.4034 16.4521C94.4034 18.9714 96.2097 20.7777 98.634 20.7777C101.011 20.7777 102.817 18.8763 102.817 16.4521C102.817 14.0278 100.963 12.174 98.634 12.174C96.2572 12.174 94.4034 14.0278 94.4034 16.4521Z" fill="#202020" fill-opacity="0.35"/>
<path d="M10.5051 17.7832L4.37316 3H0L8.69878 24.0102H12.3114L21.1052 3H16.6845L10.5051 17.7832Z" fill="#202020" fill-opacity="0.35"/>
<path d="M66.6908 3.61797V9.65483C65.4549 8.94181 63.9814 8.56154 62.4603 8.56154C57.897 8.56154 54.1418 12.1266 54.1418 16.4522C54.1418 20.8254 57.897 24.3905 62.4603 24.3905C64.0289 24.3905 65.4549 23.9627 66.6908 23.2972V24.0577H70.8263V3.6655H66.6908V3.61797ZM62.4603 20.7779C60.0836 20.7779 58.2773 18.9716 58.2773 16.4522C58.2773 14.028 60.1311 12.1741 62.4603 12.1741C64.837 12.1741 66.6433 14.028 66.6433 16.4522C66.6908 18.924 64.837 20.7779 62.4603 20.7779Z" fill="#202020" fill-opacity="0.35"/>
</g>
<defs>
<filter id="filter0_i_2281_1837" x="0" y="3" width="107" height="21.9654" filterUnits="userSpaceOnUse" color-interpolation-filters="sRGB">
<feFlood flood-opacity="0" result="BackgroundImageFix"/>
<feBlend mode="normal" in="SourceGraphic" in2="BackgroundImageFix" result="shape"/>
<feColorMatrix in="SourceAlpha" type="matrix" values="0 0 0 0 0 0 0 0 0 0 0 0 0 0 0 0 0 0 127 0" result="hardAlpha"/>
<feOffset dy="0.6897"/>
<feGaussianBlur stdDeviation="0.287375"/>
<feComposite in2="hardAlpha" operator="arithmetic" k2="-1" k3="1"/>
<feColorMatrix type="matrix" values="0 0 0 0 0 0 0 0 0 0 0 0 0 0 0 0 0 0 0.3 0"/>
<feBlend mode="normal" in2="shape" result="effect1_innerShadow_2281_1837"/>
</filter>
</defs>
</svg>
