<svg width="204" height="28" viewBox="0 0 204 28" fill="none" xmlns="http://www.w3.org/2000/svg">
<g filter="url(#filter0_i_2281_1838)">
<path d="M99.0193 19.0612C98.1455 19.5221 97.3569 19.7735 96.27 19.7735C95.247 19.7735 94.3305 19.5431 93.5206 19.1031C92.7107 18.6632 92.0927 18.0348 91.6451 17.2387C91.1975 16.4426 90.9631 15.5418 90.9631 14.5154C90.9631 13.4889 91.1975 12.5671 91.6451 11.7711C92.0927 10.975 92.7321 10.3675 93.5419 9.92756C94.3518 9.48763 95.2896 9.27814 96.3126 9.27814C97.8258 9.27814 99.1472 9.80186 100.255 10.8493L102.174 8.08406C101.556 7.53939 100.831 7.09947 100.042 6.78523C98.8701 6.28246 97.5701 6.03108 96.1208 6.03108C94.4158 6.03108 92.8599 6.38721 91.4959 7.12041C90.1319 7.85362 89.0449 8.85917 88.2777 10.137C87.5104 11.4149 87.1268 12.8813 87.1268 14.5154C87.1268 16.1494 87.5104 17.5948 88.2777 18.8937C89.0449 20.1925 90.1106 21.198 91.4746 21.9103C92.8386 22.6435 94.3518 22.9996 96.0569 22.9996C97.2504 22.9996 98.4226 22.8111 99.5948 22.455C100.767 22.0988 101.79 21.5751 102.685 20.9047V14.264H99.0193V19.0612ZM27.8772 19.4802V22.7273H15.5797V6.30341H27.6214V9.55048H19.352V12.9232H26.7689V16.0656H19.352V19.4593H27.8772V19.4802ZM13.1926 15.6675C12.6598 14.9762 11.9352 14.4735 10.9974 14.1802C11.6794 13.824 12.2122 13.3213 12.5959 12.7138C12.9795 12.0853 13.1713 11.373 13.1713 10.577C13.1713 9.2572 12.6385 8.2307 11.5729 7.4556C10.5072 6.68049 8.97269 6.30341 6.9906 6.30341H0V22.7063H7.43817C9.56945 22.7063 11.1892 22.3293 12.3188 21.5542C13.4271 20.7791 13.9812 19.6688 13.9812 18.2442C13.9812 17.2178 13.7255 16.3798 13.1926 15.6675ZM3.77237 9.38289H6.30859C7.24636 9.38289 7.94968 9.52953 8.43987 9.84376C8.93007 10.137 9.16451 10.5979 9.16451 11.2054C9.16451 11.813 8.93007 12.2738 8.43987 12.5881C7.94968 12.9023 7.24636 13.0489 6.30859 13.0489H3.77237V9.38289ZM9.42026 19.1241C8.90876 19.4383 8.16281 19.585 7.1611 19.585H3.75106V15.8142H7.1611C9.16451 15.8142 10.1662 16.4426 10.1662 17.7205C10.1875 18.349 9.93177 18.8308 9.42026 19.1241ZM45.0979 22.7273V6.30341H41.3682V16.4636L33.4824 6.30341H29.7527V22.7063H33.4824V12.5671L41.3682 22.7273H45.0979ZM189.151 6.30341V22.7063H185.421L177.536 12.5462V22.7063H173.806V6.30341H177.536L185.421 16.4636V6.30341H189.151ZM85.6136 22.7273V6.30341H81.8838V16.4636L73.9981 6.30341H70.2683V22.7063H73.9981V12.5671L81.8838 22.7273H85.6136ZM67.9026 6.30341H64.2155V22.7063H67.9026V6.30341ZM137.084 7.03662C138.15 7.51844 138.981 8.20975 139.556 9.0896C140.132 9.9904 140.43 11.0378 140.43 12.2529C140.43 13.447 140.132 14.5154 139.556 15.3952C138.981 16.296 138.15 16.9873 137.084 17.4482C136.018 17.93 134.761 18.1604 133.312 18.1604H130.818V22.6854H127.024V6.30341H133.29C134.761 6.30341 136.018 6.5548 137.084 7.03662ZM133.12 14.9553C134.249 14.9553 135.123 14.7248 135.72 14.243C136.317 13.7612 136.615 13.0908 136.615 12.211C136.615 11.3102 136.317 10.6189 135.72 10.158C135.123 9.67617 134.271 9.44573 133.12 9.44573H130.839V14.9762H133.12V14.9553ZM112.297 20.1087C113.363 21.1142 114.386 21.6799 115.111 21.9941C115.643 22.2455 119.373 23.8795 122.677 22.2874C123.188 22.036 123.998 21.617 124.659 20.7162C125.703 19.2498 125.575 17.4901 125.298 16.6312C125.106 16.0027 124.744 15.479 124.744 15.479C124.552 15.2067 124.382 14.9972 124.168 14.7877C123.657 14.2849 123.124 14.0335 122.804 13.8659C121.59 13.3003 120.375 13.007 119.885 12.9023C119.842 12.8813 119.778 12.8813 119.735 12.8604C119.139 12.7347 118.286 12.5462 117.455 12.0853C117.284 11.9805 117.029 11.8339 116.858 11.5197C116.602 11.0797 116.602 10.4513 116.879 9.9904C117.135 9.59238 117.519 9.42479 117.775 9.32004C117.988 9.23625 118.35 9.11055 119.053 9.1315C119.565 9.15245 120.204 9.23625 121.014 9.52953C121.632 9.75997 122.485 10.137 123.422 10.8284C123.7 10.3884 123.998 9.94851 124.275 9.48763C124.573 9.02676 124.872 8.58683 125.149 8.12596C124.552 7.70698 123.636 7.16231 122.463 6.72239C122.101 6.59669 121.675 6.45005 121.206 6.32436C121.206 6.32436 120.311 6.11487 119.48 6.03108C118.968 5.98918 115.473 5.71684 113.768 8.04216C112.937 9.19435 112.915 10.4722 112.915 10.8912C112.915 11.373 112.915 12.5671 113.725 13.6146C114.215 14.264 114.791 14.5782 115.494 14.9343C116.475 15.458 117.476 15.7304 118.094 15.877C118.243 15.9189 118.371 15.9399 118.499 15.9818C118.734 16.0446 118.947 16.0865 119.352 16.1913C120.481 16.5055 120.78 16.6521 121.035 16.8616C121.227 17.0292 121.59 17.3434 121.675 17.8672C121.76 18.4747 121.419 18.9146 121.355 18.9984C121.227 19.166 120.993 19.3755 120.481 19.5431C119.245 19.9411 117.625 19.5221 116.538 18.8518C116.261 18.6842 115.835 18.3909 115.494 18.1395C115.089 17.8253 114.77 17.5739 114.535 17.3644C114.173 17.8043 113.789 18.2652 113.427 18.7051C113.043 19.2079 112.681 19.6478 112.297 20.1087ZM193.222 21.9941C192.519 21.6799 191.496 21.1142 190.43 20.1087C191.176 19.2079 191.922 18.3071 192.668 17.4063C192.902 17.6158 193.222 17.8672 193.627 18.1814C193.968 18.4328 194.373 18.7261 194.671 18.8937C195.758 19.564 197.378 19.983 198.614 19.585C199.104 19.4174 199.339 19.2079 199.488 19.0403C199.552 18.9775 199.893 18.5166 199.808 17.9091C199.722 17.3853 199.36 17.0711 199.168 16.9035C198.912 16.694 198.635 16.5474 197.485 16.2332C197.101 16.1284 196.866 16.0656 196.632 16.0237C196.504 16.0027 196.376 15.9608 196.227 15.9189C195.609 15.7513 194.607 15.4999 193.627 14.9762C192.945 14.5991 192.348 14.2849 191.858 13.6355C191.048 12.5671 191.048 11.394 191.048 10.9122C191.048 10.4932 191.069 9.2153 191.901 8.06311C193.584 5.73779 197.08 6.01013 197.612 6.05202C198.444 6.11487 199.339 6.34531 199.339 6.34531C199.808 6.471 200.234 6.59669 200.596 6.74334C201.768 7.18326 202.664 7.72793 203.282 8.14691C203.005 8.58683 202.706 9.04771 202.408 9.48763C202.109 9.94851 201.811 10.3884 201.534 10.8493C200.596 10.158 199.722 9.78092 199.126 9.55048C198.316 9.2572 197.676 9.15245 197.165 9.15245C196.462 9.1315 196.099 9.2572 195.886 9.34099C195.63 9.44573 195.247 9.61333 194.991 10.0114C194.693 10.4722 194.693 11.1007 194.97 11.5406C195.14 11.8339 195.396 12.0015 195.566 12.1062C196.398 12.5671 197.25 12.7557 197.847 12.8813C197.889 12.9023 197.953 12.9023 197.996 12.9232C198.486 13.028 199.701 13.3213 200.916 13.8869C201.236 14.0335 201.768 14.3059 202.28 14.8086C202.472 14.9972 202.664 15.2276 202.855 15.4999C202.855 15.4999 203.218 16.0237 203.409 16.6521C203.665 17.511 203.814 19.2498 202.77 20.7372C202.131 21.638 201.3 22.0569 200.788 22.3083C197.506 23.8585 193.776 22.2455 193.222 21.9941ZM58.0987 7.3299C59.4628 8.02121 60.5284 8.96391 61.2743 10.1999C62.0203 11.4359 62.4039 12.8813 62.4039 14.5154C62.4039 16.1494 62.0203 17.5948 61.2743 18.8308C60.5284 20.0668 59.4628 21.0095 58.0987 21.7008C56.7347 22.3712 55.1576 22.7273 53.3886 22.7273H47.2718V6.30341H53.3886C55.1789 6.30341 56.7347 6.65954 58.0987 7.3299ZM53.2181 19.4802C54.8592 19.4802 56.1593 19.0403 57.1397 18.1395C58.12 17.2387 58.6102 16.0446 58.6102 14.5154C58.6102 12.9861 58.12 11.792 57.1397 10.8912C56.1593 9.9904 54.8592 9.55048 53.2181 9.55048H50.9802V19.4593H53.2181V19.4802ZM164.066 10.3256C162.254 10.3256 160.699 11.4359 160.081 13.007L155.669 8.67063C152.387 5.44451 147.058 5.44451 143.798 8.67063C140.515 11.8967 140.515 17.134 143.798 20.3391C145.439 21.9522 147.591 22.7482 149.744 22.7482C151.896 22.7482 154.049 21.9522 155.69 20.3391L155.797 20.2344L154.006 18.4747L153.9 18.5794C151.619 20.821 147.89 20.821 145.609 18.5794C143.329 16.3379 143.329 12.6719 145.609 10.4303C147.89 8.18881 151.619 8.18881 153.9 10.4303L160.997 17.4063L161.104 17.511C161.466 17.8462 161.871 18.1186 162.318 18.328C162.851 18.5585 163.448 18.6842 164.066 18.6842C166.41 18.6842 168.329 16.7988 168.329 14.4944C168.329 12.211 166.41 10.3256 164.066 10.3256ZM158.12 8.67063C161.402 5.44451 166.73 5.44451 169.991 8.67063C171.568 10.2208 172.442 12.2948 172.442 14.5154C172.442 16.715 171.568 18.7889 169.991 20.3601C168.35 21.9731 166.197 22.7692 164.045 22.7692C161.892 22.7692 159.74 21.9731 158.098 20.3601L153.708 16.0237C153.09 17.5948 151.534 18.7051 149.723 18.7051C147.378 18.7051 145.46 16.8197 145.46 14.5154C145.46 12.211 147.378 10.3256 149.723 10.3256C150.511 10.3256 151.236 10.5351 151.875 10.8912C152.173 11.0588 152.429 11.2683 152.685 11.4987L152.792 11.6035L159.91 18.6004C162.191 20.8419 165.92 20.8419 168.201 18.6004C169.309 17.511 169.927 16.0656 169.927 14.5363C169.927 13.007 169.309 11.5406 168.201 10.4722C165.92 8.2307 162.191 8.2307 159.91 10.4722L159.803 10.577L158.013 8.81727L158.12 8.67063Z" fill="#202020" fill-opacity="0.35"/>
</g>
<defs>
<filter id="filter0_i_2281_1838" x="0" y="6" width="203.596" height="17.7802" filterUnits="userSpaceOnUse" color-interpolation-filters="sRGB">
<feFlood flood-opacity="0" result="BackgroundImageFix"/>
<feBlend mode="normal" in="SourceGraphic" in2="BackgroundImageFix" result="shape"/>
<feColorMatrix in="SourceAlpha" type="matrix" values="0 0 0 0 0 0 0 0 0 0 0 0 0 0 0 0 0 0 127 0" result="hardAlpha"/>
<feOffset dy="0.936257"/>
<feGaussianBlur stdDeviation="0.390107"/>
<feComposite in2="hardAlpha" operator="arithmetic" k2="-1" k3="1"/>
<feColorMatrix type="matrix" values="0 0 0 0 0 0 0 0 0 0 0 0 0 0 0 0 0 0 0.3 0"/>
<feBlend mode="normal" in2="shape" result="effect1_innerShadow_2281_1838"/>
</filter>
</defs>
</svg>
