<svg width="98" height="28" viewBox="0 0 98 28" fill="none" xmlns="http://www.w3.org/2000/svg">
<g filter="url(#filter0_i_2281_1839)">
<path d="M50.65 17.403C49.7085 16.6993 48.3434 16.277 46.3664 15.9486C43.9187 15.5264 42.6006 15.1041 42.6006 13.9313C42.6006 13.0399 43.4479 12.0547 45.8015 12.0547C46.9783 12.0547 47.8727 12.43 48.4376 13.1337C48.72 13.4621 48.9554 13.8844 49.0966 14.4004C49.1437 14.5881 49.332 14.7288 49.5202 14.7288H51.6385C51.7797 14.7288 51.9209 14.6819 51.968 14.5881C52.0621 14.4943 52.1092 14.3535 52.0621 14.2128C51.6856 12.1016 50.4146 10.9756 50.038 10.6472C48.9554 9.7558 47.4961 9.33357 45.7545 9.33357C43.9186 9.33357 42.3653 9.7558 41.2355 10.6003C40.0587 11.4448 39.4468 12.6176 39.4468 13.9782C39.4468 17.2153 42.4594 18.2006 45.7074 18.7166C48.7671 19.1858 49.1907 19.9833 49.1907 20.7809C49.1907 22.0007 47.8727 22.7513 45.7545 22.7513C45.3779 22.7513 45.0484 22.7044 44.7189 22.6575C44.7189 22.6575 44.7189 22.6575 44.6718 22.6575C43.2596 22.376 42.3182 21.5315 41.8004 19.9833C41.7533 19.7957 41.565 19.7018 41.3768 19.7018H39.1173C38.9761 19.7018 38.8349 19.7488 38.7878 19.8426C38.6936 19.9364 38.6466 20.0772 38.6936 20.2179C38.8349 21.0624 39.2585 21.813 39.2585 21.813C40.247 23.8773 42.0828 25.144 44.6247 25.3786C45.0013 25.4255 45.3308 25.4255 45.7074 25.4255C47.5432 25.4255 49.2378 24.9564 50.4146 24.1119C51.5914 23.2674 52.2504 22.0476 52.2504 20.6871C52.3446 19.2796 51.7797 18.2006 50.65 17.403Z" fill="#202020" fill-opacity="0.35"/>
<path d="M20.6645 9.47444H17.9343C17.7931 9.47444 17.6519 9.61519 17.6519 9.75593V25.1442C17.6519 25.2849 17.7931 25.4256 17.9343 25.4256H20.6174C20.7586 25.4256 20.8999 25.2849 20.8999 25.1442V9.75593C20.9469 9.61519 20.8057 9.47444 20.6645 9.47444Z" fill="#202020" fill-opacity="0.35"/>
<path d="M97.8159 20.9686C97.6747 20.8278 97.5335 20.734 97.2981 20.734H95.1799C94.8974 20.734 94.6621 20.8747 94.5679 21.1562C94.2384 22.0007 93.4382 22.4699 92.2614 22.4699C90.6139 22.4699 89.7666 21.5785 89.7666 19.9833V12.5238C89.7666 12.4769 89.8136 12.43 89.8607 12.43H96.2155C96.545 12.43 96.8274 12.1485 96.8274 11.8201V10.178C96.8274 9.84963 96.545 9.56814 96.2155 9.56814H89.8607C89.8136 9.56814 89.7666 9.52123 89.7666 9.47431V5.95566C89.7666 5.62726 89.4841 5.34577 89.1546 5.34577H87.1305C86.801 5.34577 86.5186 5.62726 86.5186 5.95566V20.0772C86.5186 23.3612 88.7781 25.5193 92.2614 25.5193H92.3085C92.3085 25.5193 92.3085 25.5193 92.3555 25.5193C95.274 25.5193 97.3923 24.0181 97.9571 21.5315C98.0042 21.3439 97.9571 21.1562 97.8159 20.9686Z" fill="#202020" fill-opacity="0.35"/>
<path d="M83.0822 11.3978C81.8113 10.1311 80.0696 9.38045 78.2338 9.33354C76.3509 9.28662 74.6092 9.99035 73.2912 11.304C71.9261 12.6176 71.1729 14.4004 71.1729 16.277C71.1729 16.277 71.1729 16.8869 71.1729 17.8252V25.0971C71.1729 25.2378 71.3142 25.3786 71.4554 25.3786H74.1385C74.2797 25.3786 74.4209 25.2378 74.4209 25.0971V16.1832C74.4209 15.198 74.7975 14.3066 75.5506 13.6028C76.2567 12.8991 77.1982 12.5707 78.2338 12.5707C80.1637 12.6176 81.8583 14.2127 81.8583 16.0424V16.1832C81.8583 16.277 81.9054 16.3239 81.9525 16.3708C81.9995 16.4178 82.0937 16.4647 82.1408 16.4647C82.7527 16.4647 84.2119 16.4647 84.8239 16.4647C84.9651 16.4647 85.1063 16.3239 85.1063 16.1832C85.1063 14.4004 84.4002 12.7114 83.0822 11.3978Z" fill="#202020" fill-opacity="0.35"/>
<path d="M37.0929 19.7486H34.6922C34.5981 19.7486 34.5039 19.7956 34.4098 19.8894C34.3627 19.9363 34.3627 19.9363 34.3627 19.9832C33.7037 21.6252 32.3386 22.6105 30.5499 22.6105C29.2318 22.6105 28.055 22.0944 27.2077 21.1561C26.3604 20.2178 25.8897 18.9042 25.8897 17.4967C25.8897 16.0423 26.3604 14.7287 27.2077 13.7904C28.055 12.8521 29.2318 12.336 30.5499 12.336C32.3386 12.336 33.7508 13.3212 34.4098 14.9633C34.4569 15.104 34.5981 15.1979 34.7393 15.1979H37.14C37.2341 15.1979 37.3283 15.1509 37.4224 15.0571C37.4695 14.9633 37.5166 14.9164 37.4695 14.8225C37.4695 14.588 37.4224 14.3534 37.3283 14.1188C37.3283 14.0719 37.2812 14.025 37.2812 14.025C36.9517 12.9459 36.2456 12.1014 36.1985 12.0545C34.8805 10.3656 32.8564 9.42727 30.5028 9.42727C28.2433 9.42727 26.2192 10.2717 24.76 11.8199C23.3949 13.3212 22.6417 15.3386 22.6417 17.4967C22.6417 19.6548 23.3949 21.6722 24.76 23.1265C26.2192 24.7217 28.1963 25.5661 30.5028 25.5661C31.4913 25.5661 32.3857 25.4254 33.1859 25.1439C35.0217 24.3933 36.528 23.1735 37.2812 20.8746C37.3283 20.64 37.3753 20.4055 37.4224 20.1709C37.4224 20.077 37.4224 19.9832 37.3753 19.9363C37.2812 19.7956 37.187 19.7486 37.0929 19.7486Z" fill="#202020" fill-opacity="0.35"/>
<path d="M19.2997 3C17.9816 3 16.8519 4.07905 16.8519 5.39268C16.8519 6.70631 17.9346 7.78536 19.2997 7.78536C20.6177 7.78536 21.7003 6.70631 21.7003 5.39268C21.7003 4.07905 20.6177 3 19.2997 3Z" fill="#202020" fill-opacity="0.35"/>
<path d="M8.00228 3C5.9311 3 3.95407 3.79756 2.44776 5.25193C2.30654 5.39268 2.07118 5.72109 2.07118 5.72109C1.97703 5.81492 1.88289 5.90875 1.78874 6.00258L1.74167 6.04949C0.706083 7.36312 0.0941444 9.00516 0 10.741V25.144C0 25.1909 0 25.2379 0.0470722 25.2848C0.0941444 25.3786 0.188289 25.4255 0.282433 25.4255H2.96555C3.10677 25.4255 3.24798 25.2848 3.24798 25.144V17.8252C3.24798 17.7783 3.29506 17.7314 3.29506 17.7314C3.34213 17.7314 3.34213 17.7314 3.3892 17.7314C4.70722 18.6697 6.26061 19.1389 7.90813 19.1389C9.13201 19.1389 10.3088 18.8574 11.3444 18.3413C14.0275 17.0277 15.8633 14.2597 15.8633 11.0694C15.9575 6.61248 12.38 3 8.00228 3ZM8.00228 16.0894C5.31916 16.0894 3.15384 13.8374 3.15384 11.1163C3.15384 8.34834 5.31916 6.14333 8.00228 6.14333C10.6854 6.14333 12.8507 8.39526 12.8507 11.1163C12.8036 13.8374 10.6383 16.0894 8.00228 16.0894Z" fill="#202020" fill-opacity="0.35"/>
<path d="M69.3371 17.356C69.2901 12.946 65.7596 9.38042 61.3819 9.38042C57.0042 9.38042 53.4267 12.9929 53.4267 17.4499C53.4267 21.0154 55.7333 24.0649 58.8871 25.144H58.9342C58.9812 25.144 59.0283 25.1909 59.0283 25.1909C59.7344 25.4255 60.4875 25.5193 61.3348 25.5193C63.3119 25.5193 65.1948 24.7686 66.1833 23.6427C66.2304 23.5958 66.3245 23.6427 66.3245 23.6896C66.3245 24.2526 66.3245 24.9094 66.3245 25.0501V25.144C66.3245 25.2847 66.4657 25.4255 66.6069 25.4255H69.0076C69.1488 25.4255 69.2901 25.2847 69.2901 25.144L69.3371 17.356ZM61.3819 22.4229C58.6988 22.4229 56.4864 20.1709 56.4864 17.4499C56.4864 14.7288 58.6988 12.4768 61.3819 12.4768C64.065 12.4768 66.2774 14.7288 66.2774 17.4499C66.2774 20.1709 64.065 22.4229 61.3819 22.4229Z" fill="#202020" fill-opacity="0.35"/>
</g>
<defs>
<filter id="filter0_i_2281_1839" x="0" y="3" width="97.9746" height="22.8928" filterUnits="userSpaceOnUse" color-interpolation-filters="sRGB">
<feFlood flood-opacity="0" result="BackgroundImageFix"/>
<feBlend mode="normal" in="SourceGraphic" in2="BackgroundImageFix" result="shape"/>
<feColorMatrix in="SourceAlpha" type="matrix" values="0 0 0 0 0 0 0 0 0 0 0 0 0 0 0 0 0 0 127 0" result="hardAlpha"/>
<feOffset dy="0.391641"/>
<feGaussianBlur stdDeviation="0.163184"/>
<feComposite in2="hardAlpha" operator="arithmetic" k2="-1" k3="1"/>
<feColorMatrix type="matrix" values="0 0 0 0 0 0 0 0 0 0 0 0 0 0 0 0 0 0 0.3 0"/>
<feBlend mode="normal" in2="shape" result="effect1_innerShadow_2281_1839"/>
</filter>
</defs>
</svg>
